G75*
G70*
%OFA0B0*%
%FSLAX24Y24*%
%IPPOS*%
%LPD*%
%AMOC8*
5,1,8,0,0,1.08239X$1,22.5*
%
%ADD10OC8,0.0740*%
%ADD11C,0.0740*%
%ADD12R,0.0800X0.0800*%
%ADD13C,0.0800*%
%ADD14C,0.0100*%
%ADD15C,0.0317*%
D10*
X001350Y003550D03*
X001350Y004550D03*
X002350Y004550D03*
X002350Y003550D03*
X003350Y003550D03*
X003350Y004550D03*
D11*
X003350Y006250D03*
X003350Y007250D03*
X003350Y008250D03*
X003350Y009250D03*
X003350Y010250D03*
X003350Y011250D03*
X002350Y011250D03*
X002350Y010250D03*
X002350Y009250D03*
X002350Y008250D03*
X002350Y007250D03*
X002350Y006250D03*
X001350Y006250D03*
X001350Y007250D03*
X001350Y008250D03*
X001350Y009250D03*
X001350Y010250D03*
X001350Y011250D03*
D12*
X001950Y014720D03*
D13*
X001950Y013202D03*
D14*
X000600Y017896D02*
X000600Y000700D01*
X015270Y000700D01*
X015270Y017896D01*
X000600Y017896D01*
X000600Y017886D02*
X015270Y017886D01*
X015270Y017788D02*
X014707Y017788D01*
X014605Y017830D02*
X014892Y017711D01*
X015111Y017492D01*
X015270Y017492D01*
X015270Y017394D02*
X015152Y017394D01*
X015111Y017492D02*
X015230Y017205D01*
X015230Y016895D01*
X015111Y016608D01*
X014892Y016389D01*
X014605Y016270D01*
X014295Y016270D01*
X014008Y016389D01*
X013789Y016608D01*
X013670Y016895D01*
X013670Y017205D01*
X013789Y017492D01*
X002111Y017492D01*
X001892Y017711D01*
X001605Y017830D01*
X001295Y017830D01*
X001008Y017711D01*
X000789Y017492D01*
X000600Y017492D01*
X000600Y017394D02*
X000748Y017394D01*
X000789Y017492D02*
X000670Y017205D01*
X000670Y016895D01*
X000789Y016608D01*
X001008Y016389D01*
X001295Y016270D01*
X001605Y016270D01*
X001892Y016389D01*
X002111Y016608D01*
X002230Y016895D01*
X002230Y017205D01*
X002111Y017492D01*
X002152Y017394D02*
X013748Y017394D01*
X013789Y017492D02*
X014008Y017711D01*
X014295Y017830D01*
X014605Y017830D01*
X014914Y017689D02*
X015270Y017689D01*
X015270Y017591D02*
X015012Y017591D01*
X015193Y017295D02*
X015270Y017295D01*
X015270Y017197D02*
X015230Y017197D01*
X015230Y017098D02*
X015270Y017098D01*
X015270Y017000D02*
X015230Y017000D01*
X015230Y016901D02*
X015270Y016901D01*
X015270Y016803D02*
X015192Y016803D01*
X015151Y016704D02*
X015270Y016704D01*
X015270Y016606D02*
X015109Y016606D01*
X015010Y016507D02*
X015270Y016507D01*
X015270Y016409D02*
X014912Y016409D01*
X014702Y016310D02*
X015270Y016310D01*
X015270Y016212D02*
X000600Y016212D01*
X000600Y016310D02*
X001198Y016310D01*
X000988Y016409D02*
X000600Y016409D01*
X000600Y016507D02*
X000890Y016507D01*
X000791Y016606D02*
X000600Y016606D01*
X000600Y016704D02*
X000749Y016704D01*
X000708Y016803D02*
X000600Y016803D01*
X000600Y016901D02*
X000670Y016901D01*
X000670Y017000D02*
X000600Y017000D01*
X000600Y017098D02*
X000670Y017098D01*
X000670Y017197D02*
X000600Y017197D01*
X000600Y017295D02*
X000707Y017295D01*
X000600Y017591D02*
X000888Y017591D01*
X000986Y017689D02*
X000600Y017689D01*
X000600Y017788D02*
X001193Y017788D01*
X001707Y017788D02*
X014193Y017788D01*
X013986Y017689D02*
X001914Y017689D01*
X002012Y017591D02*
X013888Y017591D01*
X013707Y017295D02*
X002193Y017295D01*
X002230Y017197D02*
X013670Y017197D01*
X013670Y017098D02*
X002230Y017098D01*
X002230Y017000D02*
X013670Y017000D01*
X013670Y016901D02*
X002230Y016901D01*
X002192Y016803D02*
X013708Y016803D01*
X013749Y016704D02*
X002151Y016704D01*
X002109Y016606D02*
X013791Y016606D01*
X013890Y016507D02*
X002010Y016507D01*
X001912Y016409D02*
X013988Y016409D01*
X014198Y016310D02*
X001702Y016310D01*
X001504Y015230D02*
X001440Y015166D01*
X001440Y014274D01*
X001504Y014210D01*
X002396Y014210D01*
X002460Y014274D01*
X002460Y015166D01*
X002396Y015230D01*
X001504Y015230D01*
X001501Y015227D02*
X000600Y015227D01*
X000600Y015325D02*
X015270Y015325D01*
X015270Y015227D02*
X002399Y015227D01*
X002460Y015128D02*
X015270Y015128D01*
X015270Y015030D02*
X002460Y015030D01*
X002460Y014931D02*
X015270Y014931D01*
X015270Y014833D02*
X002460Y014833D01*
X002460Y014734D02*
X015270Y014734D01*
X015270Y014636D02*
X002460Y014636D01*
X002460Y014537D02*
X015270Y014537D01*
X015270Y014439D02*
X002460Y014439D01*
X002460Y014340D02*
X015270Y014340D01*
X015270Y014242D02*
X002427Y014242D01*
X002161Y013712D02*
X002079Y013739D01*
X002000Y013751D01*
X002000Y013252D01*
X002499Y013252D01*
X002486Y013331D01*
X002460Y013413D01*
X002420Y013490D01*
X002370Y013560D01*
X002308Y013622D01*
X002238Y013672D01*
X002161Y013712D01*
X002268Y013651D02*
X015270Y013651D01*
X015270Y013749D02*
X002012Y013749D01*
X002000Y013749D02*
X001900Y013749D01*
X001900Y013751D02*
X001821Y013739D01*
X001739Y013712D01*
X001662Y013672D01*
X001592Y013622D01*
X001530Y013560D01*
X001480Y013490D01*
X001440Y013413D01*
X001414Y013331D01*
X001401Y013252D01*
X001900Y013252D01*
X001900Y013152D01*
X002000Y013152D01*
X002000Y012653D01*
X002079Y012666D01*
X002161Y012692D01*
X002238Y012732D01*
X002308Y012783D01*
X002370Y012844D01*
X002420Y012914D01*
X002460Y012991D01*
X002486Y013073D01*
X002499Y013152D01*
X002000Y013152D01*
X002000Y013252D01*
X001900Y013252D01*
X001900Y013751D01*
X001888Y013749D02*
X000600Y013749D01*
X000600Y013651D02*
X001632Y013651D01*
X001524Y013552D02*
X000600Y013552D01*
X000600Y013454D02*
X001461Y013454D01*
X001421Y013355D02*
X000600Y013355D01*
X000600Y013257D02*
X001402Y013257D01*
X001401Y013152D02*
X001414Y013073D01*
X001440Y012991D01*
X001480Y012914D01*
X001530Y012844D01*
X001592Y012783D01*
X001662Y012732D01*
X001739Y012692D01*
X001821Y012666D01*
X001900Y012653D01*
X001900Y013152D01*
X001401Y013152D01*
X001418Y013060D02*
X000600Y013060D01*
X000600Y013158D02*
X001900Y013158D01*
X001900Y013060D02*
X002000Y013060D01*
X002000Y013158D02*
X015270Y013158D01*
X015270Y013060D02*
X002482Y013060D01*
X002444Y012961D02*
X015270Y012961D01*
X015270Y012863D02*
X002383Y012863D01*
X002283Y012764D02*
X015270Y012764D01*
X015270Y012666D02*
X002078Y012666D01*
X002000Y012666D02*
X001900Y012666D01*
X001822Y012666D02*
X000600Y012666D01*
X000600Y012764D02*
X001617Y012764D01*
X001517Y012863D02*
X000600Y012863D01*
X000600Y012961D02*
X001456Y012961D01*
X001900Y012961D02*
X002000Y012961D01*
X002000Y012863D02*
X001900Y012863D01*
X001900Y012764D02*
X002000Y012764D01*
X002000Y013257D02*
X001900Y013257D01*
X001900Y013355D02*
X002000Y013355D01*
X002000Y013454D02*
X001900Y013454D01*
X001900Y013552D02*
X002000Y013552D01*
X002000Y013651D02*
X001900Y013651D01*
X002376Y013552D02*
X015270Y013552D01*
X015270Y013454D02*
X002439Y013454D01*
X002479Y013355D02*
X015270Y013355D01*
X015270Y013257D02*
X002498Y013257D01*
X001473Y014242D02*
X000600Y014242D01*
X000600Y014340D02*
X001440Y014340D01*
X001440Y014439D02*
X000600Y014439D01*
X000600Y014537D02*
X001440Y014537D01*
X001440Y014636D02*
X000600Y014636D01*
X000600Y014734D02*
X001440Y014734D01*
X001440Y014833D02*
X000600Y014833D01*
X000600Y014931D02*
X001440Y014931D01*
X001440Y015030D02*
X000600Y015030D01*
X000600Y015128D02*
X001440Y015128D01*
X000600Y015424D02*
X015270Y015424D01*
X015270Y015522D02*
X000600Y015522D01*
X000600Y015621D02*
X015270Y015621D01*
X015270Y015719D02*
X000600Y015719D01*
X000600Y015818D02*
X015270Y015818D01*
X015270Y015916D02*
X000600Y015916D01*
X000600Y016015D02*
X015270Y016015D01*
X015270Y016113D02*
X000600Y016113D01*
X000600Y014143D02*
X015270Y014143D01*
X015270Y014045D02*
X000600Y014045D01*
X000600Y013946D02*
X015270Y013946D01*
X015270Y013848D02*
X000600Y013848D01*
X000600Y012567D02*
X015270Y012567D01*
X015270Y012469D02*
X000600Y012469D01*
X000600Y012370D02*
X015270Y012370D01*
X015270Y012272D02*
X000600Y012272D01*
X000600Y012173D02*
X015270Y012173D01*
X015270Y012075D02*
X000600Y012075D01*
X000600Y011976D02*
X015270Y011976D01*
X015270Y011878D02*
X011602Y011878D01*
X011503Y011918D01*
X011397Y011918D01*
X011298Y011878D01*
X011250Y011830D01*
X011202Y011878D01*
X011103Y011918D01*
X010997Y011918D01*
X010898Y011878D01*
X010822Y011802D01*
X010784Y011710D01*
X006084Y011710D01*
X005990Y011616D01*
X004784Y010410D01*
X003803Y010410D01*
X003757Y010522D01*
X003622Y010657D01*
X003445Y010730D01*
X003255Y010730D01*
X003078Y010657D01*
X003010Y010589D01*
X003010Y010684D01*
X003143Y010816D01*
X003255Y010770D01*
X003445Y010770D01*
X003622Y010843D01*
X003757Y010978D01*
X003830Y011155D01*
X003830Y011345D01*
X003757Y011522D01*
X003622Y011657D01*
X003445Y011730D01*
X003255Y011730D01*
X003078Y011657D01*
X002943Y011522D01*
X002870Y011345D01*
X002870Y011155D01*
X002916Y011043D01*
X002784Y010910D01*
X002690Y010816D01*
X002690Y010589D01*
X002622Y010657D01*
X002445Y010730D01*
X002255Y010730D01*
X002078Y010657D01*
X001943Y010522D01*
X001870Y010345D01*
X001870Y010155D01*
X001943Y009978D01*
X002078Y009843D01*
X002255Y009770D01*
X002445Y009770D01*
X002622Y009843D01*
X002690Y009911D01*
X002690Y009589D01*
X002622Y009657D01*
X002445Y009730D01*
X002255Y009730D01*
X002078Y009657D01*
X001943Y009522D01*
X001870Y009345D01*
X001870Y009155D01*
X001943Y008978D01*
X002078Y008843D01*
X002255Y008770D01*
X002445Y008770D01*
X002622Y008843D01*
X002690Y008911D01*
X002690Y008884D01*
X002890Y008684D01*
X002984Y008590D01*
X003011Y008590D01*
X002943Y008522D01*
X002870Y008345D01*
X002870Y008155D01*
X002943Y007978D01*
X003078Y007843D01*
X003255Y007770D01*
X003445Y007770D01*
X003622Y007843D01*
X003757Y007978D01*
X003803Y008090D01*
X004364Y008090D01*
X003768Y007495D01*
X003757Y007522D01*
X003622Y007657D01*
X003445Y007730D01*
X003255Y007730D01*
X003078Y007657D01*
X002943Y007522D01*
X002870Y007345D01*
X002870Y007155D01*
X002943Y006978D01*
X003078Y006843D01*
X003255Y006770D01*
X003445Y006770D01*
X003622Y006843D01*
X003690Y006911D01*
X003690Y006816D01*
X003557Y006684D01*
X003445Y006730D01*
X003255Y006730D01*
X003078Y006657D01*
X002943Y006522D01*
X002870Y006345D01*
X002870Y006155D01*
X002943Y005978D01*
X003078Y005843D01*
X003255Y005770D01*
X003445Y005770D01*
X003622Y005843D01*
X003757Y005978D01*
X003830Y006155D01*
X003830Y006345D01*
X003784Y006457D01*
X004010Y006684D01*
X004010Y006984D01*
X004918Y007892D01*
X004882Y007803D01*
X004882Y007697D01*
X004922Y007598D01*
X004998Y007522D01*
X005097Y007482D01*
X005203Y007482D01*
X005302Y007522D01*
X005378Y007598D01*
X005418Y007697D01*
X005418Y007803D01*
X005378Y007902D01*
X005310Y007970D01*
X005310Y007984D01*
X006116Y008790D01*
X009090Y008790D01*
X009090Y008770D01*
X009022Y008702D01*
X008982Y008603D01*
X008982Y008497D01*
X009022Y008398D01*
X009098Y008322D01*
X009167Y008294D01*
X008290Y007416D01*
X008290Y006116D01*
X006584Y004410D01*
X006270Y004410D01*
X006202Y004478D01*
X006103Y004518D01*
X005997Y004518D01*
X005898Y004478D01*
X005822Y004402D01*
X005782Y004303D01*
X005782Y004197D01*
X005822Y004098D01*
X005898Y004022D01*
X005997Y003982D01*
X006103Y003982D01*
X006202Y004022D01*
X006270Y004090D01*
X006716Y004090D01*
X006794Y004167D01*
X006822Y004098D01*
X006898Y004022D01*
X006997Y003982D01*
X007103Y003982D01*
X007202Y004022D01*
X007278Y004098D01*
X007318Y004197D01*
X007318Y004292D01*
X008910Y005884D01*
X008910Y007030D01*
X008978Y007098D01*
X009018Y007197D01*
X009018Y007303D01*
X008978Y007402D01*
X008902Y007478D01*
X008833Y007506D01*
X009816Y008490D01*
X009830Y008490D01*
X009898Y008422D01*
X009997Y008382D01*
X010103Y008382D01*
X010202Y008422D01*
X010278Y008498D01*
X010318Y008597D01*
X010318Y008703D01*
X010278Y008802D01*
X010202Y008878D01*
X010103Y008918D01*
X009997Y008918D01*
X009898Y008878D01*
X009830Y008810D01*
X009684Y008810D01*
X009590Y008716D01*
X009506Y008633D01*
X009478Y008702D01*
X009410Y008770D01*
X009410Y010630D01*
X009478Y010698D01*
X009518Y010797D01*
X009518Y010903D01*
X009483Y010990D01*
X011484Y010990D01*
X011682Y010792D01*
X011682Y010697D01*
X011722Y010598D01*
X011798Y010522D01*
X011897Y010482D01*
X012003Y010482D01*
X012102Y010522D01*
X012178Y010598D01*
X012218Y010697D01*
X012218Y010803D01*
X012178Y010902D01*
X012102Y010978D01*
X012003Y011018D01*
X011908Y011018D01*
X011710Y011216D01*
X011710Y011216D01*
X011616Y011310D01*
X011416Y011310D01*
X011463Y011382D01*
X011503Y011382D01*
X011602Y011422D01*
X011678Y011498D01*
X011718Y011597D01*
X011718Y011703D01*
X011678Y011802D01*
X011602Y011878D01*
X011687Y011779D02*
X015270Y011779D01*
X015270Y011681D02*
X011718Y011681D01*
X011712Y011582D02*
X015270Y011582D01*
X015270Y011484D02*
X011663Y011484D01*
X011512Y011385D02*
X015270Y011385D01*
X015270Y011287D02*
X011640Y011287D01*
X011738Y011188D02*
X015270Y011188D01*
X015270Y011090D02*
X011837Y011090D01*
X012070Y010991D02*
X015270Y010991D01*
X015270Y010893D02*
X012182Y010893D01*
X012218Y010794D02*
X015270Y010794D01*
X015270Y010696D02*
X012218Y010696D01*
X012177Y010597D02*
X015270Y010597D01*
X015270Y010499D02*
X012044Y010499D01*
X011856Y010499D02*
X009410Y010499D01*
X009410Y010597D02*
X011723Y010597D01*
X011682Y010696D02*
X009475Y010696D01*
X009517Y010794D02*
X011680Y010794D01*
X011581Y010893D02*
X009518Y010893D01*
X009250Y010850D02*
X009250Y008950D01*
X006050Y008950D01*
X005150Y008050D01*
X005150Y007750D01*
X005342Y007938D02*
X008811Y007938D01*
X008910Y008036D02*
X005362Y008036D01*
X005461Y008135D02*
X009008Y008135D01*
X009107Y008233D02*
X005559Y008233D01*
X005658Y008332D02*
X009089Y008332D01*
X009009Y008430D02*
X005756Y008430D01*
X005855Y008529D02*
X008982Y008529D01*
X008991Y008627D02*
X005953Y008627D01*
X006052Y008726D02*
X009046Y008726D01*
X009250Y008550D02*
X009250Y008950D01*
X009410Y008923D02*
X011789Y008923D01*
X011782Y008903D02*
X011782Y008818D01*
X011697Y008818D01*
X011598Y008778D01*
X011522Y008702D01*
X011482Y008603D01*
X011482Y008497D01*
X011522Y008398D01*
X011590Y008330D01*
X011590Y005016D01*
X011092Y004518D01*
X010997Y004518D01*
X010898Y004478D01*
X010822Y004402D01*
X010782Y004303D01*
X010782Y004245D01*
X010510Y004516D01*
X010510Y007030D01*
X010578Y007098D01*
X010618Y007197D01*
X010618Y007303D01*
X010578Y007402D01*
X010502Y007478D01*
X010403Y007518D01*
X010297Y007518D01*
X010198Y007478D01*
X010122Y007402D01*
X010100Y007348D01*
X010078Y007402D01*
X010002Y007478D01*
X009903Y007518D01*
X009797Y007518D01*
X009698Y007478D01*
X009622Y007402D01*
X009582Y007303D01*
X009582Y007197D01*
X009622Y007098D01*
X009690Y007030D01*
X009690Y004584D01*
X010055Y004218D01*
X009997Y004218D01*
X009898Y004178D01*
X009822Y004102D01*
X009782Y004003D01*
X009782Y003897D01*
X009822Y003798D01*
X009898Y003722D01*
X009997Y003682D01*
X010092Y003682D01*
X010364Y003410D01*
X010116Y003410D01*
X009318Y004208D01*
X009318Y004303D01*
X009278Y004402D01*
X009202Y004478D01*
X009103Y004518D01*
X008997Y004518D01*
X008898Y004478D01*
X008822Y004402D01*
X008782Y004303D01*
X008782Y004197D01*
X008822Y004098D01*
X008898Y004022D01*
X008997Y003982D01*
X009092Y003982D01*
X009864Y003210D01*
X009316Y003210D01*
X008318Y004208D01*
X008318Y004303D01*
X008278Y004402D01*
X008202Y004478D01*
X008103Y004518D01*
X007997Y004518D01*
X007898Y004478D01*
X007822Y004402D01*
X007782Y004303D01*
X007782Y004197D01*
X007822Y004098D01*
X007898Y004022D01*
X007997Y003982D01*
X008092Y003982D01*
X009184Y002890D01*
X013016Y002890D01*
X013110Y002984D01*
X014010Y003884D01*
X014010Y008316D01*
X013916Y008410D01*
X012918Y009408D01*
X012918Y009503D01*
X012878Y009602D01*
X012802Y009678D01*
X012703Y009718D01*
X012597Y009718D01*
X012498Y009678D01*
X012422Y009602D01*
X012382Y009503D01*
X012382Y009418D01*
X012297Y009418D01*
X012198Y009378D01*
X012122Y009302D01*
X012082Y009203D01*
X012082Y009118D01*
X011997Y009118D01*
X011898Y009078D01*
X011822Y009002D01*
X011782Y008903D01*
X011782Y008824D02*
X010256Y008824D01*
X010309Y008726D02*
X011546Y008726D01*
X011491Y008627D02*
X010318Y008627D01*
X010290Y008529D02*
X011482Y008529D01*
X011509Y008430D02*
X010210Y008430D01*
X010050Y008650D02*
X009750Y008650D01*
X008450Y007350D01*
X008450Y006050D01*
X006650Y004250D01*
X006050Y004250D01*
X005958Y003998D02*
X003581Y003998D01*
X003565Y004030D02*
X003870Y004335D01*
X003870Y004500D01*
X003400Y004500D01*
X003400Y004600D01*
X003870Y004600D01*
X003870Y004765D01*
X003565Y005070D01*
X003400Y005070D01*
X003400Y004600D01*
X003300Y004600D01*
X003300Y005070D01*
X003135Y005070D01*
X002830Y004765D01*
X002830Y004600D01*
X003300Y004600D01*
X003300Y004500D01*
X003400Y004500D01*
X003400Y004030D01*
X003565Y004030D01*
X003549Y004030D02*
X003151Y004030D01*
X002870Y003749D01*
X002870Y003351D01*
X003151Y003070D01*
X003549Y003070D01*
X003830Y003351D01*
X003830Y003749D01*
X003549Y004030D01*
X003631Y004096D02*
X005824Y004096D01*
X005782Y004195D02*
X003730Y004195D01*
X003828Y004293D02*
X005782Y004293D01*
X005818Y004392D02*
X003870Y004392D01*
X003870Y004490D02*
X005928Y004490D01*
X006172Y004490D02*
X006664Y004490D01*
X006762Y004589D02*
X003400Y004589D01*
X003400Y004687D02*
X003300Y004687D01*
X003300Y004589D02*
X002830Y004589D01*
X002830Y004500D02*
X002830Y004335D01*
X003135Y004030D01*
X003300Y004030D01*
X003300Y004500D01*
X002830Y004500D01*
X002830Y004490D02*
X002830Y004490D01*
X002830Y004392D02*
X002830Y004392D01*
X002830Y004351D02*
X002549Y004070D01*
X002151Y004070D01*
X001870Y004351D01*
X001870Y004749D01*
X002151Y005030D01*
X002549Y005030D01*
X002830Y004749D01*
X002830Y004351D01*
X002872Y004293D02*
X002772Y004293D01*
X002673Y004195D02*
X002970Y004195D01*
X003069Y004096D02*
X002575Y004096D01*
X002549Y004030D02*
X002151Y004030D01*
X001870Y003749D01*
X001870Y003351D01*
X002151Y003070D01*
X002549Y003070D01*
X002830Y003351D01*
X002830Y003749D01*
X002549Y004030D01*
X002581Y003998D02*
X003119Y003998D01*
X003020Y003899D02*
X002680Y003899D01*
X002778Y003801D02*
X002922Y003801D01*
X002870Y003702D02*
X002830Y003702D01*
X002830Y003604D02*
X002870Y003604D01*
X002870Y003505D02*
X002830Y003505D01*
X002830Y003407D02*
X002870Y003407D01*
X002913Y003308D02*
X002787Y003308D01*
X002688Y003210D02*
X003012Y003210D01*
X003110Y003111D02*
X002590Y003111D01*
X002110Y003111D02*
X001590Y003111D01*
X001549Y003070D02*
X001830Y003351D01*
X001830Y003749D01*
X001549Y004030D01*
X001151Y004030D01*
X000870Y003749D01*
X000870Y003351D01*
X001151Y003070D01*
X001549Y003070D01*
X001688Y003210D02*
X002012Y003210D01*
X001913Y003308D02*
X001787Y003308D01*
X001830Y003407D02*
X001870Y003407D01*
X001870Y003505D02*
X001830Y003505D01*
X001830Y003604D02*
X001870Y003604D01*
X001870Y003702D02*
X001830Y003702D01*
X001778Y003801D02*
X001922Y003801D01*
X002020Y003899D02*
X001680Y003899D01*
X001581Y003998D02*
X002119Y003998D01*
X002125Y004096D02*
X001575Y004096D01*
X001549Y004070D02*
X001830Y004351D01*
X001830Y004749D01*
X001549Y005030D01*
X001151Y005030D01*
X000870Y004749D01*
X000870Y004351D01*
X001151Y004070D01*
X001549Y004070D01*
X001673Y004195D02*
X002027Y004195D01*
X001928Y004293D02*
X001772Y004293D01*
X001830Y004392D02*
X001870Y004392D01*
X001870Y004490D02*
X001830Y004490D01*
X001830Y004589D02*
X001870Y004589D01*
X001870Y004687D02*
X001830Y004687D01*
X001793Y004786D02*
X001907Y004786D01*
X002005Y004884D02*
X001695Y004884D01*
X001596Y004983D02*
X002104Y004983D01*
X002596Y004983D02*
X003047Y004983D01*
X002949Y004884D02*
X002695Y004884D01*
X002793Y004786D02*
X002850Y004786D01*
X002830Y004687D02*
X002830Y004687D01*
X003300Y004786D02*
X003400Y004786D01*
X003400Y004884D02*
X003300Y004884D01*
X003300Y004983D02*
X003400Y004983D01*
X003653Y004983D02*
X007156Y004983D01*
X007255Y005081D02*
X000600Y005081D01*
X000600Y004983D02*
X001104Y004983D01*
X001005Y004884D02*
X000600Y004884D01*
X000600Y004786D02*
X000907Y004786D01*
X000870Y004687D02*
X000600Y004687D01*
X000600Y004589D02*
X000870Y004589D01*
X000870Y004490D02*
X000600Y004490D01*
X000600Y004392D02*
X000870Y004392D01*
X000928Y004293D02*
X000600Y004293D01*
X000600Y004195D02*
X001027Y004195D01*
X001125Y004096D02*
X000600Y004096D01*
X000600Y003998D02*
X001119Y003998D01*
X001020Y003899D02*
X000600Y003899D01*
X000600Y003801D02*
X000922Y003801D01*
X000870Y003702D02*
X000600Y003702D01*
X000600Y003604D02*
X000870Y003604D01*
X000870Y003505D02*
X000600Y003505D01*
X000600Y003407D02*
X000870Y003407D01*
X000913Y003308D02*
X000600Y003308D01*
X000600Y003210D02*
X001012Y003210D01*
X001110Y003111D02*
X000600Y003111D01*
X000600Y003013D02*
X009061Y003013D01*
X008963Y003111D02*
X003590Y003111D01*
X003688Y003210D02*
X008864Y003210D01*
X008766Y003308D02*
X003787Y003308D01*
X003830Y003407D02*
X008667Y003407D01*
X008569Y003505D02*
X003830Y003505D01*
X003830Y003604D02*
X008470Y003604D01*
X008372Y003702D02*
X003830Y003702D01*
X003778Y003801D02*
X008273Y003801D01*
X008175Y003899D02*
X003680Y003899D01*
X003400Y004096D02*
X003300Y004096D01*
X003300Y004195D02*
X003400Y004195D01*
X003400Y004293D02*
X003300Y004293D01*
X003300Y004392D02*
X003400Y004392D01*
X003400Y004490D02*
X003300Y004490D01*
X003751Y004884D02*
X007058Y004884D01*
X006959Y004786D02*
X003850Y004786D01*
X003870Y004687D02*
X006861Y004687D01*
X007050Y004250D02*
X008750Y005950D01*
X008750Y007250D01*
X009018Y007248D02*
X009582Y007248D01*
X009599Y007347D02*
X009001Y007347D01*
X008935Y007445D02*
X009665Y007445D01*
X009850Y007250D02*
X009850Y004650D01*
X010850Y003650D01*
X012450Y003650D01*
X013050Y004250D01*
X013450Y004150D02*
X013450Y007450D01*
X012050Y008850D01*
X011841Y009021D02*
X009410Y009021D01*
X009410Y009120D02*
X012082Y009120D01*
X012088Y009218D02*
X009410Y009218D01*
X009410Y009317D02*
X012137Y009317D01*
X012288Y009415D02*
X009410Y009415D01*
X009410Y009514D02*
X012386Y009514D01*
X012432Y009612D02*
X009410Y009612D01*
X009410Y009711D02*
X012578Y009711D01*
X012722Y009711D02*
X015270Y009711D01*
X015270Y009809D02*
X009410Y009809D01*
X009410Y009908D02*
X015270Y009908D01*
X015270Y010006D02*
X009410Y010006D01*
X009410Y010105D02*
X015270Y010105D01*
X015270Y010203D02*
X009410Y010203D01*
X009410Y010302D02*
X015270Y010302D01*
X015270Y010400D02*
X009410Y010400D01*
X008950Y009850D02*
X008650Y009550D01*
X007050Y009550D01*
X007350Y009250D02*
X008750Y009250D01*
X008950Y009450D01*
X009410Y008824D02*
X009844Y008824D01*
X009599Y008726D02*
X009454Y008726D01*
X009756Y008430D02*
X009890Y008430D01*
X009658Y008332D02*
X011589Y008332D01*
X011590Y008233D02*
X009559Y008233D01*
X009461Y008135D02*
X011590Y008135D01*
X011590Y008036D02*
X009362Y008036D01*
X009264Y007938D02*
X011590Y007938D01*
X011590Y007839D02*
X009165Y007839D01*
X009067Y007741D02*
X011590Y007741D01*
X011590Y007642D02*
X008968Y007642D01*
X008870Y007544D02*
X011590Y007544D01*
X011590Y007445D02*
X010535Y007445D01*
X010601Y007347D02*
X011590Y007347D01*
X011590Y007248D02*
X010618Y007248D01*
X010599Y007150D02*
X011590Y007150D01*
X011590Y007051D02*
X010531Y007051D01*
X010510Y006953D02*
X011590Y006953D01*
X011590Y006854D02*
X010510Y006854D01*
X010510Y006756D02*
X011590Y006756D01*
X011590Y006657D02*
X010510Y006657D01*
X010510Y006559D02*
X011590Y006559D01*
X011590Y006460D02*
X010510Y006460D01*
X010510Y006362D02*
X011590Y006362D01*
X011590Y006263D02*
X010510Y006263D01*
X010510Y006165D02*
X011590Y006165D01*
X011590Y006066D02*
X010510Y006066D01*
X010510Y005968D02*
X011590Y005968D01*
X011590Y005869D02*
X010510Y005869D01*
X010510Y005771D02*
X011590Y005771D01*
X011590Y005672D02*
X010510Y005672D01*
X010510Y005574D02*
X011590Y005574D01*
X011590Y005475D02*
X010510Y005475D01*
X010510Y005377D02*
X011590Y005377D01*
X011590Y005278D02*
X010510Y005278D01*
X010510Y005180D02*
X011590Y005180D01*
X011590Y005081D02*
X010510Y005081D01*
X010510Y004983D02*
X011556Y004983D01*
X011458Y004884D02*
X010510Y004884D01*
X010510Y004786D02*
X011359Y004786D01*
X011261Y004687D02*
X010510Y004687D01*
X010510Y004589D02*
X011162Y004589D01*
X010928Y004490D02*
X010536Y004490D01*
X010635Y004392D02*
X010818Y004392D01*
X010782Y004293D02*
X010733Y004293D01*
X011050Y004250D02*
X011750Y004950D01*
X011750Y008550D01*
X012350Y009150D02*
X013650Y007850D01*
X013650Y004050D01*
X012850Y003250D01*
X010050Y003250D01*
X009050Y004250D01*
X008958Y003998D02*
X008529Y003998D01*
X008430Y004096D02*
X008824Y004096D01*
X008782Y004195D02*
X008332Y004195D01*
X008318Y004293D02*
X008782Y004293D01*
X008818Y004392D02*
X008282Y004392D01*
X008172Y004490D02*
X008928Y004490D01*
X009172Y004490D02*
X009784Y004490D01*
X009690Y004589D02*
X007615Y004589D01*
X007713Y004687D02*
X009690Y004687D01*
X009690Y004786D02*
X007812Y004786D01*
X007910Y004884D02*
X009690Y004884D01*
X009690Y004983D02*
X008009Y004983D01*
X008107Y005081D02*
X009690Y005081D01*
X009690Y005180D02*
X008206Y005180D01*
X008304Y005278D02*
X009690Y005278D01*
X009690Y005377D02*
X008403Y005377D01*
X008501Y005475D02*
X009690Y005475D01*
X009690Y005574D02*
X008600Y005574D01*
X008698Y005672D02*
X009690Y005672D01*
X009690Y005771D02*
X008797Y005771D01*
X008895Y005869D02*
X009690Y005869D01*
X009690Y005968D02*
X008910Y005968D01*
X008910Y006066D02*
X009690Y006066D01*
X009690Y006165D02*
X008910Y006165D01*
X008910Y006263D02*
X009690Y006263D01*
X009690Y006362D02*
X008910Y006362D01*
X008910Y006460D02*
X009690Y006460D01*
X009690Y006559D02*
X008910Y006559D01*
X008910Y006657D02*
X009690Y006657D01*
X009690Y006756D02*
X008910Y006756D01*
X008910Y006854D02*
X009690Y006854D01*
X009690Y006953D02*
X008910Y006953D01*
X008931Y007051D02*
X009669Y007051D01*
X009601Y007150D02*
X008999Y007150D01*
X008516Y007642D02*
X005396Y007642D01*
X005418Y007741D02*
X008614Y007741D01*
X008713Y007839D02*
X005404Y007839D01*
X005323Y007544D02*
X008417Y007544D01*
X008319Y007445D02*
X004471Y007445D01*
X004373Y007347D02*
X008290Y007347D01*
X008290Y007248D02*
X004274Y007248D01*
X004176Y007150D02*
X008290Y007150D01*
X008290Y007051D02*
X004077Y007051D01*
X004010Y006953D02*
X008290Y006953D01*
X008290Y006854D02*
X004010Y006854D01*
X004010Y006756D02*
X008290Y006756D01*
X008290Y006657D02*
X003983Y006657D01*
X003885Y006559D02*
X008290Y006559D01*
X008290Y006460D02*
X003786Y006460D01*
X003823Y006362D02*
X008290Y006362D01*
X008290Y006263D02*
X003830Y006263D01*
X003830Y006165D02*
X008290Y006165D01*
X008240Y006066D02*
X003793Y006066D01*
X003746Y005968D02*
X008141Y005968D01*
X008043Y005869D02*
X003648Y005869D01*
X003447Y005771D02*
X007944Y005771D01*
X007846Y005672D02*
X000600Y005672D01*
X000600Y005574D02*
X007747Y005574D01*
X007649Y005475D02*
X000600Y005475D01*
X000600Y005377D02*
X007550Y005377D01*
X007452Y005278D02*
X000600Y005278D01*
X000600Y005180D02*
X007353Y005180D01*
X007516Y004490D02*
X007928Y004490D01*
X007818Y004392D02*
X007418Y004392D01*
X007319Y004293D02*
X007782Y004293D01*
X007782Y004195D02*
X007318Y004195D01*
X007276Y004096D02*
X007824Y004096D01*
X007958Y003998D02*
X007142Y003998D01*
X006958Y003998D02*
X006142Y003998D01*
X006722Y004096D02*
X006824Y004096D01*
X008050Y004250D02*
X009250Y003050D01*
X012950Y003050D01*
X013850Y003950D01*
X013850Y008250D01*
X012650Y009450D01*
X012868Y009612D02*
X015270Y009612D01*
X015270Y009514D02*
X012914Y009514D01*
X012918Y009415D02*
X015270Y009415D01*
X015270Y009317D02*
X013010Y009317D01*
X013108Y009218D02*
X015270Y009218D01*
X015270Y009120D02*
X013207Y009120D01*
X013305Y009021D02*
X015270Y009021D01*
X015270Y008923D02*
X013404Y008923D01*
X013502Y008824D02*
X015270Y008824D01*
X015270Y008726D02*
X013601Y008726D01*
X013699Y008627D02*
X015270Y008627D01*
X015270Y008529D02*
X013798Y008529D01*
X013896Y008430D02*
X015270Y008430D01*
X015270Y008332D02*
X013995Y008332D01*
X014010Y008233D02*
X015270Y008233D01*
X015270Y008135D02*
X014010Y008135D01*
X014010Y008036D02*
X015270Y008036D01*
X015270Y007938D02*
X014010Y007938D01*
X014010Y007839D02*
X015270Y007839D01*
X015270Y007741D02*
X014010Y007741D01*
X014010Y007642D02*
X015270Y007642D01*
X015270Y007544D02*
X014010Y007544D01*
X014010Y007445D02*
X015270Y007445D01*
X015270Y007347D02*
X014010Y007347D01*
X014010Y007248D02*
X015270Y007248D01*
X015270Y007150D02*
X014010Y007150D01*
X014010Y007051D02*
X015270Y007051D01*
X015270Y006953D02*
X014010Y006953D01*
X014010Y006854D02*
X015270Y006854D01*
X015270Y006756D02*
X014010Y006756D01*
X014010Y006657D02*
X015270Y006657D01*
X015270Y006559D02*
X014010Y006559D01*
X014010Y006460D02*
X015270Y006460D01*
X015270Y006362D02*
X014010Y006362D01*
X014010Y006263D02*
X015270Y006263D01*
X015270Y006165D02*
X014010Y006165D01*
X014010Y006066D02*
X015270Y006066D01*
X015270Y005968D02*
X014010Y005968D01*
X014010Y005869D02*
X015270Y005869D01*
X015270Y005771D02*
X014010Y005771D01*
X014010Y005672D02*
X015270Y005672D01*
X015270Y005574D02*
X014010Y005574D01*
X014010Y005475D02*
X015270Y005475D01*
X015270Y005377D02*
X014010Y005377D01*
X014010Y005278D02*
X015270Y005278D01*
X015270Y005180D02*
X014010Y005180D01*
X014010Y005081D02*
X015270Y005081D01*
X015270Y004983D02*
X014010Y004983D01*
X014010Y004884D02*
X015270Y004884D01*
X015270Y004786D02*
X014010Y004786D01*
X014010Y004687D02*
X015270Y004687D01*
X015270Y004589D02*
X014010Y004589D01*
X014010Y004490D02*
X015270Y004490D01*
X015270Y004392D02*
X014010Y004392D01*
X014010Y004293D02*
X015270Y004293D01*
X015270Y004195D02*
X014010Y004195D01*
X014010Y004096D02*
X015270Y004096D01*
X015270Y003998D02*
X014010Y003998D01*
X014010Y003899D02*
X015270Y003899D01*
X015270Y003801D02*
X013927Y003801D01*
X013828Y003702D02*
X015270Y003702D01*
X015270Y003604D02*
X013730Y003604D01*
X013631Y003505D02*
X015270Y003505D01*
X015270Y003407D02*
X013533Y003407D01*
X013434Y003308D02*
X015270Y003308D01*
X015270Y003210D02*
X013336Y003210D01*
X013237Y003111D02*
X015270Y003111D01*
X015270Y003013D02*
X013139Y003013D01*
X013040Y002914D02*
X015270Y002914D01*
X015270Y002816D02*
X000600Y002816D01*
X000600Y002914D02*
X009160Y002914D01*
X009218Y003308D02*
X009766Y003308D01*
X009667Y003407D02*
X009120Y003407D01*
X009021Y003505D02*
X009569Y003505D01*
X009470Y003604D02*
X008923Y003604D01*
X008824Y003702D02*
X009372Y003702D01*
X009273Y003801D02*
X008726Y003801D01*
X008627Y003899D02*
X009175Y003899D01*
X009332Y004195D02*
X009939Y004195D01*
X009981Y004293D02*
X009318Y004293D01*
X009282Y004392D02*
X009882Y004392D01*
X009820Y004096D02*
X009430Y004096D01*
X009529Y003998D02*
X009782Y003998D01*
X009782Y003899D02*
X009627Y003899D01*
X009726Y003801D02*
X009821Y003801D01*
X009824Y003702D02*
X009947Y003702D01*
X009923Y003604D02*
X010170Y003604D01*
X010269Y003505D02*
X010021Y003505D01*
X010050Y003950D02*
X010550Y003450D01*
X012750Y003450D01*
X013450Y004150D01*
X012050Y004250D02*
X011650Y003850D01*
X010950Y003850D01*
X010350Y004450D01*
X010350Y007250D01*
X010165Y007445D02*
X010035Y007445D01*
X007350Y010250D02*
X007050Y010250D01*
X003850Y007050D01*
X003850Y006750D01*
X003350Y006250D01*
X003052Y005869D02*
X002648Y005869D01*
X002622Y005843D02*
X002757Y005978D01*
X002830Y006155D01*
X002830Y006345D01*
X002757Y006522D01*
X002622Y006657D01*
X002445Y006730D01*
X002255Y006730D01*
X002078Y006657D01*
X001943Y006522D01*
X001870Y006345D01*
X001870Y006155D01*
X001943Y005978D01*
X002078Y005843D01*
X002255Y005770D01*
X002445Y005770D01*
X002622Y005843D01*
X002746Y005968D02*
X002954Y005968D01*
X002907Y006066D02*
X002793Y006066D01*
X002830Y006165D02*
X002870Y006165D01*
X002870Y006263D02*
X002830Y006263D01*
X002823Y006362D02*
X002877Y006362D01*
X002917Y006460D02*
X002783Y006460D01*
X002720Y006559D02*
X002980Y006559D01*
X003078Y006657D02*
X002622Y006657D01*
X002622Y006843D02*
X002445Y006770D01*
X002255Y006770D01*
X002078Y006843D01*
X001943Y006978D01*
X001870Y007155D01*
X001870Y007345D01*
X001943Y007522D01*
X002078Y007657D01*
X002255Y007730D01*
X002445Y007730D01*
X002622Y007657D01*
X002757Y007522D01*
X002830Y007345D01*
X002830Y007155D01*
X002757Y006978D01*
X002622Y006843D01*
X002633Y006854D02*
X003067Y006854D01*
X002969Y006953D02*
X002731Y006953D01*
X002787Y007051D02*
X002913Y007051D01*
X002872Y007150D02*
X002828Y007150D01*
X002830Y007248D02*
X002870Y007248D01*
X002870Y007347D02*
X002830Y007347D01*
X002789Y007445D02*
X002911Y007445D01*
X002965Y007544D02*
X002735Y007544D01*
X002637Y007642D02*
X003063Y007642D01*
X003088Y007839D02*
X002612Y007839D01*
X002622Y007843D02*
X002757Y007978D01*
X002830Y008155D01*
X002830Y008345D01*
X002757Y008522D01*
X002622Y008657D01*
X002445Y008730D01*
X002255Y008730D01*
X002078Y008657D01*
X001943Y008522D01*
X001870Y008345D01*
X001870Y008155D01*
X001943Y007978D01*
X002078Y007843D01*
X002255Y007770D01*
X002445Y007770D01*
X002622Y007843D01*
X002716Y007938D02*
X002984Y007938D01*
X002919Y008036D02*
X002781Y008036D01*
X002822Y008135D02*
X002878Y008135D01*
X002870Y008233D02*
X002830Y008233D01*
X002830Y008332D02*
X002870Y008332D01*
X002905Y008430D02*
X002795Y008430D01*
X002750Y008529D02*
X002950Y008529D01*
X002947Y008627D02*
X002652Y008627D01*
X002576Y008824D02*
X002750Y008824D01*
X002848Y008726D02*
X002456Y008726D01*
X002244Y008726D02*
X001562Y008726D01*
X001550Y008732D02*
X001494Y008750D01*
X001550Y008768D01*
X001623Y008805D01*
X001689Y008853D01*
X001747Y008911D01*
X001795Y008977D01*
X001832Y009050D01*
X001857Y009128D01*
X001869Y009200D01*
X001400Y009200D01*
X001400Y009300D01*
X001869Y009300D01*
X001857Y009372D01*
X001832Y009450D01*
X001795Y009523D01*
X001747Y009589D01*
X001689Y009647D01*
X001623Y009695D01*
X001550Y009732D01*
X001494Y009750D01*
X001550Y009768D01*
X001623Y009805D01*
X001689Y009853D01*
X001747Y009911D01*
X001795Y009977D01*
X001832Y010050D01*
X001857Y010128D01*
X001869Y010200D01*
X001400Y010200D01*
X001400Y010300D01*
X001869Y010300D01*
X001857Y010372D01*
X001832Y010450D01*
X001795Y010523D01*
X001747Y010589D01*
X001689Y010647D01*
X001623Y010695D01*
X001550Y010732D01*
X001494Y010750D01*
X001550Y010768D01*
X001623Y010805D01*
X001689Y010853D01*
X001747Y010911D01*
X001795Y010977D01*
X001832Y011050D01*
X001857Y011128D01*
X001869Y011200D01*
X001400Y011200D01*
X001400Y011300D01*
X001300Y011300D01*
X001300Y011769D01*
X001228Y011757D01*
X001150Y011732D01*
X001077Y011695D01*
X001011Y011647D01*
X000953Y011589D01*
X000905Y011523D01*
X000868Y011450D01*
X000843Y011372D01*
X000831Y011300D01*
X001300Y011300D01*
X001300Y011200D01*
X000831Y011200D01*
X000843Y011128D01*
X000868Y011050D01*
X000905Y010977D01*
X000953Y010911D01*
X001011Y010853D01*
X001077Y010805D01*
X001150Y010768D01*
X001206Y010750D01*
X001150Y010732D01*
X001077Y010695D01*
X001011Y010647D01*
X000953Y010589D01*
X000905Y010523D01*
X000868Y010450D01*
X000843Y010372D01*
X000831Y010300D01*
X001300Y010300D01*
X001300Y010769D01*
X001300Y011200D01*
X001400Y011200D01*
X001400Y010300D01*
X001300Y010300D01*
X001300Y010200D01*
X000831Y010200D01*
X000843Y010128D01*
X000868Y010050D01*
X000905Y009977D01*
X000953Y009911D01*
X001011Y009853D01*
X001077Y009805D01*
X001150Y009768D01*
X001206Y009750D01*
X001150Y009732D01*
X001077Y009695D01*
X001011Y009647D01*
X000953Y009589D01*
X000905Y009523D01*
X000868Y009450D01*
X000843Y009372D01*
X000831Y009300D01*
X001300Y009300D01*
X001300Y009769D01*
X001300Y010200D01*
X001400Y010200D01*
X001400Y009300D01*
X001300Y009300D01*
X001300Y009200D01*
X000831Y009200D01*
X000843Y009128D01*
X000868Y009050D01*
X000905Y008977D01*
X000953Y008911D01*
X001011Y008853D01*
X001077Y008805D01*
X001150Y008768D01*
X001206Y008750D01*
X001150Y008732D01*
X001077Y008695D01*
X001011Y008647D01*
X000953Y008589D01*
X000905Y008523D01*
X000868Y008450D01*
X000843Y008372D01*
X000831Y008300D01*
X001300Y008300D01*
X001300Y008769D01*
X001300Y009200D01*
X001400Y009200D01*
X001400Y008300D01*
X001869Y008300D01*
X001857Y008372D01*
X001832Y008450D01*
X001795Y008523D01*
X001747Y008589D01*
X001689Y008647D01*
X001623Y008695D01*
X001550Y008732D01*
X001648Y008824D02*
X002124Y008824D01*
X001999Y008923D02*
X001755Y008923D01*
X001817Y009021D02*
X001925Y009021D01*
X001884Y009120D02*
X001854Y009120D01*
X001870Y009218D02*
X001400Y009218D01*
X001400Y009120D02*
X001300Y009120D01*
X001300Y009218D02*
X000600Y009218D01*
X000600Y009120D02*
X000846Y009120D01*
X000883Y009021D02*
X000600Y009021D01*
X000600Y008923D02*
X000945Y008923D01*
X001052Y008824D02*
X000600Y008824D01*
X000600Y008726D02*
X001138Y008726D01*
X001300Y008726D02*
X001400Y008726D01*
X001400Y008824D02*
X001300Y008824D01*
X001300Y008923D02*
X001400Y008923D01*
X001400Y009021D02*
X001300Y009021D01*
X001300Y009317D02*
X001400Y009317D01*
X001400Y009415D02*
X001300Y009415D01*
X001300Y009514D02*
X001400Y009514D01*
X001400Y009612D02*
X001300Y009612D01*
X001300Y009711D02*
X001400Y009711D01*
X001400Y009809D02*
X001300Y009809D01*
X001300Y009908D02*
X001400Y009908D01*
X001400Y010006D02*
X001300Y010006D01*
X001300Y010105D02*
X001400Y010105D01*
X001400Y010203D02*
X001870Y010203D01*
X001868Y010302D02*
X001870Y010302D01*
X001848Y010400D02*
X001893Y010400D01*
X001933Y010499D02*
X001807Y010499D01*
X001738Y010597D02*
X002018Y010597D01*
X002171Y010696D02*
X001621Y010696D01*
X001600Y010794D02*
X002197Y010794D01*
X002255Y010770D02*
X002078Y010843D01*
X001943Y010978D01*
X001870Y011155D01*
X001870Y011345D01*
X001943Y011522D01*
X002078Y011657D01*
X002255Y011730D01*
X002445Y011730D01*
X002622Y011657D01*
X002757Y011522D01*
X002830Y011345D01*
X002830Y011155D01*
X002757Y010978D01*
X002622Y010843D01*
X002445Y010770D01*
X002255Y010770D01*
X002503Y010794D02*
X002690Y010794D01*
X002690Y010696D02*
X002529Y010696D01*
X002682Y010597D02*
X002690Y010597D01*
X002850Y010750D02*
X002850Y008950D01*
X003050Y008750D01*
X003950Y008750D01*
X006350Y011150D01*
X011550Y011150D01*
X011950Y010750D01*
X011250Y011350D02*
X011450Y011650D01*
X011298Y011878D02*
X011202Y011878D01*
X011050Y011650D02*
X010950Y011550D01*
X006150Y011550D01*
X004850Y010250D01*
X003350Y010250D01*
X003171Y010696D02*
X003022Y010696D01*
X003010Y010597D02*
X003018Y010597D01*
X003120Y010794D02*
X003197Y010794D01*
X003503Y010794D02*
X005168Y010794D01*
X005266Y010893D02*
X003671Y010893D01*
X003762Y010991D02*
X005365Y010991D01*
X005463Y011090D02*
X003803Y011090D01*
X003830Y011188D02*
X005562Y011188D01*
X005660Y011287D02*
X003830Y011287D01*
X003814Y011385D02*
X005759Y011385D01*
X005857Y011484D02*
X003773Y011484D01*
X003697Y011582D02*
X005956Y011582D01*
X005990Y011616D02*
X005990Y011616D01*
X006054Y011681D02*
X003565Y011681D01*
X003135Y011681D02*
X002565Y011681D01*
X002697Y011582D02*
X003003Y011582D01*
X002927Y011484D02*
X002773Y011484D01*
X002814Y011385D02*
X002886Y011385D01*
X002870Y011287D02*
X002830Y011287D01*
X002830Y011188D02*
X002870Y011188D01*
X002897Y011090D02*
X002803Y011090D01*
X002762Y010991D02*
X002865Y010991D01*
X002766Y010893D02*
X002671Y010893D01*
X002850Y010750D02*
X003350Y011250D01*
X003529Y010696D02*
X005069Y010696D01*
X004971Y010597D02*
X003682Y010597D01*
X003767Y010499D02*
X004872Y010499D01*
X004150Y009250D02*
X006250Y011350D01*
X011250Y011350D01*
X010813Y011779D02*
X000600Y011779D01*
X000600Y011681D02*
X001058Y011681D01*
X000948Y011582D02*
X000600Y011582D01*
X000600Y011484D02*
X000885Y011484D01*
X000847Y011385D02*
X000600Y011385D01*
X000600Y011287D02*
X001300Y011287D01*
X001300Y011385D02*
X001400Y011385D01*
X001400Y011300D02*
X001400Y011769D01*
X001472Y011757D01*
X001550Y011732D01*
X001623Y011695D01*
X001689Y011647D01*
X001747Y011589D01*
X001795Y011523D01*
X001832Y011450D01*
X001857Y011372D01*
X001869Y011300D01*
X001400Y011300D01*
X001400Y011287D02*
X001870Y011287D01*
X001867Y011188D02*
X001870Y011188D01*
X001845Y011090D02*
X001897Y011090D01*
X001938Y010991D02*
X001802Y010991D01*
X001728Y010893D02*
X002029Y010893D01*
X001886Y011385D02*
X001853Y011385D01*
X001815Y011484D02*
X001927Y011484D01*
X002003Y011582D02*
X001752Y011582D01*
X001642Y011681D02*
X002135Y011681D01*
X001400Y011681D02*
X001300Y011681D01*
X001300Y011582D02*
X001400Y011582D01*
X001400Y011484D02*
X001300Y011484D01*
X001300Y011188D02*
X001400Y011188D01*
X001400Y011090D02*
X001300Y011090D01*
X001300Y010991D02*
X001400Y010991D01*
X001400Y010893D02*
X001300Y010893D01*
X001300Y010794D02*
X001400Y010794D01*
X001400Y010696D02*
X001300Y010696D01*
X001300Y010597D02*
X001400Y010597D01*
X001400Y010499D02*
X001300Y010499D01*
X001300Y010400D02*
X001400Y010400D01*
X001400Y010302D02*
X001300Y010302D01*
X001300Y010203D02*
X000600Y010203D01*
X000600Y010105D02*
X000851Y010105D01*
X000891Y010006D02*
X000600Y010006D01*
X000600Y009908D02*
X000957Y009908D01*
X001072Y009809D02*
X000600Y009809D01*
X000600Y009711D02*
X001108Y009711D01*
X000977Y009612D02*
X000600Y009612D01*
X000600Y009514D02*
X000901Y009514D01*
X000857Y009415D02*
X000600Y009415D01*
X000600Y009317D02*
X000834Y009317D01*
X000992Y008627D02*
X000600Y008627D01*
X000600Y008529D02*
X000910Y008529D01*
X000862Y008430D02*
X000600Y008430D01*
X000600Y008332D02*
X000836Y008332D01*
X000831Y008200D02*
X000843Y008128D01*
X000868Y008050D01*
X000905Y007977D01*
X000953Y007911D01*
X001011Y007853D01*
X001077Y007805D01*
X001150Y007768D01*
X001206Y007750D01*
X001150Y007732D01*
X001077Y007695D01*
X001011Y007647D01*
X000953Y007589D01*
X000905Y007523D01*
X000868Y007450D01*
X000843Y007372D01*
X000831Y007300D01*
X001300Y007300D01*
X001300Y007731D01*
X001300Y008200D01*
X000831Y008200D01*
X000842Y008135D02*
X000600Y008135D01*
X000600Y008233D02*
X001300Y008233D01*
X001300Y008200D02*
X001300Y008300D01*
X001400Y008300D01*
X001400Y008200D01*
X001869Y008200D01*
X001857Y008128D01*
X001832Y008050D01*
X001795Y007977D01*
X001747Y007911D01*
X001689Y007853D01*
X001623Y007805D01*
X001550Y007768D01*
X001494Y007750D01*
X001550Y007732D01*
X001623Y007695D01*
X001689Y007647D01*
X001747Y007589D01*
X001795Y007523D01*
X001832Y007450D01*
X001857Y007372D01*
X001869Y007300D01*
X001400Y007300D01*
X001400Y007200D01*
X001869Y007200D01*
X001857Y007128D01*
X001832Y007050D01*
X001795Y006977D01*
X001747Y006911D01*
X001689Y006853D01*
X001623Y006805D01*
X001550Y006768D01*
X001494Y006750D01*
X001550Y006732D01*
X001623Y006695D01*
X001689Y006647D01*
X001747Y006589D01*
X001795Y006523D01*
X001832Y006450D01*
X001857Y006372D01*
X001869Y006300D01*
X001400Y006300D01*
X001400Y006200D01*
X001869Y006200D01*
X001857Y006128D01*
X001832Y006050D01*
X001795Y005977D01*
X001747Y005911D01*
X001689Y005853D01*
X001623Y005805D01*
X001550Y005768D01*
X001472Y005743D01*
X001400Y005731D01*
X001400Y006200D01*
X001300Y006200D01*
X000831Y006200D01*
X000843Y006128D01*
X000868Y006050D01*
X000905Y005977D01*
X000953Y005911D01*
X001011Y005853D01*
X001077Y005805D01*
X001150Y005768D01*
X001228Y005743D01*
X001300Y005731D01*
X001300Y006200D01*
X001300Y006300D01*
X001300Y006769D01*
X001300Y007200D01*
X000831Y007200D01*
X000843Y007128D01*
X000868Y007050D01*
X000905Y006977D01*
X000953Y006911D01*
X001011Y006853D01*
X001077Y006805D01*
X001150Y006768D01*
X001206Y006750D01*
X001150Y006732D01*
X001077Y006695D01*
X001011Y006647D01*
X000953Y006589D01*
X000905Y006523D01*
X000868Y006450D01*
X000843Y006372D01*
X000831Y006300D01*
X001300Y006300D01*
X001400Y006300D01*
X001400Y007200D01*
X001300Y007200D01*
X001300Y007300D01*
X001400Y007300D01*
X001400Y008200D01*
X001300Y008200D01*
X001300Y008135D02*
X001400Y008135D01*
X001400Y008233D02*
X001870Y008233D01*
X001864Y008332D02*
X001870Y008332D01*
X001838Y008430D02*
X001905Y008430D01*
X001950Y008529D02*
X001790Y008529D01*
X001708Y008627D02*
X002048Y008627D01*
X001878Y008135D02*
X001858Y008135D01*
X001825Y008036D02*
X001919Y008036D01*
X001984Y007938D02*
X001766Y007938D01*
X001669Y007839D02*
X002088Y007839D01*
X002063Y007642D02*
X001693Y007642D01*
X001780Y007544D02*
X001965Y007544D01*
X001911Y007445D02*
X001833Y007445D01*
X001861Y007347D02*
X001870Y007347D01*
X001870Y007248D02*
X001400Y007248D01*
X001400Y007150D02*
X001300Y007150D01*
X001300Y007248D02*
X000600Y007248D01*
X000600Y007150D02*
X000839Y007150D01*
X000868Y007051D02*
X000600Y007051D01*
X000600Y006953D02*
X000923Y006953D01*
X001011Y006854D02*
X000600Y006854D01*
X000600Y006756D02*
X001189Y006756D01*
X001300Y006756D02*
X001400Y006756D01*
X001400Y006854D02*
X001300Y006854D01*
X001300Y006953D02*
X001400Y006953D01*
X001400Y007051D02*
X001300Y007051D01*
X001300Y007347D02*
X001400Y007347D01*
X001400Y007445D02*
X001300Y007445D01*
X001300Y007544D02*
X001400Y007544D01*
X001400Y007642D02*
X001300Y007642D01*
X001300Y007741D02*
X001400Y007741D01*
X001400Y007839D02*
X001300Y007839D01*
X001300Y007938D02*
X001400Y007938D01*
X001400Y008036D02*
X001300Y008036D01*
X001300Y008332D02*
X001400Y008332D01*
X001400Y008430D02*
X001300Y008430D01*
X001300Y008529D02*
X001400Y008529D01*
X001400Y008627D02*
X001300Y008627D01*
X000875Y008036D02*
X000600Y008036D01*
X000600Y007938D02*
X000934Y007938D01*
X001031Y007839D02*
X000600Y007839D01*
X000600Y007741D02*
X001177Y007741D01*
X001007Y007642D02*
X000600Y007642D01*
X000600Y007544D02*
X000920Y007544D01*
X000867Y007445D02*
X000600Y007445D01*
X000600Y007347D02*
X000839Y007347D01*
X001026Y006657D02*
X000600Y006657D01*
X000600Y006559D02*
X000931Y006559D01*
X000873Y006460D02*
X000600Y006460D01*
X000600Y006362D02*
X000841Y006362D01*
X000837Y006165D02*
X000600Y006165D01*
X000600Y006263D02*
X001300Y006263D01*
X001350Y006250D02*
X001650Y006250D01*
X001870Y006263D02*
X001400Y006263D01*
X001400Y006165D02*
X001300Y006165D01*
X001300Y006066D02*
X001400Y006066D01*
X001400Y005968D02*
X001300Y005968D01*
X001300Y005869D02*
X001400Y005869D01*
X001400Y005771D02*
X001300Y005771D01*
X001146Y005771D02*
X000600Y005771D01*
X000600Y005869D02*
X000996Y005869D01*
X000912Y005968D02*
X000600Y005968D01*
X000600Y006066D02*
X000863Y006066D01*
X001300Y006362D02*
X001400Y006362D01*
X001400Y006460D02*
X001300Y006460D01*
X001300Y006559D02*
X001400Y006559D01*
X001400Y006657D02*
X001300Y006657D01*
X001511Y006756D02*
X003629Y006756D01*
X003633Y006854D02*
X003690Y006854D01*
X003750Y007250D02*
X003350Y007250D01*
X003750Y007250D02*
X007050Y010550D01*
X006750Y010550D02*
X006750Y010850D01*
X006750Y010550D02*
X004450Y008250D01*
X003350Y008250D01*
X003781Y008036D02*
X004310Y008036D01*
X004211Y007938D02*
X003716Y007938D01*
X003612Y007839D02*
X004113Y007839D01*
X004014Y007741D02*
X001523Y007741D01*
X001861Y007150D02*
X001872Y007150D01*
X001832Y007051D02*
X001913Y007051D01*
X001969Y006953D02*
X001777Y006953D01*
X001689Y006854D02*
X002067Y006854D01*
X002078Y006657D02*
X001674Y006657D01*
X001769Y006559D02*
X001980Y006559D01*
X001917Y006460D02*
X001827Y006460D01*
X001859Y006362D02*
X001877Y006362D01*
X001863Y006165D02*
X001870Y006165D01*
X001837Y006066D02*
X001907Y006066D01*
X001954Y005968D02*
X001788Y005968D01*
X001704Y005869D02*
X002052Y005869D01*
X002253Y005771D02*
X001554Y005771D01*
X002447Y005771D02*
X003253Y005771D01*
X003735Y007544D02*
X003817Y007544D01*
X003916Y007642D02*
X003637Y007642D01*
X004570Y007544D02*
X004977Y007544D01*
X004904Y007642D02*
X004668Y007642D01*
X004767Y007741D02*
X004882Y007741D01*
X004896Y007839D02*
X004865Y007839D01*
X004150Y009250D02*
X003350Y009250D01*
X002690Y009612D02*
X002667Y009612D01*
X002690Y009711D02*
X002492Y009711D01*
X002540Y009809D02*
X002690Y009809D01*
X002686Y009908D02*
X002690Y009908D01*
X002208Y009711D02*
X001592Y009711D01*
X001628Y009809D02*
X002160Y009809D01*
X002014Y009908D02*
X001743Y009908D01*
X001809Y010006D02*
X001932Y010006D01*
X001891Y010105D02*
X001849Y010105D01*
X001723Y009612D02*
X002033Y009612D01*
X001940Y009514D02*
X001799Y009514D01*
X001843Y009415D02*
X001899Y009415D01*
X001870Y009317D02*
X001866Y009317D01*
X000832Y010302D02*
X000600Y010302D01*
X000600Y010400D02*
X000852Y010400D01*
X000893Y010499D02*
X000600Y010499D01*
X000600Y010597D02*
X000962Y010597D01*
X001079Y010696D02*
X000600Y010696D01*
X000600Y010794D02*
X001099Y010794D01*
X000972Y010893D02*
X000600Y010893D01*
X000600Y010991D02*
X000898Y010991D01*
X000855Y011090D02*
X000600Y011090D01*
X000600Y011188D02*
X000833Y011188D01*
X000600Y011878D02*
X010898Y011878D01*
X015270Y002717D02*
X000600Y002717D01*
X000600Y002619D02*
X015270Y002619D01*
X015270Y002520D02*
X000600Y002520D01*
X000600Y002422D02*
X015270Y002422D01*
X015270Y002323D02*
X014622Y002323D01*
X014605Y002330D02*
X014295Y002330D01*
X014008Y002211D01*
X013789Y001992D01*
X013670Y001705D01*
X013670Y001395D01*
X013789Y001108D01*
X014008Y000889D01*
X014295Y000770D01*
X014605Y000770D01*
X014892Y000889D01*
X015111Y001108D01*
X015230Y001395D01*
X015230Y001705D01*
X015111Y001992D01*
X014892Y002211D01*
X014605Y002330D01*
X014860Y002225D02*
X015270Y002225D01*
X015270Y002126D02*
X014977Y002126D01*
X015075Y002028D02*
X015270Y002028D01*
X015270Y001929D02*
X015137Y001929D01*
X015178Y001831D02*
X015270Y001831D01*
X015270Y001732D02*
X015219Y001732D01*
X015230Y001634D02*
X015270Y001634D01*
X015270Y001535D02*
X015230Y001535D01*
X015230Y001437D02*
X015270Y001437D01*
X015270Y001338D02*
X015206Y001338D01*
X015166Y001240D02*
X015270Y001240D01*
X015270Y001141D02*
X015125Y001141D01*
X015045Y001043D02*
X015270Y001043D01*
X015270Y000944D02*
X014947Y000944D01*
X014787Y000846D02*
X015270Y000846D01*
X015270Y000747D02*
X000600Y000747D01*
X000600Y000846D02*
X001113Y000846D01*
X001008Y000889D02*
X001295Y000770D01*
X001605Y000770D01*
X001892Y000889D01*
X002111Y001108D01*
X002230Y001395D01*
X002230Y001705D01*
X002111Y001992D01*
X001892Y002211D01*
X001605Y002330D01*
X001295Y002330D01*
X001008Y002211D01*
X000789Y001992D01*
X000670Y001705D01*
X000670Y001395D01*
X000789Y001108D01*
X001008Y000889D01*
X000953Y000944D02*
X000600Y000944D01*
X000600Y001043D02*
X000855Y001043D01*
X000775Y001141D02*
X000600Y001141D01*
X000600Y001240D02*
X000734Y001240D01*
X000694Y001338D02*
X000600Y001338D01*
X000600Y001437D02*
X000670Y001437D01*
X000670Y001535D02*
X000600Y001535D01*
X000600Y001634D02*
X000670Y001634D01*
X000681Y001732D02*
X000600Y001732D01*
X000600Y001831D02*
X000722Y001831D01*
X000763Y001929D02*
X000600Y001929D01*
X000600Y002028D02*
X000825Y002028D01*
X000923Y002126D02*
X000600Y002126D01*
X000600Y002225D02*
X001040Y002225D01*
X001278Y002323D02*
X000600Y002323D01*
X001622Y002323D02*
X014278Y002323D01*
X014040Y002225D02*
X001860Y002225D01*
X001977Y002126D02*
X013923Y002126D01*
X013825Y002028D02*
X002075Y002028D01*
X002137Y001929D02*
X013763Y001929D01*
X013722Y001831D02*
X002178Y001831D01*
X002219Y001732D02*
X013681Y001732D01*
X013670Y001634D02*
X002230Y001634D01*
X002230Y001535D02*
X013670Y001535D01*
X013670Y001437D02*
X002230Y001437D01*
X002206Y001338D02*
X013694Y001338D01*
X013734Y001240D02*
X002166Y001240D01*
X002125Y001141D02*
X013775Y001141D01*
X013855Y001043D02*
X002045Y001043D01*
X001947Y000944D02*
X013953Y000944D01*
X014113Y000846D02*
X001787Y000846D01*
D15*
X006050Y004250D03*
X007050Y004250D03*
X008050Y004250D03*
X009050Y004250D03*
X010050Y003950D03*
X011050Y004250D03*
X012050Y004250D03*
X013050Y004250D03*
X010350Y007250D03*
X009850Y007250D03*
X008750Y007250D03*
X009250Y008550D03*
X010050Y008650D03*
X008950Y009450D03*
X008950Y009850D03*
X009250Y010850D03*
X011050Y011650D03*
X011450Y011650D03*
X011950Y010750D03*
X012650Y009450D03*
X012350Y009150D03*
X012050Y008850D03*
X011750Y008550D03*
X007350Y009250D03*
X007050Y009550D03*
X007350Y010250D03*
X007050Y010550D03*
X006750Y010850D03*
X005150Y007750D03*
M02*
