%
M48
M72
T01C0.0197
T02C0.0400
T03C0.0472
T04C0.1260
%
T01
X6050Y4250
X7050Y4250
X8050Y4250
X9050Y4250
X10050Y3950
X11050Y4250
X12050Y4250
X13050Y4250
X10350Y7250
X9850Y7250
X8750Y7250
X9250Y8550
X10050Y8650
X8950Y9450
X8950Y9850
X9250Y10850
X11050Y11650
X11450Y11650
X11950Y10750
X12650Y9450
X12350Y9150
X12050Y8850
X11750Y8550
X7350Y9250
X7050Y9550
X7350Y10250
X7050Y10550
X6750Y10850
X5150Y7750
T02
X3350Y7250
X3350Y8250
X3350Y9250
X3350Y10250
X3350Y11250
X2350Y11250
X2350Y10250
X2350Y9250
X2350Y8250
X2350Y7250
X2350Y6250
X1350Y6250
X1350Y7250
X1350Y8250
X1350Y9250
X1350Y10250
X1350Y11250
X3350Y6250
X3350Y4550
X3350Y3550
X2350Y3550
X2350Y4550
X1350Y4550
X1350Y3550
T03
X1950Y13202
X1950Y14720
T04
X1450Y1550
X14450Y1550
X14450Y17050
X1450Y17050
M30
