G75*
G70*
%OFA0B0*%
%FSLAX24Y24*%
%IPPOS*%
%LPD*%
%AMOC8*
5,1,8,0,0,1.08239X$1,22.5*
%
%ADD10C,0.0040*%
%ADD11C,0.0030*%
%ADD12C,0.0020*%
%ADD13C,0.0080*%
%ADD14C,0.0060*%
%ADD15R,0.0600X0.0600*%
%ADD16R,0.0300X0.0180*%
%ADD17C,0.0220*%
D10*
X002670Y002370D02*
X002823Y002370D01*
X002747Y002370D02*
X002747Y002830D01*
X002823Y002830D02*
X002670Y002830D01*
X002977Y002754D02*
X002977Y002677D01*
X003054Y002600D01*
X003207Y002600D01*
X003284Y002523D01*
X003284Y002447D01*
X003207Y002370D01*
X003054Y002370D01*
X002977Y002447D01*
X002977Y002754D02*
X003054Y002830D01*
X003207Y002830D01*
X003284Y002754D01*
X003437Y002830D02*
X003668Y002830D01*
X003744Y002754D01*
X003744Y002600D01*
X003668Y002523D01*
X003437Y002523D01*
X003437Y002370D02*
X003437Y002830D01*
X003400Y005170D02*
X003247Y005170D01*
X003170Y005247D01*
X003247Y005400D02*
X003170Y005477D01*
X003170Y005554D01*
X003247Y005630D01*
X003400Y005630D01*
X003477Y005554D01*
X003400Y005400D02*
X003247Y005400D01*
X003400Y005400D02*
X003477Y005323D01*
X003477Y005247D01*
X003400Y005170D01*
X004123Y006070D02*
X003970Y006223D01*
X004430Y006223D01*
X004430Y006070D02*
X004430Y006377D01*
X004430Y007070D02*
X004123Y007377D01*
X004046Y007377D01*
X003970Y007300D01*
X003970Y007147D01*
X004046Y007070D01*
X004430Y007070D02*
X004430Y007377D01*
X004353Y008070D02*
X004430Y008147D01*
X004430Y008300D01*
X004353Y008377D01*
X004277Y008377D01*
X004200Y008300D01*
X004200Y008223D01*
X004200Y008300D02*
X004123Y008377D01*
X004046Y008377D01*
X003970Y008300D01*
X003970Y008147D01*
X004046Y008070D01*
X004200Y009070D02*
X004200Y009377D01*
X004430Y009300D02*
X003970Y009300D01*
X004200Y009070D01*
X004200Y010070D02*
X004200Y010377D01*
X003970Y010377D02*
X004430Y010377D01*
X004430Y010070D02*
X003970Y010070D01*
X003970Y011170D02*
X003970Y011323D01*
X003970Y011247D02*
X004430Y011247D01*
X004430Y011323D02*
X004430Y011170D01*
X003225Y015670D02*
X003379Y015977D01*
X003072Y015977D02*
X003225Y015670D01*
X002918Y015900D02*
X002612Y015900D01*
X002842Y016130D01*
X002842Y015670D01*
X002458Y015670D02*
X002151Y015670D01*
X002458Y015977D01*
X002458Y016054D01*
X002381Y016130D01*
X002228Y016130D01*
X002151Y016054D01*
X001998Y015900D02*
X001691Y015900D01*
X001537Y016054D02*
X001230Y015747D01*
X001230Y015670D01*
X001077Y015900D02*
X000770Y015900D01*
X000923Y015747D02*
X000923Y016054D01*
X001230Y016130D02*
X001537Y016130D01*
X001537Y016054D01*
X001400Y005630D02*
X001247Y005630D01*
X001170Y005554D01*
X001170Y005247D01*
X001247Y005170D01*
X001400Y005170D01*
X001477Y005247D01*
X001477Y005400D01*
X001323Y005400D01*
X001477Y005554D02*
X001400Y005630D01*
X002170Y005630D02*
X002170Y005323D01*
X002323Y005170D01*
X002477Y005323D01*
X002477Y005630D01*
X013270Y005030D02*
X013423Y005030D01*
X013347Y005030D02*
X013347Y004570D01*
X013423Y004570D02*
X013270Y004570D01*
X013577Y004570D02*
X013807Y004570D01*
X013884Y004647D01*
X013884Y004954D01*
X013807Y005030D01*
X013577Y005030D01*
X013577Y004570D01*
D11*
X014945Y005249D02*
X015235Y005249D01*
X015235Y005148D02*
X015235Y005003D01*
X015187Y004954D01*
X015090Y004954D01*
X015042Y005003D01*
X015042Y005148D01*
X015090Y005249D02*
X015042Y005297D01*
X015042Y005394D01*
X015090Y005442D01*
X015235Y005442D01*
X015090Y005544D02*
X015090Y005737D01*
X015042Y005838D02*
X015187Y005838D01*
X015235Y005887D01*
X015187Y005935D01*
X015235Y005983D01*
X015187Y006032D01*
X015042Y006032D01*
X015042Y006181D02*
X015042Y006278D01*
X015090Y006326D01*
X015235Y006326D01*
X015235Y006181D01*
X015187Y006133D01*
X015138Y006181D01*
X015138Y006326D01*
X015138Y006428D02*
X015042Y006524D01*
X015042Y006573D01*
X015090Y006673D02*
X015090Y006770D01*
X014993Y006721D02*
X014945Y006770D01*
X014993Y006721D02*
X015235Y006721D01*
X015187Y006870D02*
X015138Y006918D01*
X015138Y007063D01*
X015090Y007063D02*
X015235Y007063D01*
X015235Y006918D01*
X015187Y006870D01*
X015042Y006918D02*
X015042Y007015D01*
X015090Y007063D01*
X015138Y007164D02*
X015042Y007261D01*
X015042Y007309D01*
X015090Y007410D02*
X015042Y007458D01*
X015042Y007555D01*
X015090Y007603D01*
X015138Y007603D01*
X015138Y007410D01*
X015090Y007410D02*
X015187Y007410D01*
X015235Y007458D01*
X015235Y007555D01*
X015235Y007704D02*
X015235Y007753D01*
X015187Y007753D01*
X015187Y007704D01*
X015235Y007704D01*
X015187Y007852D02*
X015090Y007852D01*
X015042Y007900D01*
X015042Y008045D01*
X015090Y008146D02*
X015187Y008146D01*
X015235Y008195D01*
X015235Y008291D01*
X015187Y008340D01*
X015090Y008340D01*
X015042Y008291D01*
X015042Y008195D01*
X015090Y008146D01*
X015235Y008045D02*
X015235Y007900D01*
X015187Y007852D01*
X015235Y008441D02*
X015042Y008441D01*
X015042Y008489D01*
X015090Y008538D01*
X015042Y008586D01*
X015090Y008635D01*
X015235Y008635D01*
X015235Y008538D02*
X015090Y008538D01*
X015090Y009865D02*
X015187Y009865D01*
X015235Y009913D01*
X015235Y010010D01*
X015187Y010058D01*
X015090Y010058D01*
X015042Y010010D01*
X015042Y009913D01*
X015090Y009865D01*
X015090Y010160D02*
X015090Y010256D01*
X015090Y010356D02*
X015090Y010453D01*
X014993Y010404D02*
X014945Y010453D01*
X014993Y010404D02*
X015235Y010404D01*
X015235Y010553D02*
X014945Y010553D01*
X015042Y010698D02*
X015138Y010553D01*
X015235Y010698D01*
X015235Y010798D02*
X015235Y010895D01*
X015235Y010846D02*
X015042Y010846D01*
X015042Y010798D01*
X014945Y010846D02*
X014896Y010846D01*
X014945Y010994D02*
X014945Y011043D01*
X015235Y011043D01*
X015235Y011091D02*
X015235Y010994D01*
X015187Y011239D02*
X014993Y011239D01*
X015042Y011191D02*
X015042Y011288D01*
X015090Y011387D02*
X015042Y011436D01*
X015042Y011532D01*
X015090Y011581D01*
X015138Y011581D01*
X015138Y011387D01*
X015090Y011387D02*
X015187Y011387D01*
X015235Y011436D01*
X015235Y011532D01*
X015235Y011682D02*
X015042Y011682D01*
X015138Y011682D02*
X015042Y011779D01*
X015042Y011827D01*
X015090Y011928D02*
X015042Y011976D01*
X015042Y012073D01*
X015090Y012121D01*
X015138Y012121D01*
X015138Y011928D01*
X015090Y011928D02*
X015187Y011928D01*
X015235Y011976D01*
X015235Y012073D01*
X015235Y012222D02*
X015042Y012222D01*
X015042Y012367D01*
X015090Y012416D01*
X015235Y012416D01*
X015187Y012517D02*
X015235Y012565D01*
X015235Y012710D01*
X015283Y012710D02*
X015042Y012710D01*
X015042Y012565D01*
X015090Y012517D01*
X015187Y012517D01*
X015332Y012614D02*
X015332Y012662D01*
X015283Y012710D01*
X015235Y012812D02*
X015235Y012908D01*
X015235Y012860D02*
X015042Y012860D01*
X015042Y012812D01*
X014945Y012860D02*
X014896Y012860D01*
X015042Y013008D02*
X015042Y013153D01*
X015090Y013201D01*
X015235Y013201D01*
X015187Y013303D02*
X015090Y013303D01*
X015042Y013351D01*
X015042Y013448D01*
X015090Y013496D01*
X015138Y013496D01*
X015138Y013303D01*
X015187Y013303D02*
X015235Y013351D01*
X015235Y013448D01*
X015187Y013597D02*
X015090Y013597D01*
X015042Y013646D01*
X015042Y013742D01*
X015090Y013791D01*
X015138Y013791D01*
X015138Y013597D01*
X015187Y013597D02*
X015235Y013646D01*
X015235Y013742D01*
X015235Y013892D02*
X015042Y013892D01*
X015138Y013892D02*
X015042Y013989D01*
X015042Y014037D01*
X015042Y014137D02*
X015042Y014186D01*
X015235Y014186D01*
X015235Y014234D02*
X015235Y014137D01*
X015235Y014334D02*
X015042Y014334D01*
X015042Y014479D01*
X015090Y014527D01*
X015235Y014527D01*
X015187Y014629D02*
X015090Y014629D01*
X015042Y014677D01*
X015042Y014822D01*
X015283Y014822D01*
X015332Y014774D01*
X015332Y014725D01*
X015235Y014677D02*
X015235Y014822D01*
X015235Y014923D02*
X015235Y014972D01*
X015187Y014972D01*
X015187Y014923D01*
X015235Y014923D01*
X015187Y015071D02*
X015090Y015071D01*
X015042Y015119D01*
X015042Y015264D01*
X015090Y015365D02*
X015187Y015365D01*
X015235Y015414D01*
X015235Y015510D01*
X015187Y015559D01*
X015090Y015559D01*
X015042Y015510D01*
X015042Y015414D01*
X015090Y015365D01*
X015235Y015264D02*
X015235Y015119D01*
X015187Y015071D01*
X015235Y014677D02*
X015187Y014629D01*
X014945Y014186D02*
X014896Y014186D01*
X015042Y013008D02*
X015235Y013008D01*
X015235Y011288D02*
X015187Y011239D01*
X014945Y010256D02*
X014993Y010208D01*
X015235Y010208D01*
X015235Y007164D02*
X015042Y007164D01*
X015042Y006428D02*
X015235Y006428D01*
X015138Y004853D02*
X015090Y004853D01*
X015042Y004805D01*
X015042Y004708D01*
X015090Y004660D01*
X015187Y004660D01*
X015235Y004708D01*
X015235Y004805D01*
X015138Y004853D02*
X015138Y004660D01*
X015090Y004558D02*
X015235Y004558D01*
X015235Y004462D02*
X015090Y004462D01*
X015042Y004510D01*
X015090Y004558D01*
X015090Y004462D02*
X015042Y004413D01*
X015042Y004365D01*
X015235Y004365D01*
X012108Y000858D02*
X012059Y000858D01*
X011962Y000762D01*
X011962Y000858D02*
X011962Y000665D01*
X011861Y000762D02*
X011668Y000762D01*
X011668Y000810D02*
X011716Y000858D01*
X011813Y000858D01*
X011861Y000810D01*
X011861Y000762D01*
X011813Y000665D02*
X011716Y000665D01*
X011668Y000713D01*
X011668Y000810D01*
X011567Y000858D02*
X011421Y000858D01*
X011373Y000810D01*
X011373Y000713D01*
X011421Y000665D01*
X011567Y000665D01*
X011567Y000955D01*
X011272Y000810D02*
X011272Y000665D01*
X011272Y000810D02*
X011224Y000858D01*
X011078Y000858D01*
X011078Y000665D01*
X010977Y000713D02*
X010977Y000810D01*
X010929Y000858D01*
X010832Y000858D01*
X010784Y000810D01*
X010784Y000713D01*
X010832Y000665D01*
X010929Y000665D01*
X010977Y000713D01*
X010683Y000713D02*
X010634Y000665D01*
X010489Y000665D01*
X010489Y000568D02*
X010489Y000858D01*
X010634Y000858D01*
X010683Y000810D01*
X010683Y000713D01*
X010388Y000713D02*
X010340Y000762D01*
X010243Y000762D01*
X010194Y000810D01*
X010243Y000858D01*
X010388Y000858D01*
X010388Y000713D02*
X010340Y000665D01*
X010194Y000665D01*
X010093Y000665D02*
X010093Y000810D01*
X010045Y000858D01*
X009900Y000858D01*
X009900Y000665D01*
X009799Y000665D02*
X009799Y000810D01*
X009750Y000858D01*
X009654Y000858D01*
X009654Y000762D02*
X009799Y000762D01*
X009799Y000665D02*
X009654Y000665D01*
X009605Y000713D01*
X009654Y000762D01*
X009505Y000858D02*
X009456Y000858D01*
X009360Y000762D01*
X009360Y000858D02*
X009360Y000665D01*
X009162Y000665D02*
X009162Y000955D01*
X009258Y000955D02*
X009065Y000955D01*
X008700Y000955D02*
X008506Y000955D01*
X008506Y000665D01*
X008700Y000665D01*
X008603Y000810D02*
X008506Y000810D01*
X008405Y000810D02*
X008357Y000762D01*
X008212Y000762D01*
X008308Y000762D02*
X008405Y000665D01*
X008405Y000810D02*
X008405Y000907D01*
X008357Y000955D01*
X008212Y000955D01*
X008212Y000665D01*
X008110Y000665D02*
X008110Y000858D01*
X008014Y000955D01*
X007917Y000858D01*
X007917Y000665D01*
X007917Y000810D02*
X008110Y000810D01*
X007816Y000955D02*
X007622Y000955D01*
X007622Y000665D01*
X007521Y000665D02*
X007424Y000762D01*
X007473Y000762D02*
X007328Y000762D01*
X007328Y000665D02*
X007328Y000955D01*
X007473Y000955D01*
X007521Y000907D01*
X007521Y000810D01*
X007473Y000762D01*
X007622Y000810D02*
X007719Y000810D01*
X007226Y000810D02*
X007033Y000810D01*
X007033Y000858D02*
X007130Y000955D01*
X007226Y000858D01*
X007226Y000665D01*
X007033Y000665D02*
X007033Y000858D01*
X006932Y000955D02*
X006932Y000665D01*
X006835Y000762D01*
X006738Y000665D01*
X006738Y000955D01*
X006342Y000955D02*
X006342Y000665D01*
X006342Y000810D02*
X006149Y000810D01*
X006048Y000713D02*
X005999Y000665D01*
X005903Y000665D01*
X005854Y000713D01*
X005854Y000907D01*
X005903Y000955D01*
X005999Y000955D01*
X006048Y000907D01*
X006149Y000955D02*
X006149Y000665D01*
X005753Y000665D02*
X005560Y000665D01*
X005560Y000955D01*
X005753Y000955D01*
X005656Y000810D02*
X005560Y000810D01*
X005458Y000955D02*
X005458Y000665D01*
X005265Y000665D02*
X005265Y000955D01*
X005362Y000858D01*
X005458Y000955D01*
X005415Y002765D02*
X005662Y002765D01*
X005538Y002765D02*
X005538Y003135D01*
X005415Y003012D01*
X015042Y015660D02*
X015042Y015708D01*
X015090Y015757D01*
X015042Y015805D01*
X015090Y015853D01*
X015235Y015853D01*
X015235Y015757D02*
X015090Y015757D01*
X015042Y015660D02*
X015235Y015660D01*
X012735Y016965D02*
X012445Y016965D01*
X012590Y016965D02*
X012590Y017158D01*
X012445Y017158D02*
X012735Y017158D01*
X012735Y017260D02*
X012735Y017356D01*
X012735Y017308D02*
X012445Y017308D01*
X012445Y017260D02*
X012445Y017356D01*
X012445Y017456D02*
X012445Y017650D01*
X012445Y017553D02*
X012735Y017553D01*
X011835Y017648D02*
X011738Y017551D01*
X011738Y017599D02*
X011738Y017454D01*
X011835Y017454D02*
X011545Y017454D01*
X011545Y017599D01*
X011593Y017648D01*
X011690Y017648D01*
X011738Y017599D01*
X011835Y017353D02*
X011545Y017353D01*
X011545Y017160D02*
X011835Y017160D01*
X011738Y017256D01*
X011835Y017353D01*
X011690Y017058D02*
X011738Y017010D01*
X011738Y016865D01*
X011835Y016865D02*
X011545Y016865D01*
X011545Y017010D01*
X011593Y017058D01*
X011690Y017058D01*
D12*
X011693Y015828D02*
X011657Y015828D01*
X011620Y015791D01*
X011620Y015718D01*
X011657Y015681D01*
X011657Y015607D02*
X011730Y015607D01*
X011767Y015570D01*
X011767Y015460D01*
X011840Y015460D02*
X011620Y015460D01*
X011620Y015570D01*
X011657Y015607D01*
X011767Y015533D02*
X011840Y015607D01*
X011840Y015681D02*
X011693Y015828D01*
X011840Y015828D02*
X011840Y015681D01*
X012520Y015718D02*
X012520Y015791D01*
X012557Y015828D01*
X012593Y015828D01*
X012630Y015791D01*
X012667Y015828D01*
X012703Y015828D01*
X012740Y015791D01*
X012740Y015718D01*
X012703Y015681D01*
X012740Y015607D02*
X012667Y015533D01*
X012667Y015570D02*
X012667Y015460D01*
X012740Y015460D02*
X012520Y015460D01*
X012520Y015570D01*
X012557Y015607D01*
X012630Y015607D01*
X012667Y015570D01*
X012557Y015681D02*
X012520Y015718D01*
X012630Y015754D02*
X012630Y015791D01*
X011840Y013228D02*
X011840Y013081D01*
X011693Y013228D01*
X011657Y013228D01*
X011620Y013191D01*
X011620Y013118D01*
X011657Y013081D01*
X011657Y013007D02*
X011620Y012970D01*
X011620Y012897D01*
X011657Y012860D01*
X011803Y012860D01*
X011840Y012897D01*
X011840Y012970D01*
X011803Y013007D01*
X010840Y013091D02*
X010620Y013091D01*
X010730Y012981D01*
X010730Y013128D01*
X010803Y012907D02*
X010840Y012870D01*
X010840Y012797D01*
X010803Y012760D01*
X010657Y012760D01*
X010620Y012797D01*
X010620Y012870D01*
X010657Y012907D01*
X009940Y012833D02*
X009830Y012833D01*
X009757Y012907D01*
X009720Y012907D01*
X009793Y012981D02*
X009720Y013054D01*
X009940Y013054D01*
X009940Y012981D02*
X009940Y013128D01*
X009830Y012833D02*
X009757Y012760D01*
X009720Y012760D01*
X007340Y012697D02*
X007340Y012770D01*
X007303Y012807D01*
X007303Y012881D02*
X007340Y012918D01*
X007340Y012991D01*
X007303Y013028D01*
X007230Y013028D01*
X007193Y012991D01*
X007193Y012954D01*
X007230Y012881D01*
X007120Y012881D01*
X007120Y013028D01*
X007157Y012807D02*
X007120Y012770D01*
X007120Y012697D01*
X007157Y012660D01*
X007303Y012660D01*
X007340Y012697D01*
X005086Y014357D02*
X005049Y014320D01*
X004976Y014320D01*
X004939Y014357D01*
X004865Y014357D02*
X004828Y014320D01*
X004755Y014320D01*
X004718Y014357D01*
X004718Y014503D01*
X004755Y014540D01*
X004828Y014540D01*
X004865Y014503D01*
X004939Y014503D02*
X004976Y014540D01*
X005049Y014540D01*
X005086Y014503D01*
X005086Y014467D01*
X005049Y014430D01*
X005086Y014393D01*
X005086Y014357D01*
X005049Y014430D02*
X005012Y014430D01*
X004981Y015360D02*
X005128Y015360D01*
X005054Y015360D02*
X005054Y015580D01*
X004981Y015507D01*
X004907Y015543D02*
X004870Y015580D01*
X004797Y015580D01*
X004760Y015543D01*
X004760Y015397D01*
X004797Y015360D01*
X004870Y015360D01*
X004907Y015397D01*
X004428Y016060D02*
X004281Y016060D01*
X004354Y016060D02*
X004354Y016280D01*
X004281Y016207D01*
X004207Y016243D02*
X004170Y016280D01*
X004060Y016280D01*
X004060Y016060D01*
X004170Y016060D01*
X004207Y016097D01*
X004207Y016243D01*
X005960Y016797D02*
X005997Y016760D01*
X006070Y016760D01*
X006107Y016797D01*
X006107Y016980D01*
X006181Y016943D02*
X006218Y016980D01*
X006291Y016980D01*
X006328Y016943D01*
X006328Y016907D01*
X006181Y016760D01*
X006328Y016760D01*
X005960Y016797D02*
X005960Y016980D01*
X008960Y016980D02*
X008960Y016797D01*
X008997Y016760D01*
X009070Y016760D01*
X009107Y016797D01*
X009107Y016980D01*
X009181Y016943D02*
X009218Y016980D01*
X009291Y016980D01*
X009328Y016943D01*
X009328Y016907D01*
X009291Y016870D01*
X009328Y016833D01*
X009328Y016797D01*
X009291Y016760D01*
X009218Y016760D01*
X009181Y016797D01*
X009254Y016870D02*
X009291Y016870D01*
X008054Y008180D02*
X008054Y007960D01*
X007981Y007960D02*
X008128Y007960D01*
X007981Y008107D02*
X008054Y008180D01*
X007907Y008180D02*
X007907Y007997D01*
X007870Y007960D01*
X007797Y007960D01*
X007760Y007997D01*
X007760Y008180D01*
X007820Y006528D02*
X007857Y006454D01*
X007930Y006381D01*
X007930Y006491D01*
X007967Y006528D01*
X008003Y006528D01*
X008040Y006491D01*
X008040Y006418D01*
X008003Y006381D01*
X007930Y006381D01*
X007930Y006307D02*
X007967Y006270D01*
X007967Y006160D01*
X008040Y006160D02*
X007820Y006160D01*
X007820Y006270D01*
X007857Y006307D01*
X007930Y006307D01*
X007967Y006233D02*
X008040Y006307D01*
X008620Y006270D02*
X008657Y006307D01*
X008730Y006307D01*
X008767Y006270D01*
X008767Y006160D01*
X008840Y006160D02*
X008620Y006160D01*
X008620Y006270D01*
X008620Y006381D02*
X008620Y006528D01*
X008657Y006528D01*
X008803Y006381D01*
X008840Y006381D01*
X008840Y006307D02*
X008767Y006233D01*
X009420Y006270D02*
X009457Y006307D01*
X009530Y006307D01*
X009567Y006270D01*
X009567Y006160D01*
X009640Y006160D02*
X009420Y006160D01*
X009420Y006270D01*
X009457Y006381D02*
X009493Y006381D01*
X009530Y006418D01*
X009530Y006491D01*
X009567Y006528D01*
X009603Y006528D01*
X009640Y006491D01*
X009640Y006418D01*
X009603Y006381D01*
X009567Y006381D01*
X009530Y006418D01*
X009530Y006491D02*
X009493Y006528D01*
X009457Y006528D01*
X009420Y006491D01*
X009420Y006418D01*
X009457Y006381D01*
X009567Y006233D02*
X009640Y006307D01*
X010220Y006270D02*
X010257Y006307D01*
X010330Y006307D01*
X010367Y006270D01*
X010367Y006160D01*
X010440Y006160D02*
X010220Y006160D01*
X010220Y006270D01*
X010257Y006381D02*
X010293Y006381D01*
X010330Y006418D01*
X010330Y006528D01*
X010403Y006528D02*
X010257Y006528D01*
X010220Y006491D01*
X010220Y006418D01*
X010257Y006381D01*
X010403Y006381D02*
X010440Y006418D01*
X010440Y006491D01*
X010403Y006528D01*
X010440Y006307D02*
X010367Y006233D01*
X011020Y006270D02*
X011057Y006307D01*
X011130Y006307D01*
X011167Y006270D01*
X011167Y006160D01*
X011240Y006160D02*
X011020Y006160D01*
X011020Y006270D01*
X011093Y006381D02*
X011020Y006454D01*
X011240Y006454D01*
X011240Y006381D02*
X011240Y006528D01*
X011203Y006602D02*
X011057Y006749D01*
X011203Y006749D01*
X011240Y006712D01*
X011240Y006639D01*
X011203Y006602D01*
X011057Y006602D01*
X011020Y006639D01*
X011020Y006712D01*
X011057Y006749D01*
X011240Y006307D02*
X011167Y006233D01*
X011820Y006270D02*
X011857Y006307D01*
X011930Y006307D01*
X011967Y006270D01*
X011967Y006160D01*
X012040Y006160D02*
X011820Y006160D01*
X011820Y006270D01*
X011893Y006381D02*
X011820Y006454D01*
X012040Y006454D01*
X012040Y006381D02*
X012040Y006528D01*
X012040Y006602D02*
X012040Y006749D01*
X012040Y006675D02*
X011820Y006675D01*
X011893Y006602D01*
X012040Y006307D02*
X011967Y006233D01*
X007240Y006160D02*
X007020Y006160D01*
X007020Y006270D01*
X007057Y006307D01*
X007130Y006307D01*
X007167Y006270D01*
X007167Y006160D01*
X007167Y006233D02*
X007240Y006307D01*
X007203Y006381D02*
X007240Y006418D01*
X007240Y006491D01*
X007203Y006528D01*
X007130Y006528D01*
X007093Y006491D01*
X007093Y006454D01*
X007130Y006381D01*
X007020Y006381D01*
X007020Y006528D01*
X006440Y006491D02*
X006220Y006491D01*
X006330Y006381D01*
X006330Y006528D01*
X006330Y006307D02*
X006367Y006270D01*
X006367Y006160D01*
X006440Y006160D02*
X006220Y006160D01*
X006220Y006270D01*
X006257Y006307D01*
X006330Y006307D01*
X006367Y006233D02*
X006440Y006307D01*
X004440Y004328D02*
X004440Y004181D01*
X004440Y004254D02*
X004220Y004254D01*
X004293Y004181D01*
X004257Y004107D02*
X004330Y004107D01*
X004367Y004070D01*
X004367Y003960D01*
X004440Y003960D02*
X004220Y003960D01*
X004220Y004070D01*
X004257Y004107D01*
X004367Y004033D02*
X004440Y004107D01*
D13*
X001600Y002918D02*
X001100Y002918D01*
X001100Y003050D02*
X001600Y003050D01*
X001850Y003300D01*
X001850Y004800D01*
X002100Y005050D01*
X002600Y005050D01*
X002850Y004800D01*
X002850Y003300D01*
X003100Y003050D01*
X003600Y003050D01*
X003850Y003300D01*
X003850Y004800D01*
X003600Y005050D01*
X003100Y005050D01*
X002850Y004800D01*
X002600Y005750D02*
X002100Y005750D01*
X001850Y006000D01*
X001850Y006500D01*
X002100Y006750D01*
X001850Y007000D01*
X001850Y007500D01*
X002100Y007750D01*
X001850Y008000D01*
X001850Y008500D01*
X002100Y008750D01*
X001850Y009000D01*
X001850Y009500D01*
X002100Y009750D01*
X001850Y010000D01*
X001850Y010500D01*
X002100Y010750D01*
X001850Y011000D01*
X001850Y011500D01*
X002100Y011750D01*
X002600Y011750D01*
X002850Y011500D01*
X002850Y011000D01*
X003100Y010750D01*
X002850Y010500D01*
X002850Y010000D01*
X003100Y009750D01*
X002850Y009500D01*
X002850Y009000D01*
X003100Y008750D01*
X002850Y008500D01*
X002850Y008000D01*
X003100Y007750D01*
X002850Y007500D01*
X002850Y007000D01*
X003100Y006750D01*
X002850Y006500D01*
X002850Y006000D01*
X003100Y005750D01*
X003600Y005750D01*
X003850Y006000D01*
X003850Y006500D01*
X003600Y006750D01*
X003850Y007000D01*
X003850Y007500D01*
X003600Y007750D01*
X003850Y008000D01*
X003850Y008500D01*
X003600Y008750D01*
X003850Y009000D01*
X003850Y009500D01*
X003600Y009750D01*
X003850Y010000D01*
X003850Y010500D01*
X003600Y010750D01*
X003850Y011000D01*
X003850Y011500D01*
X003600Y011750D01*
X003100Y011750D01*
X002850Y011500D01*
X002850Y011000D01*
X002600Y010750D01*
X002850Y010500D01*
X002850Y010000D01*
X002600Y009750D01*
X002850Y009500D01*
X002850Y009000D01*
X002600Y008750D01*
X002850Y008500D01*
X002850Y008000D01*
X002600Y007750D01*
X002850Y007500D01*
X002850Y007000D01*
X002600Y006750D01*
X002850Y006500D01*
X002850Y006000D01*
X002600Y005750D01*
X001850Y006000D02*
X001600Y005750D01*
X001100Y005750D01*
X000850Y006000D01*
X000850Y006500D01*
X001100Y006750D01*
X000850Y007000D01*
X000850Y007500D01*
X001100Y007750D01*
X000850Y008000D01*
X000850Y008500D01*
X001100Y008750D01*
X000850Y009000D01*
X000850Y009500D01*
X001100Y009750D01*
X000850Y010000D01*
X000850Y010500D01*
X001100Y010750D01*
X000850Y011000D01*
X000850Y011500D01*
X001100Y011750D01*
X001600Y011750D01*
X001850Y011500D01*
X001850Y011000D01*
X001600Y010750D01*
X001850Y010500D01*
X001850Y010000D01*
X001600Y009750D01*
X001850Y009500D01*
X001850Y009000D01*
X001600Y008750D01*
X001850Y008500D01*
X001850Y008000D01*
X001600Y007750D01*
X001850Y007500D01*
X001850Y007000D01*
X001600Y006750D01*
X001850Y006500D01*
X001850Y006000D01*
X001600Y005050D02*
X001100Y005050D01*
X000850Y004800D01*
X000850Y003300D01*
X001100Y003050D01*
X001850Y003300D02*
X002100Y003050D01*
X002600Y003050D01*
X002850Y003300D01*
X001850Y004800D02*
X001600Y005050D01*
X004727Y005850D02*
X014373Y005850D01*
X014373Y006145D01*
X014373Y006362D01*
X014373Y006145D02*
X013389Y006145D01*
X013389Y006362D01*
X008786Y012320D02*
X008314Y012320D01*
X007566Y012832D02*
X007566Y013068D01*
X008314Y013580D02*
X008786Y013580D01*
X009534Y013068D02*
X009534Y012832D01*
X008860Y015300D02*
X008860Y016600D01*
X011440Y016600D01*
X011440Y015300D01*
X008860Y015300D01*
X008440Y015300D02*
X005860Y015300D01*
X005860Y016600D01*
X008440Y016600D01*
X008440Y015300D01*
X007581Y016716D02*
X004727Y014216D01*
X004727Y013960D01*
X004727Y014216D02*
X005711Y014216D01*
X005711Y013960D01*
X005356Y016379D02*
X003544Y016379D01*
X003544Y016556D01*
X003544Y017344D02*
X003544Y017521D01*
X005356Y017521D01*
X005356Y017344D01*
X004844Y017344D02*
X004844Y016556D01*
X005356Y016556D02*
X005356Y016379D01*
X003289Y015339D02*
X000848Y015339D01*
X000848Y012583D01*
X000533Y012583D01*
X000533Y015339D01*
X000848Y015339D01*
X000848Y012583D02*
X003289Y012583D01*
X003289Y015339D01*
X007581Y016716D02*
X011519Y016716D01*
X014373Y014216D01*
X013389Y014216D01*
X013389Y013960D01*
X014373Y013960D02*
X014373Y014216D01*
X013142Y017195D02*
X013050Y017317D01*
X012869Y017317D01*
X012964Y017195D02*
X013040Y017311D01*
X013050Y017317D02*
X013231Y017317D01*
X012331Y017317D02*
X012150Y017317D01*
X012242Y017195D01*
X012150Y017317D02*
X011969Y017317D01*
X012064Y017195D02*
X012140Y017311D01*
X005711Y006362D02*
X005711Y006145D01*
X004727Y006145D01*
X004727Y006362D01*
X004727Y006145D02*
X004727Y005850D01*
D14*
X004700Y004510D02*
X004700Y001990D01*
X013200Y001990D01*
X013200Y004510D01*
X004700Y004510D01*
X005150Y004050D02*
X005150Y002450D01*
X005750Y002450D01*
X005750Y004050D01*
X005150Y004050D01*
X006150Y004050D02*
X006150Y002450D01*
X006750Y002450D01*
X006750Y004050D01*
X006150Y004050D01*
X007150Y004050D02*
X007150Y002450D01*
X007750Y002450D01*
X007750Y004050D01*
X007150Y004050D01*
X008150Y004050D02*
X008150Y002450D01*
X008750Y002450D01*
X008750Y004050D01*
X008150Y004050D01*
X009150Y004050D02*
X009150Y002450D01*
X009750Y002450D01*
X009750Y004050D01*
X009150Y004050D01*
X010150Y004050D02*
X010150Y002450D01*
X010750Y002450D01*
X010750Y004050D01*
X010150Y004050D01*
X011150Y004050D02*
X011150Y002450D01*
X011750Y002450D01*
X011750Y004050D01*
X011150Y004050D01*
X012150Y004050D02*
X012150Y002450D01*
X012750Y002450D01*
X012750Y004050D01*
X012150Y004050D01*
X010930Y008370D02*
X010930Y010990D01*
X010790Y011130D01*
X008170Y011130D01*
X008170Y008370D01*
X010930Y008370D01*
X010489Y010830D02*
X010491Y010853D01*
X010497Y010876D01*
X010506Y010897D01*
X010519Y010917D01*
X010535Y010934D01*
X010553Y010948D01*
X010573Y010959D01*
X010595Y010967D01*
X010618Y010971D01*
X010642Y010971D01*
X010665Y010967D01*
X010687Y010959D01*
X010707Y010948D01*
X010725Y010934D01*
X010741Y010917D01*
X010754Y010897D01*
X010763Y010876D01*
X010769Y010853D01*
X010771Y010830D01*
X010769Y010807D01*
X010763Y010784D01*
X010754Y010763D01*
X010741Y010743D01*
X010725Y010726D01*
X010707Y010712D01*
X010687Y010701D01*
X010665Y010693D01*
X010642Y010689D01*
X010618Y010689D01*
X010595Y010693D01*
X010573Y010701D01*
X010553Y010712D01*
X010535Y010726D01*
X010519Y010743D01*
X010506Y010763D01*
X010497Y010784D01*
X010491Y010807D01*
X010489Y010830D01*
D15*
X010450Y003750D03*
X009450Y003750D03*
X008450Y003750D03*
X007450Y003750D03*
X006450Y003750D03*
X005450Y003750D03*
X011450Y003750D03*
X012450Y003750D03*
D16*
X012350Y006350D03*
X011550Y006350D03*
X010750Y006350D03*
X009950Y006350D03*
X009150Y006350D03*
X008350Y006350D03*
X007550Y006350D03*
X006750Y006350D03*
X004250Y003150D03*
X012150Y015650D03*
X013050Y015650D03*
D17*
X011262Y013050D02*
X011238Y013050D01*
X010262Y013050D02*
X010238Y013050D01*
X006862Y013050D02*
X006838Y013050D01*
X004950Y014838D02*
X004950Y014862D01*
X004950Y015838D02*
X004950Y015862D01*
M02*
