  0
SECTION
  2
HEADER
  9
$ACADVER
  1
AC1009
  9
$FILLMODE
 70
1
  9
$EXTMIN
 10
-0.8890
 20
-1.1430
 30
0.0000
  9
$EXTMAX
 10
38.9890
 20
45.3390
 30
0.0000
  0
ENDSEC
  0
SECTION
  2
TABLES
  0
TABLE
  2
LTYPE
 70
1
  0
LTYPE
  2
CONTINUOUS
 70
64
  3
Solid line
 72
65
 73
0
 40
0
  0
ENDTAB
  0
TABLE
  2
LAYER
 70
255
  0
LAYER
  2
31
 70
64
 62
253
  6
CONTINUOUS
  0
ENDTAB
  0
ENDSEC
  0
SECTION
  2
BLOCKS
  0
BLOCK
  8
0
  2
RECT
 70
64
 10
0.0000
 20
0.0000
 30
0.0000
  3
RECT
  0
SOLID
  8
0
 10
-0.5000
 20
-0.5000
 30
0.0000
 11
0.5000
 21
-0.5000
 31
0.0000
 12
-0.5000
 22
0.5000
 32
0.0000
 13
0.5000
 23
0.5000
 33
0.0000
  0
ENDBLK
  8
0
  0
BLOCK
  8
0
  2
PIE
 70
64
 10
0.0000
 20
0.0000
 30
0.0000
  3
PIE
  0
POLYLINE
  8
0
 66
1
 10
0.0000
 20
0.0000
 30
0.0000
 40
0.5000
 41
0.5000
 70
0
  0
VERTEX
  8
0
 10
0.0000
 20
-0.2500
 30
0.0000
 42
1.0000
  0
VERTEX
  8
0
 10
0.0000
 20
0.2500
 30
0.0000
 42
1.0000
  0
VERTEX
  8
0
 10
0.0000
 20
-0.2500
 30
0.0000
  0
SEQEND
  8
0
  0
ENDBLK
  8
0
  0
BLOCK
  8
0
  2
OCTAGONP
 70
64
 10
0.0000
 20
0.0000
 30
0.0000
  3
OCTAGONP
  0
POLYLINE
  8
0
 66
1
 10
0.0000
 20
0.0000
 30
0.0000
 40
0.5000
 41
0.5000
 70
0
  0
VERTEX
  8
0
 10
-0.2500
 20
-0.1036
 30
0.0000
  0
VERTEX
  8
0
 10
-0.2500
 20
0.1036
 30
0.0000
  0
VERTEX
  8
0
 10
-0.1036
 20
0.2500
 30
0.0000
  0
VERTEX
  8
0
 10
0.1036
 20
0.2500
 30
0.0000
  0
VERTEX
  8
0
 10
0.2500
 20
0.1036
 30
0.0000
  0
VERTEX
  8
0
 10
0.2500
 20
-0.1036
 30
0.0000
  0
VERTEX
  8
0
 10
0.1036
 20
-0.2500
 30
0.0000
  0
VERTEX
  8
0
 10
-0.1036
 20
-0.2500
 30
0.0000
  0
VERTEX
  8
0
 10
-0.2500
 20
-0.1036
 30
0.0000
  0
VERTEX
  8
0
 10
-0.2500
 20
0.1036
 30
0.0000
  0
SEQEND
  8
0
  0
ENDBLK
  8
0
  0
BLOCK
  8
0
  2
SQUAREP
 70
64
 10
0.0000
 20
0.0000
 30
0.0000
  3
SQUAREP
  0
SOLID
  8
0
 10
-0.5000
 20
-0.5000
 30
0.0000
 11
0.5000
 21
-0.5000
 31
0.0000
 12
-0.5000
 22
0.5000
 32
0.0000
 13
0.5000
 23
0.5000
 33
0.0000
  0
ENDBLK
  8
0
  0
BLOCK
  8
0
  2
ROUNDP
 70
64
 10
0.0000
 20
0.0000
 30
0.0000
  3
ROUNDP
  0
POLYLINE
  8
0
 66
1
 10
0.0000
 20
0.0000
 30
0.0000
 40
0.5000
 41
0.5000
 70
0
  0
VERTEX
  8
0
 10
0.0000
 20
-0.2500
 30
0.0000
 42
1.0000
  0
VERTEX
  8
0
 10
0.0000
 20
0.2500
 30
0.0000
 42
1.0000
  0
VERTEX
  8
0
 10
0.0000
 20
-0.2500
 30
0.0000
  0
SEQEND
  8
0
  0
ENDBLK
  8
0
  0
BLOCK
  8
0
  2
ANNULUSP
 70
64
 10
0.0000
 20
0.0000
 30
0.0000
  3
ANNULUSP
  0
POLYLINE
  8
0
 66
1
 10
0.0000
 20
0.0000
 30
0.0000
 40
0.5000
 41
0.5000
 70
0
  0
VERTEX
  8
0
 10
0.0000
 20
-0.2500
 30
0.0000
 42
1.0000
  0
VERTEX
  8
0
 10
0.0000
 20
0.2500
 30
0.0000
 42
1.0000
  0
VERTEX
  8
0
 10
0.0000
 20
-0.2500
 30
0.0000
  0
SEQEND
  8
0
  0
ENDBLK
  8
0
  0
BLOCK
  8
0
  2
THERMALP
 70
64
 10
0.0000
 20
0.0000
 30
0.0000
  3
THERMALP
  0
POLYLINE
  8
0
 66
1
 10
0.0000
 20
0.0000
 30
0.0000
 40
0.1000
 41
0.1000
 70
0
  0
VERTEX
  8
0
 10
-0.2379
 20
0.4500
 30
0.0000
  0
VERTEX
  8
0
 10
0.2379
 20
0.4500
 30
0.0000
  0
SEQEND
  8
0
  0
POLYLINE
  8
0
 66
1
 10
0.0000
 20
0.0000
 30
0.0000
 40
0.0500
 41
0.0500
 70
0
  0
VERTEX
  8
0
 10
0.2379
 20
0.4250
 30
0.0000
 42
1.0000
  0
VERTEX
  8
0
 10
0.2379
 20
0.4750
 30
0.0000
  0
SEQEND
  8
0
  0
POLYLINE
  8
0
 66
1
 10
0.0000
 20
0.0000
 30
0.0000
 40
0.0500
 41
0.0500
 70
0
  0
VERTEX
  8
0
 10
-0.2379
 20
0.4750
 30
0.0000
 42
1.0000
  0
VERTEX
  8
0
 10
-0.2379
 20
0.4250
 30
0.0000
  0
SEQEND
  8
0
  0
POLYLINE
  8
0
 66
1
 10
0.0000
 20
0.0000
 30
0.0000
 40
0.1000
 41
0.1000
 70
0
  0
VERTEX
  8
0
 10
0.4500
 20
0.2379
 30
0.0000
  0
VERTEX
  8
0
 10
0.4500
 20
-0.2379
 30
0.0000
  0
SEQEND
  8
0
  0
POLYLINE
  8
0
 66
1
 10
0.0000
 20
0.0000
 30
0.0000
 40
0.0500
 41
0.0500
 70
0
  0
VERTEX
  8
0
 10
0.4250
 20
-0.2379
 30
0.0000
 42
1.0000
  0
VERTEX
  8
0
 10
0.4750
 20
-0.2379
 30
0.0000
  0
SEQEND
  8
0
  0
POLYLINE
  8
0
 66
1
 10
0.0000
 20
0.0000
 30
0.0000
 40
0.0500
 41
0.0500
 70
0
  0
VERTEX
  8
0
 10
0.4750
 20
0.2379
 30
0.0000
 42
1.0000
  0
VERTEX
  8
0
 10
0.4250
 20
0.2379
 30
0.0000
  0
SEQEND
  8
0
  0
POLYLINE
  8
0
 66
1
 10
0.0000
 20
0.0000
 30
0.0000
 40
0.1000
 41
0.1000
 70
0
  0
VERTEX
  8
0
 10
0.2379
 20
-0.4500
 30
0.0000
  0
VERTEX
  8
0
 10
-0.2379
 20
-0.4500
 30
0.0000
  0
SEQEND
  8
0
  0
POLYLINE
  8
0
 66
1
 10
0.0000
 20
0.0000
 30
0.0000
 40
0.0500
 41
0.0500
 70
0
  0
VERTEX
  8
0
 10
-0.2379
 20
-0.4250
 30
0.0000
 42
1.0000
  0
VERTEX
  8
0
 10
-0.2379
 20
-0.4750
 30
0.0000
  0
SEQEND
  8
0
  0
POLYLINE
  8
0
 66
1
 10
0.0000
 20
0.0000
 30
0.0000
 40
0.0500
 41
0.0500
 70
0
  0
VERTEX
  8
0
 10
0.2379
 20
-0.4750
 30
0.0000
 42
1.0000
  0
VERTEX
  8
0
 10
0.2379
 20
-0.4250
 30
0.0000
  0
SEQEND
  8
0
  0
POLYLINE
  8
0
 66
1
 10
0.0000
 20
0.0000
 30
0.0000
 40
0.1000
 41
0.1000
 70
0
  0
VERTEX
  8
0
 10
-0.4500
 20
-0.2379
 30
0.0000
  0
VERTEX
  8
0
 10
-0.4500
 20
0.2379
 30
0.0000
  0
SEQEND
  8
0
  0
POLYLINE
  8
0
 66
1
 10
0.0000
 20
0.0000
 30
0.0000
 40
0.0500
 41
0.0500
 70
0
  0
VERTEX
  8
0
 10
-0.4250
 20
0.2379
 30
0.0000
 42
1.0000
  0
VERTEX
  8
0
 10
-0.4750
 20
0.2379
 30
0.0000
  0
SEQEND
  8
0
  0
POLYLINE
  8
0
 66
1
 10
0.0000
 20
0.0000
 30
0.0000
 40
0.0500
 41
0.0500
 70
0
  0
VERTEX
  8
0
 10
-0.4750
 20
-0.2379
 30
0.0000
 42
1.0000
  0
VERTEX
  8
0
 10
-0.4250
 20
-0.2379
 30
0.0000
  0
SEQEND
  8
0
  0
ENDBLK
  8
0
  0
BLOCK
  8
0
  2
OCTAGONV
 70
64
 10
0.0000
 20
0.0000
 30
0.0000
  3
OCTAGONV
  0
POLYLINE
  8
0
 66
1
 10
0.0000
 20
0.0000
 30
0.0000
 40
0.5000
 41
0.5000
 70
0
  0
VERTEX
  8
0
 10
-0.2500
 20
-0.1036
 30
0.0000
  0
VERTEX
  8
0
 10
-0.2500
 20
0.1036
 30
0.0000
  0
VERTEX
  8
0
 10
-0.1036
 20
0.2500
 30
0.0000
  0
VERTEX
  8
0
 10
0.1036
 20
0.2500
 30
0.0000
  0
VERTEX
  8
0
 10
0.2500
 20
0.1036
 30
0.0000
  0
VERTEX
  8
0
 10
0.2500
 20
-0.1036
 30
0.0000
  0
VERTEX
  8
0
 10
0.1036
 20
-0.2500
 30
0.0000
  0
VERTEX
  8
0
 10
-0.1036
 20
-0.2500
 30
0.0000
  0
VERTEX
  8
0
 10
-0.2500
 20
-0.1036
 30
0.0000
  0
VERTEX
  8
0
 10
-0.2500
 20
0.1036
 30
0.0000
  0
SEQEND
  8
0
  0
ENDBLK
  8
0
  0
BLOCK
  8
0
  2
SQUAREV
 70
64
 10
0.0000
 20
0.0000
 30
0.0000
  3
SQUAREV
  0
SOLID
  8
0
 10
-0.5000
 20
-0.5000
 30
0.0000
 11
0.5000
 21
-0.5000
 31
0.0000
 12
-0.5000
 22
0.5000
 32
0.0000
 13
0.5000
 23
0.5000
 33
0.0000
  0
ENDBLK
  8
0
  0
BLOCK
  8
0
  2
ROUNDV
 70
64
 10
0.0000
 20
0.0000
 30
0.0000
  3
ROUNDV
  0
POLYLINE
  8
0
 66
1
 10
0.0000
 20
0.0000
 30
0.0000
 40
0.5000
 41
0.5000
 70
0
  0
VERTEX
  8
0
 10
0.0000
 20
-0.2500
 30
0.0000
 42
1.0000
  0
VERTEX
  8
0
 10
0.0000
 20
0.2500
 30
0.0000
 42
1.0000
  0
VERTEX
  8
0
 10
0.0000
 20
-0.2500
 30
0.0000
  0
SEQEND
  8
0
  0
ENDBLK
  8
0
  0
BLOCK
  8
0
  2
ANNULUSV
 70
64
 10
0.0000
 20
0.0000
 30
0.0000
  3
ANNULUSV
  0
POLYLINE
  8
0
 66
1
 10
0.0000
 20
0.0000
 30
0.0000
 40
0.5000
 41
0.5000
 70
0
  0
VERTEX
  8
0
 10
0.0000
 20
-0.2500
 30
0.0000
 42
1.0000
  0
VERTEX
  8
0
 10
0.0000
 20
0.2500
 30
0.0000
 42
1.0000
  0
VERTEX
  8
0
 10
0.0000
 20
-0.2500
 30
0.0000
  0
SEQEND
  8
0
  0
ENDBLK
  8
0
  0
BLOCK
  8
0
  2
THERMALV
 70
64
 10
0.0000
 20
0.0000
 30
0.0000
  3
THERMALV
  0
POLYLINE
  8
0
 66
1
 10
0.0000
 20
0.0000
 30
0.0000
 40
0.1000
 41
0.1000
 70
0
  0
VERTEX
  8
0
 10
-0.2379
 20
0.4500
 30
0.0000
  0
VERTEX
  8
0
 10
0.2379
 20
0.4500
 30
0.0000
  0
SEQEND
  8
0
  0
POLYLINE
  8
0
 66
1
 10
0.0000
 20
0.0000
 30
0.0000
 40
0.0500
 41
0.0500
 70
0
  0
VERTEX
  8
0
 10
0.2379
 20
0.4250
 30
0.0000
 42
1.0000
  0
VERTEX
  8
0
 10
0.2379
 20
0.4750
 30
0.0000
  0
SEQEND
  8
0
  0
POLYLINE
  8
0
 66
1
 10
0.0000
 20
0.0000
 30
0.0000
 40
0.0500
 41
0.0500
 70
0
  0
VERTEX
  8
0
 10
-0.2379
 20
0.4750
 30
0.0000
 42
1.0000
  0
VERTEX
  8
0
 10
-0.2379
 20
0.4250
 30
0.0000
  0
SEQEND
  8
0
  0
POLYLINE
  8
0
 66
1
 10
0.0000
 20
0.0000
 30
0.0000
 40
0.1000
 41
0.1000
 70
0
  0
VERTEX
  8
0
 10
0.4500
 20
0.2379
 30
0.0000
  0
VERTEX
  8
0
 10
0.4500
 20
-0.2379
 30
0.0000
  0
SEQEND
  8
0
  0
POLYLINE
  8
0
 66
1
 10
0.0000
 20
0.0000
 30
0.0000
 40
0.0500
 41
0.0500
 70
0
  0
VERTEX
  8
0
 10
0.4250
 20
-0.2379
 30
0.0000
 42
1.0000
  0
VERTEX
  8
0
 10
0.4750
 20
-0.2379
 30
0.0000
  0
SEQEND
  8
0
  0
POLYLINE
  8
0
 66
1
 10
0.0000
 20
0.0000
 30
0.0000
 40
0.0500
 41
0.0500
 70
0
  0
VERTEX
  8
0
 10
0.4750
 20
0.2379
 30
0.0000
 42
1.0000
  0
VERTEX
  8
0
 10
0.4250
 20
0.2379
 30
0.0000
  0
SEQEND
  8
0
  0
POLYLINE
  8
0
 66
1
 10
0.0000
 20
0.0000
 30
0.0000
 40
0.1000
 41
0.1000
 70
0
  0
VERTEX
  8
0
 10
0.2379
 20
-0.4500
 30
0.0000
  0
VERTEX
  8
0
 10
-0.2379
 20
-0.4500
 30
0.0000
  0
SEQEND
  8
0
  0
POLYLINE
  8
0
 66
1
 10
0.0000
 20
0.0000
 30
0.0000
 40
0.0500
 41
0.0500
 70
0
  0
VERTEX
  8
0
 10
-0.2379
 20
-0.4250
 30
0.0000
 42
1.0000
  0
VERTEX
  8
0
 10
-0.2379
 20
-0.4750
 30
0.0000
  0
SEQEND
  8
0
  0
POLYLINE
  8
0
 66
1
 10
0.0000
 20
0.0000
 30
0.0000
 40
0.0500
 41
0.0500
 70
0
  0
VERTEX
  8
0
 10
0.2379
 20
-0.4750
 30
0.0000
 42
1.0000
  0
VERTEX
  8
0
 10
0.2379
 20
-0.4250
 30
0.0000
  0
SEQEND
  8
0
  0
POLYLINE
  8
0
 66
1
 10
0.0000
 20
0.0000
 30
0.0000
 40
0.1000
 41
0.1000
 70
0
  0
VERTEX
  8
0
 10
-0.4500
 20
-0.2379
 30
0.0000
  0
VERTEX
  8
0
 10
-0.4500
 20
0.2379
 30
0.0000
  0
SEQEND
  8
0
  0
POLYLINE
  8
0
 66
1
 10
0.0000
 20
0.0000
 30
0.0000
 40
0.0500
 41
0.0500
 70
0
  0
VERTEX
  8
0
 10
-0.4250
 20
0.2379
 30
0.0000
 42
1.0000
  0
VERTEX
  8
0
 10
-0.4750
 20
0.2379
 30
0.0000
  0
SEQEND
  8
0
  0
POLYLINE
  8
0
 66
1
 10
0.0000
 20
0.0000
 30
0.0000
 40
0.0500
 41
0.0500
 70
0
  0
VERTEX
  8
0
 10
-0.4750
 20
-0.2379
 30
0.0000
 42
1.0000
  0
VERTEX
  8
0
 10
-0.4250
 20
-0.2379
 30
0.0000
  0
SEQEND
  8
0
  0
ENDBLK
  8
0
  0
ENDSEC
  0
SECTION
  2
ENTITIES
  0
INSERT
  8
31
  2
RECT
 10
12.2800
 20
38.8620
 30
0.0000
 41
1.1000
 42
1.0000
 43
1.0000
 50
180.0000
  0
INSERT
  8
31
  2
RECT
 10
10.5800
 20
38.8620
 30
0.0000
 41
1.1000
 42
1.0000
 43
1.0000
 50
180.0000
  0
INSERT
  8
31
  2
RECT
 10
27.4320
 20
30.9000
 30
0.0000
 41
1.1000
 42
1.0000
 43
1.0000
 50
90.0000
  0
INSERT
  8
31
  2
RECT
 10
27.4320
 20
32.6000
 30
0.0000
 41
1.1000
 42
1.0000
 43
1.0000
 50
90.0000
  0
INSERT
  8
31
  2
RECT
 10
12.2800
 20
36.3220
 30
0.0000
 41
1.1000
 42
1.0000
 43
1.0000
 50
180.0000
  0
INSERT
  8
31
  2
RECT
 10
10.5800
 20
36.3220
 30
0.0000
 41
1.1000
 42
1.0000
 43
1.0000
 50
180.0000
  0
INSERT
  8
31
  2
RECT
 10
24.8920
 20
32.6000
 30
0.0000
 41
1.1000
 42
1.0000
 43
1.0000
 50
270.0000
  0
INSERT
  8
31
  2
RECT
 10
24.8920
 20
30.9000
 30
0.0000
 41
1.1000
 42
1.0000
 43
1.0000
 50
270.0000
  0
INSERT
  8
31
  2
RECT
 10
16.2560
 20
30.9000
 30
0.0000
 41
1.1000
 42
1.0000
 43
1.0000
 50
90.0000
  0
INSERT
  8
31
  2
RECT
 10
16.2560
 20
32.6000
 30
0.0000
 41
1.1000
 42
1.0000
 43
1.0000
 50
90.0000
  0
INSERT
  8
31
  2
RECT
 10
8.0100
 20
41.6560
 30
0.0000
 41
1.2700
 42
1.4700
 43
1.0000
 50
180.0000
  0
INSERT
  8
31
  2
RECT
 10
12.3100
 20
41.6560
 30
0.0000
 41
1.2700
 42
1.4700
 43
1.0000
 50
0.0000
  0
INSERT
  8
31
  2
RECT
 10
32.0040
 20
41.6680
 30
0.0000
 41
0.8000
 42
0.8000
 43
1.0000
 50
0.0000
  0
INSERT
  8
31
  2
RECT
 10
32.0040
 20
43.1680
 30
0.0000
 41
0.8000
 42
0.8000
 43
1.0000
 50
0.0000
  0
INSERT
  8
31
  2
RECT
 10
29.7180
 20
41.6680
 30
0.0000
 41
0.8000
 42
0.8000
 43
1.0000
 50
0.0000
  0
INSERT
  8
31
  2
RECT
 10
29.7180
 20
43.1680
 30
0.0000
 41
0.8000
 42
0.8000
 43
1.0000
 50
0.0000
  0
INSERT
  8
31
  2
RECT
 10
9.6520
 20
5.7540
 30
0.0000
 41
1.1000
 42
1.0000
 43
1.0000
 50
90.0000
  0
INSERT
  8
31
  2
RECT
 10
9.6520
 20
7.4540
 30
0.0000
 41
1.1000
 42
1.0000
 43
1.0000
 50
90.0000
  0
INSERT
  8
31
  2
RECT
 10
29.7180
 20
37.5040
 30
0.0000
 41
1.1000
 42
1.0000
 43
1.0000
 50
90.0000
  0
INSERT
  8
31
  2
RECT
 10
29.7180
 20
39.2040
 30
0.0000
 41
1.1000
 42
1.0000
 43
1.0000
 50
90.0000
  0
INSERT
  8
31
  2
RECT
 10
32.0040
 20
37.5040
 30
0.0000
 41
1.1000
 42
1.0000
 43
1.0000
 50
90.0000
  0
INSERT
  8
31
  2
RECT
 10
32.0040
 20
39.2040
 30
0.0000
 41
1.1000
 42
1.0000
 43
1.0000
 50
90.0000
  0
INSERT
  8
31
  2
RECT
 10
16.0020
 20
15.5820
 30
0.0000
 41
1.1000
 42
1.0000
 43
1.0000
 50
270.0000
  0
INSERT
  8
31
  2
RECT
 10
16.0020
 20
13.8820
 30
0.0000
 41
1.1000
 42
1.0000
 43
1.0000
 50
270.0000
  0
INSERT
  8
31
  2
RECT
 10
18.0340
 20
15.5820
 30
0.0000
 41
1.1000
 42
1.0000
 43
1.0000
 50
270.0000
  0
INSERT
  8
31
  2
RECT
 10
18.0340
 20
13.8820
 30
0.0000
 41
1.1000
 42
1.0000
 43
1.0000
 50
270.0000
  0
INSERT
  8
31
  2
RECT
 10
20.0660
 20
15.5820
 30
0.0000
 41
1.1000
 42
1.0000
 43
1.0000
 50
270.0000
  0
INSERT
  8
31
  2
RECT
 10
20.0660
 20
13.8820
 30
0.0000
 41
1.1000
 42
1.0000
 43
1.0000
 50
270.0000
  0
INSERT
  8
31
  2
RECT
 10
22.0980
 20
15.5820
 30
0.0000
 41
1.1000
 42
1.0000
 43
1.0000
 50
270.0000
  0
INSERT
  8
31
  2
RECT
 10
22.0980
 20
13.8820
 30
0.0000
 41
1.1000
 42
1.0000
 43
1.0000
 50
270.0000
  0
INSERT
  8
31
  2
RECT
 10
24.1300
 20
15.5820
 30
0.0000
 41
1.1000
 42
1.0000
 43
1.0000
 50
270.0000
  0
INSERT
  8
31
  2
RECT
 10
24.1300
 20
13.8820
 30
0.0000
 41
1.1000
 42
1.0000
 43
1.0000
 50
270.0000
  0
INSERT
  8
31
  2
RECT
 10
26.1620
 20
15.5820
 30
0.0000
 41
1.1000
 42
1.0000
 43
1.0000
 50
270.0000
  0
INSERT
  8
31
  2
RECT
 10
26.1620
 20
13.8820
 30
0.0000
 41
1.1000
 42
1.0000
 43
1.0000
 50
270.0000
  0
INSERT
  8
31
  2
RECT
 10
28.1940
 20
15.5820
 30
0.0000
 41
1.1000
 42
1.0000
 43
1.0000
 50
270.0000
  0
INSERT
  8
31
  2
RECT
 10
28.1940
 20
13.8820
 30
0.0000
 41
1.1000
 42
1.0000
 43
1.0000
 50
270.0000
  0
INSERT
  8
31
  2
RECT
 10
30.2260
 20
15.5820
 30
0.0000
 41
1.1000
 42
1.0000
 43
1.0000
 50
270.0000
  0
INSERT
  8
31
  2
RECT
 10
30.2260
 20
13.8820
 30
0.0000
 41
1.1000
 42
1.0000
 43
1.0000
 50
270.0000
  0
INSERT
  8
31
  2
RECT
 10
12.7000
 20
2.3622
 30
0.0000
 41
1.0922
 42
2.0066
 43
1.0000
 50
0.0000
  0
INSERT
  8
31
  2
RECT
 10
15.2400
 20
2.3622
 30
0.0000
 41
1.0922
 42
2.0066
 43
1.0000
 50
0.0000
  0
INSERT
  8
31
  2
RECT
 10
17.7800
 20
2.3622
 30
0.0000
 41
1.0922
 42
2.0066
 43
1.0000
 50
0.0000
  0
INSERT
  8
31
  2
RECT
 10
20.3200
 20
2.3622
 30
0.0000
 41
1.0922
 42
2.0066
 43
1.0000
 50
0.0000
  0
INSERT
  8
31
  2
RECT
 10
22.8600
 20
2.3622
 30
0.0000
 41
1.0922
 42
2.0066
 43
1.0000
 50
0.0000
  0
INSERT
  8
31
  2
RECT
 10
25.4000
 20
2.3622
 30
0.0000
 41
1.0922
 42
2.0066
 43
1.0000
 50
0.0000
  0
INSERT
  8
31
  2
RECT
 10
27.9400
 20
2.3622
 30
0.0000
 41
1.0922
 42
2.0066
 43
1.0000
 50
0.0000
  0
INSERT
  8
31
  2
RECT
 10
30.4800
 20
2.3622
 30
0.0000
 41
1.0922
 42
2.0066
 43
1.0000
 50
0.0000
  0
INSERT
  8
31
  2
RECT
 10
30.4800
 20
11.3538
 30
0.0000
 41
1.0922
 42
2.0066
 43
1.0000
 50
0.0000
  0
INSERT
  8
31
  2
RECT
 10
27.9400
 20
11.3538
 30
0.0000
 41
1.0922
 42
2.0066
 43
1.0000
 50
0.0000
  0
INSERT
  8
31
  2
RECT
 10
25.4000
 20
11.3538
 30
0.0000
 41
1.0922
 42
2.0066
 43
1.0000
 50
0.0000
  0
INSERT
  8
31
  2
RECT
 10
22.8600
 20
11.3538
 30
0.0000
 41
1.0922
 42
2.0066
 43
1.0000
 50
0.0000
  0
INSERT
  8
31
  2
RECT
 10
20.3200
 20
11.3538
 30
0.0000
 41
1.0922
 42
2.0066
 43
1.0000
 50
0.0000
  0
INSERT
  8
31
  2
RECT
 10
17.7800
 20
11.3538
 30
0.0000
 41
1.0922
 42
2.0066
 43
1.0000
 50
0.0000
  0
INSERT
  8
31
  2
RECT
 10
15.2400
 20
11.3538
 30
0.0000
 41
1.0922
 42
2.0066
 43
1.0000
 50
0.0000
  0
INSERT
  8
31
  2
RECT
 10
12.7000
 20
11.3538
 30
0.0000
 41
1.0922
 42
2.0066
 43
1.0000
 50
0.0000
  0
INSERT
  8
31
  2
RECT
 10
25.9140
 20
27.6606
 30
0.0000
 41
1.2700
 42
0.5588
 43
1.0000
 50
270.0000
  0
INSERT
  8
31
  2
RECT
 10
25.1140
 20
27.6606
 30
0.0000
 41
1.2700
 42
0.5588
 43
1.0000
 50
270.0000
  0
INSERT
  8
31
  2
RECT
 10
24.3140
 20
27.6606
 30
0.0000
 41
1.2700
 42
0.5588
 43
1.0000
 50
270.0000
  0
INSERT
  8
31
  2
RECT
 10
23.5140
 20
27.6606
 30
0.0000
 41
1.2700
 42
0.5588
 43
1.0000
 50
270.0000
  0
INSERT
  8
31
  2
RECT
 10
22.7140
 20
27.6606
 30
0.0000
 41
1.2700
 42
0.5588
 43
1.0000
 50
270.0000
  0
INSERT
  8
31
  2
RECT
 10
21.9140
 20
27.6606
 30
0.0000
 41
1.2700
 42
0.5588
 43
1.0000
 50
270.0000
  0
INSERT
  8
31
  2
RECT
 10
21.1140
 20
27.6606
 30
0.0000
 41
1.2700
 42
0.5588
 43
1.0000
 50
270.0000
  0
INSERT
  8
31
  2
RECT
 10
20.3140
 20
27.6606
 30
0.0000
 41
1.2700
 42
0.5588
 43
1.0000
 50
270.0000
  0
INSERT
  8
31
  2
RECT
 10
18.8214
 20
26.1680
 30
0.0000
 41
0.5588
 42
1.2700
 43
1.0000
 50
270.0000
  0
INSERT
  8
31
  2
RECT
 10
18.8214
 20
25.3680
 30
0.0000
 41
0.5588
 42
1.2700
 43
1.0000
 50
270.0000
  0
INSERT
  8
31
  2
RECT
 10
18.8214
 20
24.5680
 30
0.0000
 41
0.5588
 42
1.2700
 43
1.0000
 50
270.0000
  0
INSERT
  8
31
  2
RECT
 10
18.8214
 20
23.7680
 30
0.0000
 41
0.5588
 42
1.2700
 43
1.0000
 50
270.0000
  0
INSERT
  8
31
  2
RECT
 10
18.8214
 20
22.9680
 30
0.0000
 41
0.5588
 42
1.2700
 43
1.0000
 50
270.0000
  0
INSERT
  8
31
  2
RECT
 10
18.8214
 20
22.1680
 30
0.0000
 41
0.5588
 42
1.2700
 43
1.0000
 50
270.0000
  0
INSERT
  8
31
  2
RECT
 10
18.8214
 20
21.3680
 30
0.0000
 41
0.5588
 42
1.2700
 43
1.0000
 50
270.0000
  0
INSERT
  8
31
  2
RECT
 10
18.8214
 20
20.5680
 30
0.0000
 41
0.5588
 42
1.2700
 43
1.0000
 50
270.0000
  0
INSERT
  8
31
  2
RECT
 10
20.3140
 20
19.0754
 30
0.0000
 41
1.2700
 42
0.5588
 43
1.0000
 50
270.0000
  0
INSERT
  8
31
  2
RECT
 10
21.1140
 20
19.0754
 30
0.0000
 41
1.2700
 42
0.5588
 43
1.0000
 50
270.0000
  0
INSERT
  8
31
  2
RECT
 10
21.9140
 20
19.0754
 30
0.0000
 41
1.2700
 42
0.5588
 43
1.0000
 50
270.0000
  0
INSERT
  8
31
  2
RECT
 10
22.7140
 20
19.0754
 30
0.0000
 41
1.2700
 42
0.5588
 43
1.0000
 50
270.0000
  0
INSERT
  8
31
  2
RECT
 10
23.5140
 20
19.0754
 30
0.0000
 41
1.2700
 42
0.5588
 43
1.0000
 50
270.0000
  0
INSERT
  8
31
  2
RECT
 10
24.3140
 20
19.0754
 30
0.0000
 41
1.2700
 42
0.5588
 43
1.0000
 50
270.0000
  0
INSERT
  8
31
  2
RECT
 10
25.1140
 20
19.0754
 30
0.0000
 41
1.2700
 42
0.5588
 43
1.0000
 50
270.0000
  0
INSERT
  8
31
  2
RECT
 10
25.9140
 20
19.0754
 30
0.0000
 41
1.2700
 42
0.5588
 43
1.0000
 50
270.0000
  0
INSERT
  8
31
  2
RECT
 10
27.4066
 20
20.5680
 30
0.0000
 41
0.5588
 42
1.2700
 43
1.0000
 50
270.0000
  0
INSERT
  8
31
  2
RECT
 10
27.4066
 20
21.3680
 30
0.0000
 41
0.5588
 42
1.2700
 43
1.0000
 50
270.0000
  0
INSERT
  8
31
  2
RECT
 10
27.4066
 20
22.1680
 30
0.0000
 41
0.5588
 42
1.2700
 43
1.0000
 50
270.0000
  0
INSERT
  8
31
  2
RECT
 10
27.4066
 20
22.9680
 30
0.0000
 41
0.5588
 42
1.2700
 43
1.0000
 50
270.0000
  0
INSERT
  8
31
  2
RECT
 10
27.4066
 20
23.7680
 30
0.0000
 41
0.5588
 42
1.2700
 43
1.0000
 50
270.0000
  0
INSERT
  8
31
  2
RECT
 10
27.4066
 20
24.5680
 30
0.0000
 41
0.5588
 42
1.2700
 43
1.0000
 50
270.0000
  0
INSERT
  8
31
  2
RECT
 10
27.4066
 20
25.3680
 30
0.0000
 41
0.5588
 42
1.2700
 43
1.0000
 50
270.0000
  0
INSERT
  8
31
  2
RECT
 10
27.4066
 20
26.1680
 30
0.0000
 41
0.5588
 42
1.2700
 43
1.0000
 50
270.0000
  0
INSERT
  8
31
  2
RECT
 10
14.7066
 20
36.0172
 30
0.0000
 41
1.2192
 42
2.2352
 43
1.0000
 50
0.0000
  0
INSERT
  8
31
  2
RECT
 10
17.0180
 20
36.0172
 30
0.0000
 41
1.2192
 42
2.2352
 43
1.0000
 50
0.0000
  0
INSERT
  8
31
  2
RECT
 10
19.3294
 20
36.0172
 30
0.0000
 41
1.2192
 42
2.2352
 43
1.0000
 50
0.0000
  0
INSERT
  8
31
  2
RECT
 10
17.0180
 20
42.2150
 30
0.0000
 41
3.6000
 42
2.2000
 43
1.0000
 50
0.0000
  0
INSERT
  8
31
  2
RECT
 10
22.3266
 20
36.0172
 30
0.0000
 41
1.2192
 42
2.2352
 43
1.0000
 50
0.0000
  0
INSERT
  8
31
  2
RECT
 10
24.6380
 20
36.0172
 30
0.0000
 41
1.2192
 42
2.2352
 43
1.0000
 50
0.0000
  0
INSERT
  8
31
  2
RECT
 10
26.9494
 20
36.0172
 30
0.0000
 41
1.2192
 42
2.2352
 43
1.0000
 50
0.0000
  0
INSERT
  8
31
  2
RECT
 10
24.6380
 20
42.2150
 30
0.0000
 41
3.6000
 42
2.2000
 43
1.0000
 50
0.0000
  0
INSERT
  8
31
  2
RECT
 10
10.6140
 20
33.4620
 30
0.0000
 41
0.8500
 42
1.7000
 43
1.0000
 50
90.0000
  0
INSERT
  8
31
  2
RECT
 10
13.6140
 20
31.4620
 30
0.0000
 41
0.8500
 42
1.7000
 43
1.0000
 50
90.0000
  0
INSERT
  8
31
  2
RECT
 10
10.6140
 20
29.4620
 30
0.0000
 41
0.8500
 42
1.7000
 43
1.0000
 50
90.0000
  0
INSERT
  8
31
  2
RECT
 10
13.6140
 20
27.4620
 30
0.0000
 41
0.8500
 42
1.7000
 43
1.0000
 50
90.0000
  0
INSERT
  8
31
  2
RECT
 10
10.6140
 20
25.4620
 30
0.0000
 41
0.8500
 42
1.7000
 43
1.0000
 50
90.0000
  0
INSERT
  8
31
  2
RECT
 10
13.6140
 20
23.4620
 30
0.0000
 41
0.8500
 42
1.7000
 43
1.0000
 50
90.0000
  0
INSERT
  8
31
  2
RECT
 10
10.6140
 20
21.4620
 30
0.0000
 41
0.8500
 42
1.7000
 43
1.0000
 50
90.0000
  0
INSERT
  8
31
  2
RECT
 10
13.6140
 20
19.4620
 30
0.0000
 41
0.8500
 42
1.7000
 43
1.0000
 50
90.0000
  0
INSERT
  8
31
  2
RECT
 10
10.6140
 20
17.4620
 30
0.0000
 41
0.8500
 42
1.7000
 43
1.0000
 50
90.0000
  0
INSERT
  8
31
  2
RECT
 10
13.6140
 20
15.4620
 30
0.0000
 41
0.8500
 42
1.7000
 43
1.0000
 50
90.0000
  0
INSERT
  8
31
  2
RECT
 10
35.6140
 20
15.4620
 30
0.0000
 41
0.8500
 42
1.7000
 43
1.0000
 50
90.0000
  0
INSERT
  8
31
  2
RECT
 10
32.6140
 20
17.4620
 30
0.0000
 41
0.8500
 42
1.7000
 43
1.0000
 50
90.0000
  0
INSERT
  8
31
  2
RECT
 10
35.6140
 20
19.4620
 30
0.0000
 41
0.8500
 42
1.7000
 43
1.0000
 50
90.0000
  0
INSERT
  8
31
  2
RECT
 10
32.6140
 20
21.4620
 30
0.0000
 41
0.8500
 42
1.7000
 43
1.0000
 50
90.0000
  0
INSERT
  8
31
  2
RECT
 10
35.6140
 20
23.4620
 30
0.0000
 41
0.8500
 42
1.7000
 43
1.0000
 50
90.0000
  0
INSERT
  8
31
  2
RECT
 10
32.6140
 20
25.4620
 30
0.0000
 41
0.8500
 42
1.7000
 43
1.0000
 50
90.0000
  0
INSERT
  8
31
  2
RECT
 10
35.6140
 20
27.4620
 30
0.0000
 41
0.8500
 42
1.7000
 43
1.0000
 50
90.0000
  0
INSERT
  8
31
  2
RECT
 10
32.6140
 20
29.4620
 30
0.0000
 41
0.8500
 42
1.7000
 43
1.0000
 50
90.0000
  0
INSERT
  8
31
  2
RECT
 10
35.6140
 20
31.4620
 30
0.0000
 41
0.8500
 42
1.7000
 43
1.0000
 50
90.0000
  0
INSERT
  8
31
  2
RECT
 10
32.6140
 20
33.4620
 30
0.0000
 41
0.8500
 42
1.7000
 43
1.0000
 50
90.0000
  0
INSERT
  8
31
  2
RECT
 10
22.4240
 20
32.6460
 30
0.0000
 41
1.9000
 42
1.1000
 43
1.0000
 50
180.0000
  0
INSERT
  8
31
  2
RECT
 10
18.7240
 20
32.6460
 30
0.0000
 41
1.9000
 42
1.1000
 43
1.0000
 50
180.0000
  0
INSERT
  8
31
  2
RECT
 10
18.7240
 20
30.3460
 30
0.0000
 41
1.9000
 42
1.1000
 43
1.0000
 50
180.0000
  0
INSERT
  8
31
  2
RECT
 10
22.4240
 20
30.3460
 30
0.0000
 41
1.9000
 42
1.1000
 43
1.0000
 50
180.0000
  0
ENDSEC
  0
EOF
