%
M48
M72
T01C0.0236
T02C0.0400
T03C0.0472
T04C0.1260
%
T01
X3567Y6150
X4067Y6450
X4567Y6750
X5067Y7350
X5867Y8350
X6367Y9750
X8367Y8050
X10067Y6950
X10167Y8542
X9467Y9850
X6067Y5793
X7367Y5650
X7367Y5150
T02
X10167Y3950
X11167Y3950
X12167Y3950
X12167Y2950
X11167Y2950
X10167Y2950
X7967Y11450
X7967Y12450
X7967Y13450
X6967Y13450
X6967Y12450
X6967Y11450
X5967Y11450
X5967Y12450
X5967Y13450
X4967Y13450
X4967Y12450
X4967Y11450
X3967Y11450
X3967Y12450
X3967Y13450
X2967Y13450
X2967Y12450
X2967Y11450
T03
X9789Y12850
X11167Y12850
T04
X1467Y1050
X1467Y13150
X13167Y13150
X13167Y1050
M30
