G75*
G70*
%OFA0B0*%
%FSLAX24Y24*%
%IPPOS*%
%LPD*%
%AMOC8*
5,1,8,0,0,1.08239X$1,22.5*
%
%ADD10C,0.0000*%
%ADD11R,0.0220X0.0500*%
%ADD12R,0.0500X0.0220*%
%ADD13R,0.0472X0.0217*%
%ADD14R,0.0315X0.0315*%
%ADD15R,0.0394X0.0433*%
%ADD16R,0.0433X0.0394*%
%ADD17R,0.0800X0.0800*%
%ADD18C,0.0800*%
%ADD19OC8,0.0740*%
%ADD20C,0.0740*%
%ADD21R,0.0335X0.0669*%
%ADD22R,0.0760X0.2100*%
%ADD23C,0.0160*%
%ADD24C,0.0100*%
%ADD25C,0.0356*%
D10*
X000567Y000150D02*
X000567Y014046D01*
X014037Y014046D01*
X014037Y000150D01*
X000567Y000150D01*
X000837Y001050D02*
X000839Y001100D01*
X000845Y001150D01*
X000855Y001199D01*
X000869Y001247D01*
X000886Y001294D01*
X000907Y001339D01*
X000932Y001383D01*
X000960Y001424D01*
X000992Y001463D01*
X001026Y001500D01*
X001063Y001534D01*
X001103Y001564D01*
X001145Y001591D01*
X001189Y001615D01*
X001235Y001636D01*
X001282Y001652D01*
X001330Y001665D01*
X001380Y001674D01*
X001429Y001679D01*
X001480Y001680D01*
X001530Y001677D01*
X001579Y001670D01*
X001628Y001659D01*
X001676Y001644D01*
X001722Y001626D01*
X001767Y001604D01*
X001810Y001578D01*
X001851Y001549D01*
X001890Y001517D01*
X001926Y001482D01*
X001958Y001444D01*
X001988Y001404D01*
X002015Y001361D01*
X002038Y001317D01*
X002057Y001271D01*
X002073Y001223D01*
X002085Y001174D01*
X002093Y001125D01*
X002097Y001075D01*
X002097Y001025D01*
X002093Y000975D01*
X002085Y000926D01*
X002073Y000877D01*
X002057Y000829D01*
X002038Y000783D01*
X002015Y000739D01*
X001988Y000696D01*
X001958Y000656D01*
X001926Y000618D01*
X001890Y000583D01*
X001851Y000551D01*
X001810Y000522D01*
X001767Y000496D01*
X001722Y000474D01*
X001676Y000456D01*
X001628Y000441D01*
X001579Y000430D01*
X001530Y000423D01*
X001480Y000420D01*
X001429Y000421D01*
X001380Y000426D01*
X001330Y000435D01*
X001282Y000448D01*
X001235Y000464D01*
X001189Y000485D01*
X001145Y000509D01*
X001103Y000536D01*
X001063Y000566D01*
X001026Y000600D01*
X000992Y000637D01*
X000960Y000676D01*
X000932Y000717D01*
X000907Y000761D01*
X000886Y000806D01*
X000869Y000853D01*
X000855Y000901D01*
X000845Y000950D01*
X000839Y001000D01*
X000837Y001050D01*
X000837Y013150D02*
X000839Y013200D01*
X000845Y013250D01*
X000855Y013299D01*
X000869Y013347D01*
X000886Y013394D01*
X000907Y013439D01*
X000932Y013483D01*
X000960Y013524D01*
X000992Y013563D01*
X001026Y013600D01*
X001063Y013634D01*
X001103Y013664D01*
X001145Y013691D01*
X001189Y013715D01*
X001235Y013736D01*
X001282Y013752D01*
X001330Y013765D01*
X001380Y013774D01*
X001429Y013779D01*
X001480Y013780D01*
X001530Y013777D01*
X001579Y013770D01*
X001628Y013759D01*
X001676Y013744D01*
X001722Y013726D01*
X001767Y013704D01*
X001810Y013678D01*
X001851Y013649D01*
X001890Y013617D01*
X001926Y013582D01*
X001958Y013544D01*
X001988Y013504D01*
X002015Y013461D01*
X002038Y013417D01*
X002057Y013371D01*
X002073Y013323D01*
X002085Y013274D01*
X002093Y013225D01*
X002097Y013175D01*
X002097Y013125D01*
X002093Y013075D01*
X002085Y013026D01*
X002073Y012977D01*
X002057Y012929D01*
X002038Y012883D01*
X002015Y012839D01*
X001988Y012796D01*
X001958Y012756D01*
X001926Y012718D01*
X001890Y012683D01*
X001851Y012651D01*
X001810Y012622D01*
X001767Y012596D01*
X001722Y012574D01*
X001676Y012556D01*
X001628Y012541D01*
X001579Y012530D01*
X001530Y012523D01*
X001480Y012520D01*
X001429Y012521D01*
X001380Y012526D01*
X001330Y012535D01*
X001282Y012548D01*
X001235Y012564D01*
X001189Y012585D01*
X001145Y012609D01*
X001103Y012636D01*
X001063Y012666D01*
X001026Y012700D01*
X000992Y012737D01*
X000960Y012776D01*
X000932Y012817D01*
X000907Y012861D01*
X000886Y012906D01*
X000869Y012953D01*
X000855Y013001D01*
X000845Y013050D01*
X000839Y013100D01*
X000837Y013150D01*
X012537Y013150D02*
X012539Y013200D01*
X012545Y013250D01*
X012555Y013299D01*
X012569Y013347D01*
X012586Y013394D01*
X012607Y013439D01*
X012632Y013483D01*
X012660Y013524D01*
X012692Y013563D01*
X012726Y013600D01*
X012763Y013634D01*
X012803Y013664D01*
X012845Y013691D01*
X012889Y013715D01*
X012935Y013736D01*
X012982Y013752D01*
X013030Y013765D01*
X013080Y013774D01*
X013129Y013779D01*
X013180Y013780D01*
X013230Y013777D01*
X013279Y013770D01*
X013328Y013759D01*
X013376Y013744D01*
X013422Y013726D01*
X013467Y013704D01*
X013510Y013678D01*
X013551Y013649D01*
X013590Y013617D01*
X013626Y013582D01*
X013658Y013544D01*
X013688Y013504D01*
X013715Y013461D01*
X013738Y013417D01*
X013757Y013371D01*
X013773Y013323D01*
X013785Y013274D01*
X013793Y013225D01*
X013797Y013175D01*
X013797Y013125D01*
X013793Y013075D01*
X013785Y013026D01*
X013773Y012977D01*
X013757Y012929D01*
X013738Y012883D01*
X013715Y012839D01*
X013688Y012796D01*
X013658Y012756D01*
X013626Y012718D01*
X013590Y012683D01*
X013551Y012651D01*
X013510Y012622D01*
X013467Y012596D01*
X013422Y012574D01*
X013376Y012556D01*
X013328Y012541D01*
X013279Y012530D01*
X013230Y012523D01*
X013180Y012520D01*
X013129Y012521D01*
X013080Y012526D01*
X013030Y012535D01*
X012982Y012548D01*
X012935Y012564D01*
X012889Y012585D01*
X012845Y012609D01*
X012803Y012636D01*
X012763Y012666D01*
X012726Y012700D01*
X012692Y012737D01*
X012660Y012776D01*
X012632Y012817D01*
X012607Y012861D01*
X012586Y012906D01*
X012569Y012953D01*
X012555Y013001D01*
X012545Y013050D01*
X012539Y013100D01*
X012537Y013150D01*
X012537Y001050D02*
X012539Y001100D01*
X012545Y001150D01*
X012555Y001199D01*
X012569Y001247D01*
X012586Y001294D01*
X012607Y001339D01*
X012632Y001383D01*
X012660Y001424D01*
X012692Y001463D01*
X012726Y001500D01*
X012763Y001534D01*
X012803Y001564D01*
X012845Y001591D01*
X012889Y001615D01*
X012935Y001636D01*
X012982Y001652D01*
X013030Y001665D01*
X013080Y001674D01*
X013129Y001679D01*
X013180Y001680D01*
X013230Y001677D01*
X013279Y001670D01*
X013328Y001659D01*
X013376Y001644D01*
X013422Y001626D01*
X013467Y001604D01*
X013510Y001578D01*
X013551Y001549D01*
X013590Y001517D01*
X013626Y001482D01*
X013658Y001444D01*
X013688Y001404D01*
X013715Y001361D01*
X013738Y001317D01*
X013757Y001271D01*
X013773Y001223D01*
X013785Y001174D01*
X013793Y001125D01*
X013797Y001075D01*
X013797Y001025D01*
X013793Y000975D01*
X013785Y000926D01*
X013773Y000877D01*
X013757Y000829D01*
X013738Y000783D01*
X013715Y000739D01*
X013688Y000696D01*
X013658Y000656D01*
X013626Y000618D01*
X013590Y000583D01*
X013551Y000551D01*
X013510Y000522D01*
X013467Y000496D01*
X013422Y000474D01*
X013376Y000456D01*
X013328Y000441D01*
X013279Y000430D01*
X013230Y000423D01*
X013180Y000420D01*
X013129Y000421D01*
X013080Y000426D01*
X013030Y000435D01*
X012982Y000448D01*
X012935Y000464D01*
X012889Y000485D01*
X012845Y000509D01*
X012803Y000536D01*
X012763Y000566D01*
X012726Y000600D01*
X012692Y000637D01*
X012660Y000676D01*
X012632Y000717D01*
X012607Y000761D01*
X012586Y000806D01*
X012569Y000853D01*
X012555Y000901D01*
X012545Y000950D01*
X012539Y001000D01*
X012537Y001050D01*
D11*
X008069Y004160D03*
X007754Y004160D03*
X007439Y004160D03*
X007124Y004160D03*
X006809Y004160D03*
X006494Y004160D03*
X006179Y004160D03*
X005864Y004160D03*
X005864Y007540D03*
X006179Y007540D03*
X006494Y007540D03*
X006809Y007540D03*
X007124Y007540D03*
X007439Y007540D03*
X007754Y007540D03*
X008069Y007540D03*
D12*
X008657Y006952D03*
X008657Y006637D03*
X008657Y006322D03*
X008657Y006007D03*
X008657Y005693D03*
X008657Y005378D03*
X008657Y005063D03*
X008657Y004748D03*
X005277Y004748D03*
X005277Y005063D03*
X005277Y005378D03*
X005277Y005693D03*
X005277Y006007D03*
X005277Y006322D03*
X005277Y006637D03*
X005277Y006952D03*
D13*
X012055Y007176D03*
X012055Y007924D03*
X013079Y007924D03*
X013079Y007550D03*
X013079Y007176D03*
X013079Y006324D03*
X013079Y005950D03*
X013079Y005576D03*
X012055Y005576D03*
X012055Y006324D03*
D14*
X002467Y010055D03*
X002467Y010645D03*
X001267Y010645D03*
X001267Y010055D03*
D15*
X001267Y009485D03*
X001267Y008815D03*
X002467Y008815D03*
X002467Y009485D03*
X003667Y004285D03*
X003667Y003615D03*
X003667Y002885D03*
X003667Y002215D03*
X008967Y003315D03*
X008967Y003985D03*
D16*
X007701Y008450D03*
X007032Y008450D03*
X011132Y008850D03*
X011801Y008850D03*
X012432Y008850D03*
X013101Y008850D03*
D17*
X011167Y012850D03*
D18*
X009789Y012850D03*
D19*
X010167Y003950D03*
X011167Y003950D03*
X012167Y003950D03*
X012167Y002950D03*
X011167Y002950D03*
X010167Y002950D03*
D20*
X007967Y011450D03*
X007967Y012450D03*
X007967Y013450D03*
X006967Y013450D03*
X006967Y012450D03*
X006967Y011450D03*
X005967Y011450D03*
X005967Y012450D03*
X005967Y013450D03*
X004967Y013450D03*
X004967Y012450D03*
X004967Y011450D03*
X003967Y011450D03*
X003967Y012450D03*
X003967Y013450D03*
X002967Y013450D03*
X002967Y012450D03*
X002967Y011450D03*
D21*
X004741Y010471D03*
X003954Y009290D03*
X005529Y009290D03*
X006316Y010471D03*
X007104Y009290D03*
X007891Y010471D03*
X008678Y009290D03*
X009466Y010471D03*
X010253Y009290D03*
X011041Y010471D03*
X011041Y001810D03*
X010253Y000629D03*
X009466Y001810D03*
X008678Y000629D03*
X007891Y001810D03*
X007104Y000629D03*
X006316Y001810D03*
X005529Y000629D03*
X004741Y001810D03*
X003954Y000629D03*
D22*
X001867Y003450D03*
X001867Y007250D03*
D23*
X011167Y011950D02*
X011167Y012850D01*
X011167Y011950D02*
X013567Y009550D01*
X013567Y008850D01*
X013101Y008850D01*
X013101Y008815D01*
X013567Y008850D02*
X013567Y007650D01*
X013367Y007550D01*
X013079Y007550D01*
D24*
X013083Y007180D02*
X013465Y007180D01*
X013465Y007304D01*
X013455Y007342D01*
X013444Y007360D01*
X013445Y007360D01*
X013479Y007394D01*
X013612Y007460D01*
X013645Y007460D01*
X013679Y007494D01*
X013722Y007515D01*
X013733Y007547D01*
X013757Y007571D01*
X013757Y007619D01*
X013772Y007665D01*
X013757Y007695D01*
X013757Y009629D01*
X013645Y009740D01*
X011357Y012029D01*
X011357Y012340D01*
X011612Y012340D01*
X011677Y012404D01*
X011677Y013296D01*
X011612Y013360D01*
X010721Y013360D01*
X010657Y013296D01*
X010657Y012404D01*
X010721Y012340D01*
X010977Y012340D01*
X010977Y011871D01*
X011088Y011760D01*
X013377Y009471D01*
X013377Y009144D01*
X013363Y009157D01*
X012839Y009157D01*
X012788Y009106D01*
X012769Y009139D01*
X012741Y009167D01*
X012706Y009187D01*
X012668Y009197D01*
X012480Y009197D01*
X012480Y008898D01*
X012384Y008898D01*
X012384Y008802D01*
X011850Y008802D01*
X011850Y008898D01*
X012168Y008898D01*
X012384Y008898D01*
X012384Y009197D01*
X012196Y009197D01*
X012158Y009187D01*
X012123Y009167D01*
X012117Y009160D01*
X012110Y009167D01*
X012076Y009187D01*
X012038Y009197D01*
X011850Y009197D01*
X011850Y008898D01*
X011753Y008898D01*
X011753Y009197D01*
X011565Y009197D01*
X011527Y009187D01*
X011493Y009167D01*
X011465Y009139D01*
X011445Y009106D01*
X011394Y009157D01*
X011201Y009157D01*
X011201Y010027D01*
X011254Y010027D01*
X011318Y010091D01*
X011318Y010851D01*
X011254Y010916D01*
X010828Y010916D01*
X010763Y010851D01*
X010763Y010091D01*
X010828Y010027D01*
X010881Y010027D01*
X010881Y009157D01*
X010870Y009157D01*
X010805Y009092D01*
X010805Y008608D01*
X010870Y008543D01*
X010972Y008543D01*
X010972Y008318D01*
X011107Y008184D01*
X011200Y008090D01*
X011721Y008090D01*
X011709Y008078D01*
X011709Y007770D01*
X011773Y007706D01*
X012307Y007706D01*
X012307Y007394D01*
X011773Y007394D01*
X011709Y007330D01*
X011709Y007022D01*
X011773Y006958D01*
X012307Y006958D01*
X012307Y006542D01*
X011773Y006542D01*
X011737Y006506D01*
X009227Y009016D01*
X009227Y009683D01*
X009303Y009606D01*
X009227Y009606D01*
X009303Y009606D02*
X009409Y009562D01*
X009524Y009562D01*
X009630Y009606D01*
X009976Y009606D01*
X009976Y009670D02*
X009976Y008910D01*
X010040Y008846D01*
X010093Y008846D01*
X010093Y008823D01*
X010003Y008786D01*
X009922Y008705D01*
X009879Y008599D01*
X009879Y008484D01*
X009922Y008379D01*
X010003Y008298D01*
X010109Y008254D01*
X010224Y008254D01*
X010330Y008298D01*
X010411Y008379D01*
X010455Y008484D01*
X010455Y008599D01*
X010413Y008699D01*
X010413Y008846D01*
X010466Y008846D01*
X010531Y008910D01*
X010531Y009670D01*
X010466Y009735D01*
X010040Y009735D01*
X009976Y009670D01*
X010010Y009705D02*
X009718Y009705D01*
X009711Y009687D02*
X009755Y009793D01*
X009755Y009907D01*
X009711Y010013D01*
X009688Y010036D01*
X009743Y010091D01*
X009743Y010851D01*
X009679Y010916D01*
X009253Y010916D01*
X009227Y010890D01*
X009227Y011493D01*
X009232Y011500D01*
X009227Y011558D01*
X009227Y011616D01*
X009220Y011623D01*
X009219Y011632D01*
X009174Y011669D01*
X009133Y011710D01*
X009124Y011710D01*
X008419Y012287D01*
X008447Y012355D01*
X008447Y012545D01*
X008374Y012722D01*
X008239Y012857D01*
X008062Y012930D01*
X007871Y012930D01*
X007695Y012857D01*
X007560Y012722D01*
X007513Y012610D01*
X007420Y012610D01*
X007374Y012722D01*
X007239Y012857D01*
X007062Y012930D01*
X006871Y012930D01*
X006695Y012857D01*
X006560Y012722D01*
X006513Y012610D01*
X006420Y012610D01*
X006374Y012722D01*
X006239Y012857D01*
X006062Y012930D01*
X005871Y012930D01*
X005695Y012857D01*
X005560Y012722D01*
X005513Y012610D01*
X005420Y012610D01*
X005374Y012722D01*
X005239Y012857D01*
X005062Y012930D01*
X004871Y012930D01*
X004695Y012857D01*
X004560Y012722D01*
X004513Y012610D01*
X004420Y012610D01*
X004374Y012722D01*
X004239Y012857D01*
X004062Y012930D01*
X003871Y012930D01*
X003695Y012857D01*
X003560Y012722D01*
X003513Y012610D01*
X003420Y012610D01*
X003374Y012722D01*
X003239Y012857D01*
X003062Y012930D01*
X002871Y012930D01*
X002695Y012857D01*
X002560Y012722D01*
X002487Y012545D01*
X002487Y012355D01*
X002533Y012243D01*
X001203Y010913D01*
X001064Y010913D01*
X000999Y010848D01*
X000999Y010442D01*
X001064Y010378D01*
X001470Y010378D01*
X001534Y010442D01*
X001534Y010489D01*
X001573Y010490D01*
X001700Y010490D01*
X001707Y010484D01*
X001707Y008884D01*
X001800Y008790D01*
X001800Y008790D01*
X001935Y008655D01*
X002160Y008655D01*
X002160Y008553D01*
X002224Y008489D01*
X002709Y008489D01*
X002774Y008553D01*
X002774Y009077D01*
X002709Y009142D01*
X002224Y009142D01*
X002160Y009077D01*
X002160Y008975D01*
X002068Y008975D01*
X002027Y009016D01*
X002027Y010616D01*
X001833Y010810D01*
X001636Y010810D01*
X001635Y010811D01*
X001570Y010810D01*
X001553Y010810D01*
X002759Y012016D01*
X002871Y011970D01*
X002713Y011970D01*
X002730Y011872D02*
X002614Y011872D01*
X002695Y011857D02*
X002560Y011722D01*
X002487Y011545D01*
X002487Y011355D01*
X002560Y011178D01*
X002695Y011043D01*
X002871Y010970D01*
X003062Y010970D01*
X003239Y011043D01*
X003374Y011178D01*
X003447Y011355D01*
X003447Y011545D01*
X003374Y011722D01*
X003239Y011857D01*
X003062Y011930D01*
X002871Y011930D01*
X002695Y011857D01*
X002611Y011773D02*
X002516Y011773D01*
X002540Y011675D02*
X002417Y011675D01*
X002499Y011576D02*
X002319Y011576D01*
X002220Y011478D02*
X002487Y011478D01*
X002487Y011379D02*
X002122Y011379D01*
X002023Y011281D02*
X002517Y011281D01*
X002558Y011182D02*
X001925Y011182D01*
X001826Y011084D02*
X002654Y011084D01*
X002670Y010913D02*
X002264Y010913D01*
X002199Y010848D01*
X002199Y010442D01*
X002264Y010378D01*
X002670Y010378D01*
X002734Y010442D01*
X002734Y010490D01*
X003506Y010490D01*
X004357Y009734D01*
X004400Y009690D01*
X004406Y009690D01*
X004410Y009686D01*
X004471Y009690D01*
X005271Y009690D01*
X005252Y009670D01*
X005252Y008910D01*
X005316Y008846D01*
X005742Y008846D01*
X005806Y008910D01*
X005806Y009670D01*
X005787Y009690D01*
X006080Y009690D01*
X006122Y009587D01*
X006203Y009506D01*
X006207Y009504D01*
X006207Y008216D01*
X006027Y008036D01*
X006027Y008104D01*
X006030Y008106D01*
X006111Y008187D01*
X006155Y008293D01*
X006155Y008407D01*
X006111Y008513D01*
X006030Y008594D01*
X005924Y008638D01*
X005809Y008638D01*
X005703Y008594D01*
X005622Y008513D01*
X005579Y008407D01*
X005579Y008293D01*
X005622Y008187D01*
X005703Y008106D01*
X005707Y008104D01*
X005707Y007898D01*
X005644Y007836D01*
X005644Y007244D01*
X005709Y007180D01*
X006020Y007180D01*
X006022Y007182D01*
X006024Y007180D01*
X006335Y007180D01*
X006337Y007182D01*
X006339Y007180D01*
X006597Y007180D01*
X006607Y007170D01*
X006641Y007150D01*
X006679Y007140D01*
X006804Y007140D01*
X006804Y007535D01*
X006814Y007535D01*
X006814Y007140D01*
X006939Y007140D01*
X006964Y007147D01*
X006964Y007126D01*
X007107Y006984D01*
X007200Y006890D01*
X007594Y006890D01*
X007594Y005830D01*
X007530Y005894D01*
X007424Y005938D01*
X007309Y005938D01*
X007203Y005894D01*
X007122Y005813D01*
X007079Y005707D01*
X007079Y005593D01*
X007080Y005589D01*
X007028Y005538D01*
X006204Y005538D01*
X006230Y005548D01*
X006311Y005629D01*
X006355Y005735D01*
X006355Y005850D01*
X006311Y005956D01*
X006230Y006037D01*
X006124Y006081D01*
X006009Y006081D01*
X005903Y006037D01*
X005822Y005956D01*
X005780Y005853D01*
X005637Y005853D01*
X005637Y006163D01*
X005635Y006165D01*
X005637Y006167D01*
X005637Y006478D01*
X005635Y006480D01*
X005637Y006482D01*
X005637Y006793D01*
X005635Y006795D01*
X005637Y006797D01*
X005637Y007108D01*
X005572Y007172D01*
X005296Y007172D01*
X005311Y007187D01*
X005355Y007293D01*
X005355Y007407D01*
X005311Y007513D01*
X005230Y007594D01*
X005124Y007638D01*
X005009Y007638D01*
X004903Y007594D01*
X004822Y007513D01*
X004779Y007407D01*
X004779Y007293D01*
X004822Y007187D01*
X004903Y007106D01*
X004917Y007100D01*
X004917Y006797D01*
X004855Y006797D01*
X004855Y006807D01*
X004811Y006913D01*
X004730Y006994D01*
X004624Y007038D01*
X004509Y007038D01*
X004403Y006994D01*
X004322Y006913D01*
X004279Y006807D01*
X004279Y006693D01*
X004322Y006587D01*
X004403Y006506D01*
X004460Y006482D01*
X004355Y006482D01*
X004355Y006507D01*
X004311Y006613D01*
X004230Y006694D01*
X004124Y006738D01*
X004009Y006738D01*
X003903Y006694D01*
X003822Y006613D01*
X003779Y006507D01*
X003779Y006393D01*
X003822Y006287D01*
X003903Y006206D01*
X003996Y006167D01*
X003855Y006167D01*
X003855Y006207D01*
X003811Y006313D01*
X003730Y006394D01*
X003624Y006438D01*
X003509Y006438D01*
X003403Y006394D01*
X003322Y006313D01*
X003279Y006207D01*
X003279Y006093D01*
X003322Y005987D01*
X003403Y005906D01*
X003509Y005862D01*
X003624Y005862D01*
X003627Y005863D01*
X003643Y005847D01*
X004917Y005847D01*
X004917Y005537D01*
X004919Y005535D01*
X004917Y005533D01*
X004917Y005222D01*
X004919Y005220D01*
X004917Y005218D01*
X004917Y004907D01*
X004919Y004905D01*
X004917Y004903D01*
X004917Y004592D01*
X004981Y004528D01*
X005572Y004528D01*
X005637Y004592D01*
X005637Y004903D01*
X007211Y004903D01*
X007309Y004862D01*
X007424Y004862D01*
X007472Y004882D01*
X007400Y004810D01*
X006900Y004810D01*
X006807Y004716D01*
X006649Y004559D01*
X006649Y004553D01*
X006624Y004560D01*
X006499Y004560D01*
X006499Y004165D01*
X006489Y004165D01*
X006489Y004560D01*
X006364Y004560D01*
X006326Y004550D01*
X006292Y004530D01*
X006282Y004520D01*
X006024Y004520D01*
X006022Y004518D01*
X006020Y004520D01*
X005709Y004520D01*
X005644Y004456D01*
X005644Y003864D01*
X005709Y003800D01*
X006020Y003800D01*
X006022Y003802D01*
X006024Y003800D01*
X006282Y003800D01*
X006292Y003790D01*
X006326Y003770D01*
X006364Y003760D01*
X006489Y003760D01*
X006489Y004155D01*
X006499Y004155D01*
X006499Y003760D01*
X006624Y003760D01*
X006662Y003770D01*
X006696Y003790D01*
X006706Y003800D01*
X006912Y003800D01*
X006922Y003790D01*
X006956Y003770D01*
X006994Y003760D01*
X007119Y003760D01*
X007119Y004155D01*
X007129Y004155D01*
X007129Y003760D01*
X007254Y003760D01*
X007292Y003770D01*
X007326Y003790D01*
X007336Y003800D01*
X007490Y003800D01*
X007400Y003710D01*
X003974Y003710D01*
X003974Y003877D01*
X003922Y003929D01*
X003956Y003948D01*
X003984Y003976D01*
X004003Y004010D01*
X004014Y004048D01*
X004014Y004236D01*
X003715Y004236D01*
X003715Y004333D01*
X003618Y004333D01*
X003618Y004236D01*
X003320Y004236D01*
X003320Y004048D01*
X003330Y004010D01*
X003350Y003976D01*
X003378Y003948D01*
X003411Y003929D01*
X003360Y003877D01*
X003360Y003783D01*
X002827Y004316D01*
X002827Y007016D01*
X002733Y007110D01*
X002527Y007316D01*
X002433Y007410D01*
X002357Y007410D01*
X002357Y008346D01*
X002292Y008410D01*
X001441Y008410D01*
X001377Y008346D01*
X001377Y006154D01*
X001441Y006090D01*
X002292Y006090D01*
X002357Y006154D01*
X002357Y007034D01*
X002507Y006884D01*
X002507Y004184D01*
X003207Y003484D01*
X003300Y003390D01*
X003360Y003390D01*
X003360Y003353D01*
X003424Y003289D01*
X003909Y003289D01*
X003974Y003353D01*
X003974Y003390D01*
X007533Y003390D01*
X007627Y003484D01*
X007909Y003766D01*
X007909Y003619D01*
X007335Y003045D01*
X003974Y003045D01*
X003974Y003147D01*
X003909Y003211D01*
X003424Y003211D01*
X003360Y003147D01*
X003360Y003045D01*
X002357Y003045D01*
X002357Y004546D01*
X002292Y004610D01*
X001441Y004610D01*
X001377Y004546D01*
X001377Y002354D01*
X001441Y002290D01*
X002292Y002290D01*
X002357Y002354D01*
X002357Y002725D01*
X003360Y002725D01*
X003360Y002623D01*
X003411Y002571D01*
X003378Y002552D01*
X003350Y002524D01*
X003330Y002490D01*
X003320Y002452D01*
X003320Y002264D01*
X003618Y002264D01*
X003618Y002167D01*
X003320Y002167D01*
X003320Y001979D01*
X003330Y001941D01*
X003350Y001907D01*
X003378Y001879D01*
X003412Y001859D01*
X003450Y001849D01*
X003618Y001849D01*
X003618Y002167D01*
X003715Y002167D01*
X003715Y001849D01*
X003883Y001849D01*
X003921Y001859D01*
X003956Y001879D01*
X003984Y001907D01*
X004003Y001941D01*
X004014Y001979D01*
X004014Y002167D01*
X003715Y002167D01*
X003715Y002264D01*
X004014Y002264D01*
X004014Y002452D01*
X004003Y002490D01*
X003984Y002524D01*
X003956Y002552D01*
X003922Y002571D01*
X003974Y002623D01*
X003974Y002725D01*
X007468Y002725D01*
X007561Y002818D01*
X008229Y003486D01*
X008229Y003804D01*
X008289Y003864D01*
X008289Y004456D01*
X008225Y004520D01*
X007913Y004520D01*
X007912Y004518D01*
X007910Y004520D01*
X007627Y004520D01*
X007627Y004584D01*
X007820Y004777D01*
X007914Y004871D01*
X007914Y007180D01*
X008225Y007180D01*
X008289Y007244D01*
X008289Y007746D01*
X008306Y007763D01*
X008309Y007762D01*
X008424Y007762D01*
X008530Y007806D01*
X008611Y007887D01*
X008655Y007993D01*
X008655Y008107D01*
X008611Y008213D01*
X008530Y008294D01*
X008424Y008338D01*
X008309Y008338D01*
X008203Y008294D01*
X008122Y008213D01*
X008079Y008107D01*
X008079Y007993D01*
X008080Y007989D01*
X008000Y007909D01*
X007999Y007909D01*
X007990Y007900D01*
X007914Y007900D01*
X007914Y008143D01*
X007963Y008143D01*
X008028Y008208D01*
X008028Y008390D01*
X008733Y008390D01*
X009067Y008724D01*
X011507Y006284D01*
X011507Y004289D01*
X011365Y004430D01*
X010968Y004430D01*
X010827Y004289D01*
X010827Y004916D01*
X009017Y006726D01*
X009017Y006792D01*
X009820Y006792D01*
X009822Y006787D01*
X009903Y006706D01*
X010009Y006662D01*
X010124Y006662D01*
X010230Y006706D01*
X010311Y006787D01*
X010355Y006893D01*
X010355Y007007D01*
X010311Y007113D01*
X010230Y007194D01*
X010124Y007238D01*
X010009Y007238D01*
X009903Y007194D01*
X009822Y007113D01*
X009822Y007112D01*
X009012Y007112D01*
X008952Y007172D01*
X008361Y007172D01*
X008297Y007108D01*
X008297Y006797D01*
X008299Y006795D01*
X008297Y006793D01*
X008297Y006482D01*
X008299Y006480D01*
X008297Y006478D01*
X008297Y006167D01*
X008299Y006165D01*
X008297Y006163D01*
X008297Y005852D01*
X008299Y005850D01*
X008297Y005848D01*
X008297Y005537D01*
X008299Y005535D01*
X008297Y005533D01*
X008297Y005222D01*
X008299Y005220D01*
X008297Y005218D01*
X008297Y004907D01*
X008299Y004905D01*
X008297Y004903D01*
X008297Y004592D01*
X008361Y004528D01*
X008952Y004528D01*
X009017Y004592D01*
X009017Y004903D01*
X009015Y004905D01*
X009017Y004907D01*
X009017Y005218D01*
X009015Y005220D01*
X009017Y005222D01*
X009017Y005533D01*
X009015Y005535D01*
X009017Y005537D01*
X009017Y005848D01*
X009015Y005850D01*
X009017Y005852D01*
X009017Y006163D01*
X009015Y006165D01*
X009017Y006167D01*
X009017Y006274D01*
X010507Y004784D01*
X010507Y004289D01*
X010365Y004430D01*
X009968Y004430D01*
X009687Y004149D01*
X009687Y004110D01*
X009274Y004110D01*
X009274Y004247D01*
X009209Y004311D01*
X008724Y004311D01*
X008660Y004247D01*
X008660Y003723D01*
X008724Y003658D01*
X009209Y003658D01*
X009274Y003723D01*
X009274Y003790D01*
X009687Y003790D01*
X009687Y003751D01*
X009968Y003470D01*
X010365Y003470D01*
X010507Y003611D01*
X010507Y003384D01*
X010714Y003176D01*
X010687Y003149D01*
X010687Y002751D01*
X010928Y002510D01*
X010462Y002510D01*
X010687Y002735D01*
X010687Y002900D01*
X010217Y002900D01*
X010217Y003000D01*
X010687Y003000D01*
X010687Y003165D01*
X010382Y003470D01*
X010217Y003470D01*
X010217Y003000D01*
X010117Y003000D01*
X010117Y003470D01*
X009951Y003470D01*
X009647Y003165D01*
X009647Y003000D01*
X010117Y003000D01*
X010117Y002900D01*
X009647Y002900D01*
X009647Y002735D01*
X009871Y002510D01*
X009733Y002510D01*
X009232Y003011D01*
X009274Y003053D01*
X009274Y003577D01*
X009209Y003642D01*
X008724Y003642D01*
X008660Y003577D01*
X008660Y003053D01*
X008724Y002989D01*
X008807Y002989D01*
X008807Y002984D01*
X009507Y002284D01*
X009536Y002254D01*
X009253Y002254D01*
X009189Y002190D01*
X009189Y001430D01*
X009253Y001365D01*
X009679Y001365D01*
X009743Y001430D01*
X009743Y002190D01*
X010763Y002190D01*
X010763Y001430D01*
X010828Y001365D01*
X011254Y001365D01*
X011318Y001430D01*
X011318Y002190D01*
X011633Y002190D01*
X011940Y002497D01*
X011968Y002470D01*
X012365Y002470D01*
X012647Y002751D01*
X012647Y003149D01*
X012365Y003430D01*
X011968Y003430D01*
X011940Y003403D01*
X011827Y003516D01*
X011827Y003611D01*
X011968Y003470D01*
X012365Y003470D01*
X012647Y003751D01*
X012647Y004149D01*
X012365Y004430D01*
X011968Y004430D01*
X011827Y004289D01*
X011827Y005084D01*
X011833Y005090D01*
X012633Y005090D01*
X012727Y005184D01*
X012827Y005284D01*
X012827Y005358D01*
X013360Y005358D01*
X013425Y005422D01*
X013425Y005730D01*
X013420Y005735D01*
X013435Y005750D01*
X013455Y005784D01*
X013465Y005822D01*
X013465Y005946D01*
X013083Y005946D01*
X013083Y005954D01*
X013465Y005954D01*
X013465Y006078D01*
X013455Y006116D01*
X013435Y006150D01*
X013420Y006165D01*
X013425Y006170D01*
X013425Y006478D01*
X013360Y006542D01*
X012827Y006542D01*
X012827Y006918D01*
X013074Y006918D01*
X013074Y007172D01*
X013083Y007172D01*
X013083Y007180D01*
X013083Y007172D02*
X013465Y007172D01*
X013465Y007048D01*
X013455Y007010D01*
X013435Y006976D01*
X013407Y006948D01*
X013373Y006928D01*
X013334Y006918D01*
X013083Y006918D01*
X013083Y007172D01*
X013083Y007144D02*
X013074Y007144D01*
X013074Y007045D02*
X013083Y007045D01*
X013074Y006947D02*
X013083Y006947D01*
X012827Y006848D02*
X013887Y006848D01*
X013887Y006750D02*
X012827Y006750D01*
X012827Y006651D02*
X013887Y006651D01*
X013887Y006553D02*
X012827Y006553D01*
X012667Y006350D02*
X013053Y006350D01*
X013079Y006324D01*
X012667Y006350D02*
X012667Y005550D01*
X013053Y005550D01*
X013079Y005576D01*
X012815Y005272D02*
X013887Y005272D01*
X013887Y005174D02*
X012716Y005174D01*
X012727Y005184D02*
X012727Y005184D01*
X012567Y005250D02*
X012667Y005350D01*
X012667Y005550D01*
X012467Y005650D02*
X012293Y005576D01*
X012055Y005576D01*
X011827Y005794D02*
X011827Y006106D01*
X012307Y006106D01*
X012307Y005794D01*
X011827Y005794D01*
X011827Y005863D02*
X012307Y005863D01*
X012307Y005962D02*
X011827Y005962D01*
X011827Y006060D02*
X012307Y006060D01*
X012467Y005650D02*
X012467Y008150D01*
X012367Y008250D01*
X011267Y008250D01*
X011132Y008385D01*
X011132Y008850D01*
X011041Y009041D01*
X011041Y010471D01*
X011318Y010493D02*
X012355Y010493D01*
X012257Y010591D02*
X011318Y010591D01*
X011318Y010690D02*
X012158Y010690D01*
X012060Y010788D02*
X011318Y010788D01*
X011283Y010887D02*
X011961Y010887D01*
X011863Y010985D02*
X009227Y010985D01*
X009227Y011084D02*
X011764Y011084D01*
X011666Y011182D02*
X009227Y011182D01*
X009227Y011281D02*
X011567Y011281D01*
X011469Y011379D02*
X009227Y011379D01*
X009227Y011478D02*
X011370Y011478D01*
X011272Y011576D02*
X009227Y011576D01*
X009168Y011675D02*
X011173Y011675D01*
X011075Y011773D02*
X009047Y011773D01*
X008926Y011872D02*
X010977Y011872D01*
X010977Y011970D02*
X008806Y011970D01*
X008686Y012069D02*
X010977Y012069D01*
X010977Y012167D02*
X008565Y012167D01*
X008445Y012266D02*
X010977Y012266D01*
X010697Y012364D02*
X010046Y012364D01*
X010077Y012380D02*
X010147Y012430D01*
X010208Y012492D01*
X010259Y012562D01*
X010298Y012639D01*
X010325Y012721D01*
X010338Y012800D01*
X009839Y012800D01*
X009839Y012900D01*
X010338Y012900D01*
X010325Y012979D01*
X010298Y013061D01*
X010259Y013138D01*
X010208Y013208D01*
X010147Y013270D01*
X010077Y013320D01*
X010000Y013360D01*
X009918Y013386D01*
X009839Y013399D01*
X009839Y012900D01*
X009739Y012900D01*
X009739Y013399D01*
X009660Y013386D01*
X009578Y013360D01*
X009500Y013320D01*
X009430Y013270D01*
X009369Y013208D01*
X009318Y013138D01*
X009279Y013061D01*
X009252Y012979D01*
X009240Y012900D01*
X009739Y012900D01*
X009739Y012800D01*
X009839Y012800D01*
X009839Y012301D01*
X009918Y012314D01*
X010000Y012340D01*
X010077Y012380D01*
X010179Y012463D02*
X010657Y012463D01*
X010657Y012561D02*
X010259Y012561D01*
X010305Y012660D02*
X010657Y012660D01*
X010657Y012758D02*
X010331Y012758D01*
X010329Y012955D02*
X010657Y012955D01*
X010657Y012857D02*
X009839Y012857D01*
X009839Y012955D02*
X009739Y012955D01*
X009739Y012857D02*
X008239Y012857D01*
X008166Y012968D02*
X008239Y013005D01*
X008305Y013053D01*
X008363Y013111D01*
X008411Y013177D01*
X008449Y013250D01*
X008474Y013328D01*
X008485Y013400D01*
X008017Y013400D01*
X008017Y013500D01*
X008485Y013500D01*
X008474Y013572D01*
X008449Y013650D01*
X008411Y013723D01*
X008363Y013789D01*
X008305Y013847D01*
X008239Y013895D01*
X008237Y013896D01*
X012930Y013896D01*
X012725Y013811D01*
X012505Y013592D01*
X012387Y013305D01*
X012387Y012995D01*
X012505Y012708D01*
X012725Y012489D01*
X013012Y012370D01*
X013322Y012370D01*
X013608Y012489D01*
X013828Y012708D01*
X013887Y012850D01*
X013887Y001350D01*
X013828Y001492D01*
X013608Y001711D01*
X013322Y001830D01*
X013012Y001830D01*
X012725Y001711D01*
X012505Y001492D01*
X012387Y001205D01*
X012387Y000895D01*
X012505Y000608D01*
X012725Y000389D01*
X012939Y000300D01*
X010531Y000300D01*
X010531Y001009D01*
X010466Y001073D01*
X010040Y001073D01*
X009976Y001009D01*
X009976Y000300D01*
X008956Y000300D01*
X008956Y001009D01*
X008891Y001073D01*
X008466Y001073D01*
X008401Y001009D01*
X008401Y000300D01*
X007381Y000300D01*
X007381Y001009D01*
X007317Y001073D01*
X006891Y001073D01*
X006826Y001009D01*
X006826Y000300D01*
X005806Y000300D01*
X005806Y001009D01*
X005742Y001073D01*
X005316Y001073D01*
X005252Y001009D01*
X005252Y000300D01*
X004231Y000300D01*
X004231Y001009D01*
X004167Y001073D01*
X003741Y001073D01*
X003677Y001009D01*
X003677Y000300D01*
X001694Y000300D01*
X001908Y000389D01*
X002128Y000608D01*
X002247Y000895D01*
X002247Y001205D01*
X002128Y001492D01*
X001908Y001711D01*
X001622Y001830D01*
X001312Y001830D01*
X001025Y001711D01*
X000805Y001492D01*
X000717Y001277D01*
X000717Y012923D01*
X000805Y012708D01*
X001025Y012489D01*
X001312Y012370D01*
X001622Y012370D01*
X001908Y012489D01*
X002128Y012708D01*
X002247Y012995D01*
X002247Y013305D01*
X002128Y013592D01*
X001908Y013811D01*
X001704Y013896D01*
X002697Y013896D01*
X002694Y013895D01*
X002628Y013847D01*
X002570Y013789D01*
X002522Y013723D01*
X002485Y013650D01*
X002459Y013572D01*
X002448Y013500D01*
X002917Y013500D01*
X002917Y013400D01*
X003017Y013400D01*
X003017Y012931D01*
X003088Y012943D01*
X003166Y012968D01*
X003239Y013005D01*
X003305Y013053D01*
X003363Y013111D01*
X003411Y013177D01*
X003449Y013250D01*
X003467Y013306D01*
X003485Y013250D01*
X003522Y013177D01*
X003570Y013111D01*
X003628Y013053D01*
X003694Y013005D01*
X003767Y012968D01*
X003845Y012943D01*
X003917Y012931D01*
X003917Y013400D01*
X004017Y013400D01*
X004017Y012931D01*
X004088Y012943D01*
X004166Y012968D01*
X004239Y013005D01*
X004305Y013053D01*
X004363Y013111D01*
X004411Y013177D01*
X004449Y013250D01*
X004467Y013306D01*
X004485Y013250D01*
X004522Y013177D01*
X004570Y013111D01*
X004628Y013053D01*
X004694Y013005D01*
X004767Y012968D01*
X004845Y012943D01*
X004917Y012931D01*
X004917Y013400D01*
X005017Y013400D01*
X005017Y012931D01*
X005088Y012943D01*
X005166Y012968D01*
X005239Y013005D01*
X005305Y013053D01*
X005363Y013111D01*
X005411Y013177D01*
X005449Y013250D01*
X005467Y013306D01*
X005485Y013250D01*
X005522Y013177D01*
X005570Y013111D01*
X005628Y013053D01*
X005694Y013005D01*
X005767Y012968D01*
X005845Y012943D01*
X005917Y012931D01*
X005917Y013400D01*
X006017Y013400D01*
X006017Y012931D01*
X006088Y012943D01*
X006166Y012968D01*
X006239Y013005D01*
X006305Y013053D01*
X006363Y013111D01*
X006411Y013177D01*
X006449Y013250D01*
X006467Y013306D01*
X006485Y013250D01*
X006522Y013177D01*
X006570Y013111D01*
X006628Y013053D01*
X006694Y013005D01*
X006767Y012968D01*
X006845Y012943D01*
X006917Y012931D01*
X006917Y013400D01*
X007017Y013400D01*
X007017Y012931D01*
X007088Y012943D01*
X007166Y012968D01*
X007239Y013005D01*
X007305Y013053D01*
X007363Y013111D01*
X007411Y013177D01*
X007449Y013250D01*
X007467Y013306D01*
X007485Y013250D01*
X007522Y013177D01*
X007570Y013111D01*
X007628Y013053D01*
X007694Y013005D01*
X007767Y012968D01*
X007845Y012943D01*
X007917Y012931D01*
X007917Y013400D01*
X008017Y013400D01*
X008017Y012931D01*
X008088Y012943D01*
X008166Y012968D01*
X008126Y012955D02*
X009248Y012955D01*
X009277Y013054D02*
X008306Y013054D01*
X008393Y013152D02*
X009328Y013152D01*
X009411Y013251D02*
X008449Y013251D01*
X008477Y013349D02*
X009557Y013349D01*
X009739Y013349D02*
X009839Y013349D01*
X009839Y013251D02*
X009739Y013251D01*
X009739Y013152D02*
X009839Y013152D01*
X009839Y013054D02*
X009739Y013054D01*
X009739Y012800D02*
X009240Y012800D01*
X009252Y012721D01*
X009279Y012639D01*
X009318Y012562D01*
X009369Y012492D01*
X009430Y012430D01*
X009500Y012380D01*
X009578Y012340D01*
X009660Y012314D01*
X009739Y012301D01*
X009739Y012800D01*
X009739Y012758D02*
X009839Y012758D01*
X009839Y012660D02*
X009739Y012660D01*
X009739Y012561D02*
X009839Y012561D01*
X009839Y012463D02*
X009739Y012463D01*
X009739Y012364D02*
X009839Y012364D01*
X009531Y012364D02*
X008447Y012364D01*
X008447Y012463D02*
X009398Y012463D01*
X009319Y012561D02*
X008440Y012561D01*
X008399Y012660D02*
X009272Y012660D01*
X009246Y012758D02*
X008337Y012758D01*
X008017Y012955D02*
X007917Y012955D01*
X007917Y013054D02*
X008017Y013054D01*
X008017Y013152D02*
X007917Y013152D01*
X007917Y013251D02*
X008017Y013251D01*
X008017Y013349D02*
X007917Y013349D01*
X008017Y013448D02*
X012446Y013448D01*
X012487Y013546D02*
X008478Y013546D01*
X008450Y013645D02*
X012558Y013645D01*
X012657Y013743D02*
X008397Y013743D01*
X008311Y013842D02*
X012798Y013842D01*
X012405Y013349D02*
X011623Y013349D01*
X011677Y013251D02*
X012387Y013251D01*
X012387Y013152D02*
X011677Y013152D01*
X011677Y013054D02*
X012387Y013054D01*
X012403Y012955D02*
X011677Y012955D01*
X011677Y012857D02*
X012444Y012857D01*
X012485Y012758D02*
X011677Y012758D01*
X011677Y012660D02*
X012554Y012660D01*
X012653Y012561D02*
X011677Y012561D01*
X011677Y012463D02*
X012788Y012463D01*
X013545Y012463D02*
X013887Y012463D01*
X013887Y012561D02*
X013681Y012561D01*
X013779Y012660D02*
X013887Y012660D01*
X013887Y012758D02*
X013848Y012758D01*
X013887Y012364D02*
X011636Y012364D01*
X011357Y012266D02*
X013887Y012266D01*
X013887Y012167D02*
X011357Y012167D01*
X011357Y012069D02*
X013887Y012069D01*
X013887Y011970D02*
X011415Y011970D01*
X011514Y011872D02*
X013887Y011872D01*
X013887Y011773D02*
X011612Y011773D01*
X011711Y011675D02*
X013887Y011675D01*
X013887Y011576D02*
X011809Y011576D01*
X011908Y011478D02*
X013887Y011478D01*
X013887Y011379D02*
X012006Y011379D01*
X012105Y011281D02*
X013887Y011281D01*
X013887Y011182D02*
X012203Y011182D01*
X012302Y011084D02*
X013887Y011084D01*
X013887Y010985D02*
X012400Y010985D01*
X012499Y010887D02*
X013887Y010887D01*
X013887Y010788D02*
X012597Y010788D01*
X012696Y010690D02*
X013887Y010690D01*
X013887Y010591D02*
X012794Y010591D01*
X012893Y010493D02*
X013887Y010493D01*
X013887Y010394D02*
X012991Y010394D01*
X013090Y010296D02*
X013887Y010296D01*
X013887Y010197D02*
X013188Y010197D01*
X013287Y010099D02*
X013887Y010099D01*
X013887Y010000D02*
X013385Y010000D01*
X013484Y009902D02*
X013887Y009902D01*
X013887Y009803D02*
X013582Y009803D01*
X013681Y009705D02*
X013887Y009705D01*
X013887Y009606D02*
X013757Y009606D01*
X013757Y009508D02*
X013887Y009508D01*
X013887Y009409D02*
X013757Y009409D01*
X013757Y009311D02*
X013887Y009311D01*
X013887Y009212D02*
X013757Y009212D01*
X013757Y009114D02*
X013887Y009114D01*
X013887Y009015D02*
X013757Y009015D01*
X013757Y008917D02*
X013887Y008917D01*
X013887Y008818D02*
X013757Y008818D01*
X013757Y008720D02*
X013887Y008720D01*
X013887Y008621D02*
X013757Y008621D01*
X013757Y008523D02*
X013887Y008523D01*
X013887Y008424D02*
X013757Y008424D01*
X013757Y008326D02*
X013887Y008326D01*
X013887Y008227D02*
X013757Y008227D01*
X013757Y008129D02*
X013887Y008129D01*
X013887Y008030D02*
X013757Y008030D01*
X013757Y007932D02*
X013887Y007932D01*
X013887Y007833D02*
X013757Y007833D01*
X013757Y007735D02*
X013887Y007735D01*
X013887Y007636D02*
X013762Y007636D01*
X013729Y007538D02*
X013887Y007538D01*
X013887Y007439D02*
X013570Y007439D01*
X013455Y007341D02*
X013887Y007341D01*
X013887Y007242D02*
X013465Y007242D01*
X013465Y007144D02*
X013887Y007144D01*
X013887Y007045D02*
X013464Y007045D01*
X013405Y006947D02*
X013887Y006947D01*
X013887Y006454D02*
X013425Y006454D01*
X013425Y006356D02*
X013887Y006356D01*
X013887Y006257D02*
X013425Y006257D01*
X013427Y006159D02*
X013887Y006159D01*
X013887Y006060D02*
X013465Y006060D01*
X013465Y005962D02*
X013887Y005962D01*
X013887Y005863D02*
X013465Y005863D01*
X013443Y005765D02*
X013887Y005765D01*
X013887Y005666D02*
X013425Y005666D01*
X013425Y005568D02*
X013887Y005568D01*
X013887Y005469D02*
X013425Y005469D01*
X013373Y005371D02*
X013887Y005371D01*
X013887Y005075D02*
X011827Y005075D01*
X011827Y004977D02*
X013887Y004977D01*
X013887Y004878D02*
X011827Y004878D01*
X011827Y004780D02*
X013887Y004780D01*
X013887Y004681D02*
X011827Y004681D01*
X011827Y004583D02*
X013887Y004583D01*
X013887Y004484D02*
X011827Y004484D01*
X011827Y004386D02*
X011923Y004386D01*
X011507Y004386D02*
X011410Y004386D01*
X011507Y004484D02*
X010827Y004484D01*
X010827Y004386D02*
X010923Y004386D01*
X010827Y004583D02*
X011507Y004583D01*
X011507Y004681D02*
X010827Y004681D01*
X010827Y004780D02*
X011507Y004780D01*
X011507Y004878D02*
X010827Y004878D01*
X010766Y004977D02*
X011507Y004977D01*
X011507Y005075D02*
X010668Y005075D01*
X010569Y005174D02*
X011507Y005174D01*
X011507Y005272D02*
X010471Y005272D01*
X010372Y005371D02*
X011507Y005371D01*
X011507Y005469D02*
X010274Y005469D01*
X010175Y005568D02*
X011507Y005568D01*
X011507Y005666D02*
X010077Y005666D01*
X009978Y005765D02*
X011507Y005765D01*
X011507Y005863D02*
X009880Y005863D01*
X009781Y005962D02*
X011507Y005962D01*
X011507Y006060D02*
X009683Y006060D01*
X009584Y006159D02*
X011507Y006159D01*
X011507Y006257D02*
X009486Y006257D01*
X009387Y006356D02*
X011435Y006356D01*
X011336Y006454D02*
X009289Y006454D01*
X009190Y006553D02*
X011238Y006553D01*
X011139Y006651D02*
X009092Y006651D01*
X009017Y006750D02*
X009860Y006750D01*
X009964Y006952D02*
X010067Y006950D01*
X009964Y006952D02*
X008657Y006952D01*
X008657Y006637D02*
X008879Y006637D01*
X010667Y004850D01*
X010667Y003450D01*
X011167Y002950D01*
X010825Y002613D02*
X010565Y002613D01*
X010663Y002711D02*
X010727Y002711D01*
X010687Y002810D02*
X010687Y002810D01*
X010687Y002908D02*
X010217Y002908D01*
X010217Y003007D02*
X010117Y003007D01*
X010117Y003105D02*
X010217Y003105D01*
X010217Y003204D02*
X010117Y003204D01*
X010117Y003302D02*
X010217Y003302D01*
X010217Y003401D02*
X010117Y003401D01*
X009939Y003499D02*
X009274Y003499D01*
X009274Y003401D02*
X009882Y003401D01*
X009783Y003302D02*
X009274Y003302D01*
X009274Y003204D02*
X009685Y003204D01*
X009647Y003105D02*
X009274Y003105D01*
X009236Y003007D02*
X009647Y003007D01*
X009647Y002810D02*
X009433Y002810D01*
X009335Y002908D02*
X010117Y002908D01*
X009769Y002613D02*
X009630Y002613D01*
X009670Y002711D02*
X009532Y002711D01*
X009729Y002514D02*
X009867Y002514D01*
X009667Y002350D02*
X011567Y002350D01*
X012167Y002950D01*
X011667Y003450D01*
X011667Y005150D01*
X011767Y005250D01*
X012567Y005250D01*
X012410Y004386D02*
X013887Y004386D01*
X013887Y004287D02*
X012508Y004287D01*
X012607Y004189D02*
X013887Y004189D01*
X013887Y004090D02*
X012647Y004090D01*
X012647Y003992D02*
X013887Y003992D01*
X013887Y003893D02*
X012647Y003893D01*
X012647Y003795D02*
X013887Y003795D01*
X013887Y003696D02*
X012591Y003696D01*
X012493Y003598D02*
X013887Y003598D01*
X013887Y003499D02*
X012394Y003499D01*
X012395Y003401D02*
X013887Y003401D01*
X013887Y003302D02*
X012493Y003302D01*
X012592Y003204D02*
X013887Y003204D01*
X013887Y003105D02*
X012647Y003105D01*
X012647Y003007D02*
X013887Y003007D01*
X013887Y002908D02*
X012647Y002908D01*
X012647Y002810D02*
X013887Y002810D01*
X013887Y002711D02*
X012606Y002711D01*
X012508Y002613D02*
X013887Y002613D01*
X013887Y002514D02*
X012409Y002514D01*
X011858Y002416D02*
X013887Y002416D01*
X013887Y002317D02*
X011760Y002317D01*
X011661Y002219D02*
X013887Y002219D01*
X013887Y002120D02*
X011318Y002120D01*
X011318Y002022D02*
X013887Y002022D01*
X013887Y001923D02*
X011318Y001923D01*
X011318Y001825D02*
X012998Y001825D01*
X012761Y001726D02*
X011318Y001726D01*
X011318Y001628D02*
X012641Y001628D01*
X012543Y001529D02*
X011318Y001529D01*
X011318Y001431D02*
X012480Y001431D01*
X012439Y001332D02*
X002194Y001332D01*
X002153Y001431D02*
X004464Y001431D01*
X004464Y001430D02*
X004529Y001365D01*
X004954Y001365D01*
X005019Y001430D01*
X005019Y002190D01*
X004954Y002254D01*
X004529Y002254D01*
X004464Y002190D01*
X004464Y001430D01*
X004464Y001529D02*
X002091Y001529D01*
X001992Y001628D02*
X004464Y001628D01*
X004464Y001726D02*
X001873Y001726D01*
X001635Y001825D02*
X004464Y001825D01*
X004464Y001923D02*
X003993Y001923D01*
X004014Y002022D02*
X004464Y002022D01*
X004464Y002120D02*
X004014Y002120D01*
X004014Y002317D02*
X009473Y002317D01*
X009375Y002416D02*
X004014Y002416D01*
X003989Y002514D02*
X009276Y002514D01*
X009178Y002613D02*
X003963Y002613D01*
X003974Y002711D02*
X009079Y002711D01*
X008981Y002810D02*
X007552Y002810D01*
X007651Y002908D02*
X008882Y002908D01*
X008967Y003050D02*
X009667Y002350D01*
X009743Y002120D02*
X010763Y002120D01*
X010763Y002022D02*
X009743Y002022D01*
X009743Y001923D02*
X010763Y001923D01*
X010763Y001825D02*
X009743Y001825D01*
X009743Y001726D02*
X010763Y001726D01*
X010763Y001628D02*
X009743Y001628D01*
X009743Y001529D02*
X010763Y001529D01*
X010763Y001431D02*
X009743Y001431D01*
X010004Y001037D02*
X008928Y001037D01*
X008956Y000938D02*
X009976Y000938D01*
X009976Y000840D02*
X008956Y000840D01*
X008956Y000741D02*
X009976Y000741D01*
X009976Y000643D02*
X008956Y000643D01*
X008956Y000544D02*
X009976Y000544D01*
X009976Y000446D02*
X008956Y000446D01*
X008956Y000347D02*
X009976Y000347D01*
X010531Y000347D02*
X012826Y000347D01*
X012668Y000446D02*
X010531Y000446D01*
X010531Y000544D02*
X012570Y000544D01*
X012491Y000643D02*
X010531Y000643D01*
X010531Y000741D02*
X012450Y000741D01*
X012410Y000840D02*
X010531Y000840D01*
X010531Y000938D02*
X012387Y000938D01*
X012387Y001037D02*
X010503Y001037D01*
X009189Y001431D02*
X008168Y001431D01*
X008168Y001430D02*
X008104Y001365D01*
X007678Y001365D01*
X007614Y001430D01*
X007614Y002190D01*
X007678Y002254D01*
X008104Y002254D01*
X008168Y002190D01*
X008168Y001430D01*
X008168Y001529D02*
X009189Y001529D01*
X009189Y001628D02*
X008168Y001628D01*
X008168Y001726D02*
X009189Y001726D01*
X009189Y001825D02*
X008168Y001825D01*
X008168Y001923D02*
X009189Y001923D01*
X009189Y002022D02*
X008168Y002022D01*
X008168Y002120D02*
X009189Y002120D01*
X009217Y002219D02*
X008140Y002219D01*
X007642Y002219D02*
X006565Y002219D01*
X006594Y002190D02*
X006529Y002254D01*
X006103Y002254D01*
X006039Y002190D01*
X006039Y001430D01*
X006103Y001365D01*
X006529Y001365D01*
X006594Y001430D01*
X006594Y002190D01*
X006594Y002120D02*
X007614Y002120D01*
X007614Y002022D02*
X006594Y002022D01*
X006594Y001923D02*
X007614Y001923D01*
X007614Y001825D02*
X006594Y001825D01*
X006594Y001726D02*
X007614Y001726D01*
X007614Y001628D02*
X006594Y001628D01*
X006594Y001529D02*
X007614Y001529D01*
X007614Y001431D02*
X006594Y001431D01*
X006854Y001037D02*
X005779Y001037D01*
X005806Y000938D02*
X006826Y000938D01*
X006826Y000840D02*
X005806Y000840D01*
X005806Y000741D02*
X006826Y000741D01*
X006826Y000643D02*
X005806Y000643D01*
X005806Y000544D02*
X006826Y000544D01*
X006826Y000446D02*
X005806Y000446D01*
X005806Y000347D02*
X006826Y000347D01*
X007381Y000347D02*
X008401Y000347D01*
X008401Y000446D02*
X007381Y000446D01*
X007381Y000544D02*
X008401Y000544D01*
X008401Y000643D02*
X007381Y000643D01*
X007381Y000741D02*
X008401Y000741D01*
X008401Y000840D02*
X007381Y000840D01*
X007381Y000938D02*
X008401Y000938D01*
X008429Y001037D02*
X007353Y001037D01*
X006039Y001431D02*
X005019Y001431D01*
X005019Y001529D02*
X006039Y001529D01*
X006039Y001628D02*
X005019Y001628D01*
X005019Y001726D02*
X006039Y001726D01*
X006039Y001825D02*
X005019Y001825D01*
X005019Y001923D02*
X006039Y001923D01*
X006039Y002022D02*
X005019Y002022D01*
X005019Y002120D02*
X006039Y002120D01*
X006067Y002219D02*
X004990Y002219D01*
X004493Y002219D02*
X003715Y002219D01*
X003618Y002219D02*
X000717Y002219D01*
X000717Y002317D02*
X001414Y002317D01*
X001377Y002416D02*
X000717Y002416D01*
X000717Y002514D02*
X001377Y002514D01*
X001377Y002613D02*
X000717Y002613D01*
X000717Y002711D02*
X001377Y002711D01*
X001377Y002810D02*
X000717Y002810D01*
X000717Y002908D02*
X001377Y002908D01*
X001377Y003007D02*
X000717Y003007D01*
X000717Y003105D02*
X001377Y003105D01*
X001377Y003204D02*
X000717Y003204D01*
X000717Y003302D02*
X001377Y003302D01*
X001377Y003401D02*
X000717Y003401D01*
X000717Y003499D02*
X001377Y003499D01*
X001377Y003598D02*
X000717Y003598D01*
X000717Y003696D02*
X001377Y003696D01*
X001377Y003795D02*
X000717Y003795D01*
X000717Y003893D02*
X001377Y003893D01*
X001377Y003992D02*
X000717Y003992D01*
X000717Y004090D02*
X001377Y004090D01*
X001377Y004189D02*
X000717Y004189D01*
X000717Y004287D02*
X001377Y004287D01*
X001377Y004386D02*
X000717Y004386D01*
X000717Y004484D02*
X001377Y004484D01*
X001414Y004583D02*
X000717Y004583D01*
X000717Y004681D02*
X002507Y004681D01*
X002507Y004583D02*
X002320Y004583D01*
X002357Y004484D02*
X002507Y004484D01*
X002507Y004386D02*
X002357Y004386D01*
X002357Y004287D02*
X002507Y004287D01*
X002507Y004189D02*
X002357Y004189D01*
X002357Y004090D02*
X002600Y004090D01*
X002699Y003992D02*
X002357Y003992D01*
X002357Y003893D02*
X002797Y003893D01*
X002896Y003795D02*
X002357Y003795D01*
X002357Y003696D02*
X002994Y003696D01*
X003093Y003598D02*
X002357Y003598D01*
X002357Y003499D02*
X003191Y003499D01*
X003290Y003401D02*
X002357Y003401D01*
X002357Y003302D02*
X003411Y003302D01*
X003417Y003204D02*
X002357Y003204D01*
X002357Y003105D02*
X003360Y003105D01*
X003667Y002885D02*
X002032Y002885D01*
X001867Y003450D01*
X002357Y002711D02*
X003360Y002711D01*
X003370Y002613D02*
X002357Y002613D01*
X002357Y002514D02*
X003344Y002514D01*
X003320Y002416D02*
X002357Y002416D01*
X002319Y002317D02*
X003320Y002317D01*
X003320Y002120D02*
X000717Y002120D01*
X000717Y002022D02*
X003320Y002022D01*
X003340Y001923D02*
X000717Y001923D01*
X000717Y001825D02*
X001298Y001825D01*
X001061Y001726D02*
X000717Y001726D01*
X000717Y001628D02*
X000941Y001628D01*
X000843Y001529D02*
X000717Y001529D01*
X000717Y001431D02*
X000780Y001431D01*
X000739Y001332D02*
X000717Y001332D01*
X001808Y000347D02*
X003677Y000347D01*
X003677Y000446D02*
X001965Y000446D01*
X002064Y000544D02*
X003677Y000544D01*
X003677Y000643D02*
X002142Y000643D01*
X002183Y000741D02*
X003677Y000741D01*
X003677Y000840D02*
X002224Y000840D01*
X002247Y000938D02*
X003677Y000938D01*
X003704Y001037D02*
X002247Y001037D01*
X002247Y001135D02*
X012387Y001135D01*
X012398Y001234D02*
X002235Y001234D01*
X003618Y001923D02*
X003715Y001923D01*
X003715Y002022D02*
X003618Y002022D01*
X003618Y002120D02*
X003715Y002120D01*
X003667Y002885D02*
X007401Y002885D01*
X008069Y003552D01*
X008069Y004160D01*
X008289Y004189D02*
X008660Y004189D01*
X008660Y004090D02*
X008289Y004090D01*
X008289Y003992D02*
X008660Y003992D01*
X008660Y003893D02*
X008289Y003893D01*
X008229Y003795D02*
X008660Y003795D01*
X008686Y003696D02*
X008229Y003696D01*
X008229Y003598D02*
X008680Y003598D01*
X008660Y003499D02*
X008229Y003499D01*
X008143Y003401D02*
X008660Y003401D01*
X008660Y003302D02*
X008045Y003302D01*
X007946Y003204D02*
X008660Y003204D01*
X008660Y003105D02*
X007848Y003105D01*
X007749Y003007D02*
X008707Y003007D01*
X008967Y003050D02*
X008967Y003350D01*
X009001Y003350D01*
X008967Y003315D01*
X009253Y003598D02*
X009840Y003598D01*
X009742Y003696D02*
X009247Y003696D01*
X009001Y003950D02*
X010167Y003950D01*
X010493Y003598D02*
X010507Y003598D01*
X010507Y003499D02*
X010394Y003499D01*
X010452Y003401D02*
X010507Y003401D01*
X010550Y003302D02*
X010588Y003302D01*
X010649Y003204D02*
X010687Y003204D01*
X010687Y003105D02*
X010687Y003105D01*
X010687Y003007D02*
X010687Y003007D01*
X010466Y002514D02*
X010924Y002514D01*
X011844Y003499D02*
X011939Y003499D01*
X011840Y003598D02*
X011827Y003598D01*
X010507Y004386D02*
X010410Y004386D01*
X010507Y004484D02*
X008261Y004484D01*
X008289Y004386D02*
X009923Y004386D01*
X009825Y004287D02*
X009233Y004287D01*
X009274Y004189D02*
X009726Y004189D01*
X009001Y003950D02*
X008967Y003985D01*
X008700Y004287D02*
X008289Y004287D01*
X008306Y004583D02*
X007627Y004583D01*
X007724Y004681D02*
X008297Y004681D01*
X008297Y004780D02*
X007822Y004780D01*
X007820Y004777D02*
X007820Y004777D01*
X007914Y004878D02*
X008297Y004878D01*
X008297Y004977D02*
X007914Y004977D01*
X007914Y005075D02*
X008297Y005075D01*
X008297Y005174D02*
X007914Y005174D01*
X007914Y005272D02*
X008297Y005272D01*
X008297Y005371D02*
X007914Y005371D01*
X007914Y005469D02*
X008297Y005469D01*
X008297Y005568D02*
X007914Y005568D01*
X007914Y005666D02*
X008297Y005666D01*
X008297Y005765D02*
X007914Y005765D01*
X007914Y005863D02*
X008297Y005863D01*
X008297Y005962D02*
X007914Y005962D01*
X007914Y006060D02*
X008297Y006060D01*
X008297Y006159D02*
X007914Y006159D01*
X007914Y006257D02*
X008297Y006257D01*
X008297Y006356D02*
X007914Y006356D01*
X007914Y006454D02*
X008297Y006454D01*
X008297Y006553D02*
X007914Y006553D01*
X007914Y006651D02*
X008297Y006651D01*
X008297Y006750D02*
X007914Y006750D01*
X007914Y006848D02*
X008297Y006848D01*
X008297Y006947D02*
X007914Y006947D01*
X007914Y007045D02*
X008297Y007045D01*
X008332Y007144D02*
X007914Y007144D01*
X007754Y007050D02*
X007267Y007050D01*
X007124Y007193D01*
X007124Y007540D01*
X007021Y007900D02*
X007011Y007910D01*
X006977Y007930D01*
X006939Y007940D01*
X006814Y007940D01*
X006814Y007545D01*
X006804Y007545D01*
X006804Y007940D01*
X006679Y007940D01*
X006641Y007930D01*
X006607Y007910D01*
X006597Y007900D01*
X006343Y007900D01*
X006527Y008084D01*
X006527Y009504D01*
X006530Y009506D01*
X006611Y009587D01*
X006655Y009693D01*
X006655Y009807D01*
X006611Y009913D01*
X006530Y009994D01*
X006452Y010027D01*
X006529Y010027D01*
X006594Y010091D01*
X006594Y010851D01*
X006529Y010916D01*
X006103Y010916D01*
X006039Y010851D01*
X006039Y010091D01*
X006103Y010027D01*
X006282Y010027D01*
X006241Y010010D01*
X004527Y010010D01*
X003676Y010766D01*
X003633Y010810D01*
X003627Y010810D01*
X003623Y010814D01*
X003562Y010810D01*
X002734Y010810D01*
X002734Y010848D01*
X002670Y010913D01*
X002696Y010887D02*
X004499Y010887D01*
X004529Y010916D02*
X004464Y010851D01*
X004464Y010091D01*
X004529Y010027D01*
X004954Y010027D01*
X005019Y010091D01*
X005019Y010851D01*
X004954Y010916D01*
X004529Y010916D01*
X004464Y010788D02*
X003655Y010788D01*
X003763Y010690D02*
X004464Y010690D01*
X004464Y010591D02*
X003874Y010591D01*
X003985Y010493D02*
X004464Y010493D01*
X004464Y010394D02*
X004095Y010394D01*
X004206Y010296D02*
X004464Y010296D01*
X004464Y010197D02*
X004317Y010197D01*
X004428Y010099D02*
X004464Y010099D01*
X004467Y009850D02*
X003567Y010650D01*
X002567Y010650D01*
X002467Y010550D01*
X002467Y010645D01*
X002471Y010545D01*
X002686Y010394D02*
X003614Y010394D01*
X003725Y010296D02*
X002696Y010296D01*
X002670Y010322D02*
X002264Y010322D01*
X002199Y010258D01*
X002199Y009852D01*
X002240Y009811D01*
X002224Y009811D01*
X002160Y009747D01*
X002160Y009223D01*
X002224Y009158D01*
X002709Y009158D01*
X002774Y009223D01*
X002774Y009747D01*
X002709Y009811D01*
X002694Y009811D01*
X002734Y009852D01*
X002734Y010258D01*
X002670Y010322D01*
X002734Y010197D02*
X003835Y010197D01*
X003946Y010099D02*
X002734Y010099D01*
X002734Y010000D02*
X004057Y010000D01*
X004168Y009902D02*
X002734Y009902D01*
X002717Y009803D02*
X004279Y009803D01*
X004213Y009745D02*
X004179Y009765D01*
X004141Y009775D01*
X003988Y009775D01*
X003988Y009324D01*
X004271Y009324D01*
X004271Y009645D01*
X004261Y009683D01*
X004241Y009717D01*
X004213Y009745D01*
X004249Y009705D02*
X004386Y009705D01*
X004271Y009606D02*
X005252Y009606D01*
X005252Y009508D02*
X004271Y009508D01*
X004271Y009409D02*
X005252Y009409D01*
X005252Y009311D02*
X003988Y009311D01*
X003988Y009324D02*
X003988Y009256D01*
X003988Y008806D01*
X004141Y008806D01*
X004179Y008816D01*
X004213Y008835D01*
X004241Y008863D01*
X004261Y008898D01*
X004271Y008936D01*
X004271Y009256D01*
X003988Y009256D01*
X003920Y009256D01*
X003920Y008806D01*
X003767Y008806D01*
X003729Y008816D01*
X003695Y008835D01*
X003667Y008863D01*
X003647Y008898D01*
X003637Y008936D01*
X003637Y009256D01*
X003920Y009256D01*
X003920Y009324D01*
X003637Y009324D01*
X003637Y009645D01*
X003647Y009683D01*
X003667Y009717D01*
X003695Y009745D01*
X003729Y009765D01*
X003767Y009775D01*
X003920Y009775D01*
X003920Y009324D01*
X003988Y009324D01*
X003920Y009311D02*
X002774Y009311D01*
X002774Y009409D02*
X003637Y009409D01*
X003637Y009508D02*
X002774Y009508D01*
X002774Y009606D02*
X003637Y009606D01*
X003660Y009705D02*
X002774Y009705D01*
X002467Y009485D02*
X002467Y010055D01*
X002199Y010099D02*
X002027Y010099D01*
X002027Y010197D02*
X002199Y010197D01*
X002237Y010296D02*
X002027Y010296D01*
X002027Y010394D02*
X002247Y010394D01*
X002199Y010493D02*
X002027Y010493D01*
X002027Y010591D02*
X002199Y010591D01*
X002199Y010690D02*
X001953Y010690D01*
X001855Y010788D02*
X002199Y010788D01*
X002237Y010887D02*
X001629Y010887D01*
X001728Y010985D02*
X002835Y010985D01*
X003098Y010985D02*
X003835Y010985D01*
X003871Y010970D02*
X003695Y011043D01*
X003560Y011178D01*
X003487Y011355D01*
X003487Y011545D01*
X003560Y011722D01*
X003695Y011857D01*
X003871Y011930D01*
X004062Y011930D01*
X004239Y011857D01*
X004374Y011722D01*
X004447Y011545D01*
X004447Y011355D01*
X004374Y011178D01*
X004239Y011043D01*
X004062Y010970D01*
X003871Y010970D01*
X004098Y010985D02*
X004835Y010985D01*
X004871Y010970D02*
X005062Y010970D01*
X005239Y011043D01*
X005374Y011178D01*
X005447Y011355D01*
X005447Y011545D01*
X005374Y011722D01*
X005239Y011857D01*
X005062Y011930D01*
X004871Y011930D01*
X004695Y011857D01*
X004560Y011722D01*
X004487Y011545D01*
X004487Y011355D01*
X004560Y011178D01*
X004695Y011043D01*
X004871Y010970D01*
X004984Y010887D02*
X006074Y010887D01*
X006062Y010970D02*
X005871Y010970D01*
X005695Y011043D01*
X005560Y011178D01*
X005487Y011355D01*
X005487Y011545D01*
X005560Y011722D01*
X005695Y011857D01*
X005871Y011930D01*
X006062Y011930D01*
X006239Y011857D01*
X006374Y011722D01*
X006447Y011545D01*
X006447Y011355D01*
X006374Y011178D01*
X006239Y011043D01*
X006062Y010970D01*
X006098Y010985D02*
X006835Y010985D01*
X006871Y010970D02*
X007062Y010970D01*
X007239Y011043D01*
X007374Y011178D01*
X007447Y011355D01*
X007447Y011545D01*
X007374Y011722D01*
X007239Y011857D01*
X007062Y011930D01*
X006871Y011930D01*
X006695Y011857D01*
X006560Y011722D01*
X006487Y011545D01*
X006487Y011355D01*
X006560Y011178D01*
X006695Y011043D01*
X006871Y010970D01*
X007098Y010985D02*
X007835Y010985D01*
X007871Y010970D02*
X008062Y010970D01*
X008239Y011043D01*
X008374Y011178D01*
X008447Y011355D01*
X008447Y011545D01*
X008374Y011722D01*
X008239Y011857D01*
X008062Y011930D01*
X007871Y011930D01*
X007695Y011857D01*
X007560Y011722D01*
X007487Y011545D01*
X007487Y011355D01*
X007560Y011178D01*
X007695Y011043D01*
X007871Y010970D01*
X007678Y010916D02*
X007614Y010851D01*
X007614Y010091D01*
X007678Y010027D01*
X008104Y010027D01*
X008168Y010091D01*
X008168Y010851D01*
X008104Y010916D01*
X007678Y010916D01*
X007649Y010887D02*
X006559Y010887D01*
X006594Y010788D02*
X007614Y010788D01*
X007614Y010690D02*
X006594Y010690D01*
X006594Y010591D02*
X007614Y010591D01*
X007614Y010493D02*
X006594Y010493D01*
X006594Y010394D02*
X007614Y010394D01*
X007614Y010296D02*
X006594Y010296D01*
X006594Y010197D02*
X007614Y010197D01*
X007614Y010099D02*
X006594Y010099D01*
X006516Y010000D02*
X008907Y010000D01*
X008907Y009902D02*
X006616Y009902D01*
X006655Y009803D02*
X008907Y009803D01*
X008891Y009735D02*
X008466Y009735D01*
X008401Y009670D01*
X008401Y008910D01*
X008466Y008846D01*
X008736Y008846D01*
X008600Y008710D01*
X008010Y008710D01*
X007963Y008757D01*
X007439Y008757D01*
X007388Y008706D01*
X007369Y008739D01*
X007341Y008767D01*
X007306Y008787D01*
X007268Y008797D01*
X007080Y008797D01*
X007080Y008498D01*
X006984Y008498D01*
X006984Y008402D01*
X007080Y008402D01*
X007080Y008103D01*
X007268Y008103D01*
X007306Y008113D01*
X007341Y008133D01*
X007369Y008161D01*
X007388Y008194D01*
X007439Y008143D01*
X007594Y008143D01*
X007594Y007900D01*
X007284Y007900D01*
X007282Y007898D01*
X007280Y007900D01*
X007021Y007900D01*
X006971Y007932D02*
X007594Y007932D01*
X007594Y008030D02*
X006473Y008030D01*
X006527Y008129D02*
X006731Y008129D01*
X006723Y008133D02*
X006758Y008113D01*
X006796Y008103D01*
X006984Y008103D01*
X006984Y008402D01*
X006665Y008402D01*
X006665Y008233D01*
X006676Y008195D01*
X006695Y008161D01*
X006723Y008133D01*
X006667Y008227D02*
X006527Y008227D01*
X006527Y008326D02*
X006665Y008326D01*
X006527Y008424D02*
X006984Y008424D01*
X006984Y008498D02*
X006665Y008498D01*
X006665Y008667D01*
X006676Y008705D01*
X006695Y008739D01*
X006723Y008767D01*
X006758Y008787D01*
X006796Y008797D01*
X006984Y008797D01*
X006984Y008498D01*
X006984Y008523D02*
X007080Y008523D01*
X007080Y008621D02*
X006984Y008621D01*
X006984Y008720D02*
X007080Y008720D01*
X006891Y008846D02*
X007317Y008846D01*
X007381Y008910D01*
X007381Y009670D01*
X007317Y009735D01*
X006891Y009735D01*
X006826Y009670D01*
X006826Y008910D01*
X006891Y008846D01*
X006826Y008917D02*
X006527Y008917D01*
X006527Y009015D02*
X006826Y009015D01*
X006826Y009114D02*
X006527Y009114D01*
X006527Y009212D02*
X006826Y009212D01*
X006826Y009311D02*
X006527Y009311D01*
X006527Y009409D02*
X006826Y009409D01*
X006826Y009508D02*
X006532Y009508D01*
X006619Y009606D02*
X006826Y009606D01*
X006861Y009705D02*
X006655Y009705D01*
X006367Y009750D02*
X006367Y008150D01*
X006179Y007963D01*
X006179Y007540D01*
X005867Y007542D02*
X005864Y007540D01*
X005867Y007542D02*
X005867Y008350D01*
X006053Y008129D02*
X006119Y008129D01*
X006128Y008227D02*
X006207Y008227D01*
X006207Y008326D02*
X006155Y008326D01*
X006148Y008424D02*
X006207Y008424D01*
X006207Y008523D02*
X006102Y008523D01*
X006207Y008621D02*
X005965Y008621D01*
X005768Y008621D02*
X002774Y008621D01*
X002774Y008720D02*
X006207Y008720D01*
X006207Y008818D02*
X004183Y008818D01*
X004266Y008917D02*
X005252Y008917D01*
X005252Y009015D02*
X004271Y009015D01*
X004271Y009114D02*
X005252Y009114D01*
X005252Y009212D02*
X004271Y009212D01*
X003988Y009212D02*
X003920Y009212D01*
X003920Y009114D02*
X003988Y009114D01*
X003988Y009015D02*
X003920Y009015D01*
X003920Y008917D02*
X003988Y008917D01*
X003988Y008818D02*
X003920Y008818D01*
X003725Y008818D02*
X002774Y008818D01*
X002774Y008917D02*
X003642Y008917D01*
X003637Y009015D02*
X002774Y009015D01*
X002737Y009114D02*
X003637Y009114D01*
X003637Y009212D02*
X002763Y009212D01*
X002467Y008815D02*
X002001Y008815D01*
X001867Y008950D01*
X001867Y010550D01*
X001767Y010650D01*
X001571Y010650D01*
X001267Y010645D01*
X001267Y010750D01*
X002967Y012450D01*
X003967Y012450D01*
X004967Y012450D01*
X005967Y012450D01*
X006967Y012450D01*
X007967Y012450D01*
X009067Y011550D01*
X009067Y008950D01*
X008667Y008550D01*
X007801Y008550D01*
X007701Y008450D01*
X007754Y008403D01*
X007754Y007540D01*
X007754Y007050D01*
X007754Y004937D01*
X007467Y004650D01*
X006967Y004650D01*
X006809Y004493D01*
X006809Y004160D01*
X006499Y004189D02*
X006489Y004189D01*
X006489Y004287D02*
X006499Y004287D01*
X006489Y004386D02*
X006499Y004386D01*
X006489Y004484D02*
X006499Y004484D01*
X006673Y004583D02*
X005627Y004583D01*
X005637Y004681D02*
X006771Y004681D01*
X006870Y004780D02*
X005637Y004780D01*
X005637Y004878D02*
X007270Y004878D01*
X007254Y005063D02*
X007367Y005150D01*
X007254Y005063D02*
X005277Y005063D01*
X005277Y005378D02*
X007094Y005378D01*
X007367Y005650D01*
X007561Y005863D02*
X007594Y005863D01*
X007594Y005962D02*
X006305Y005962D01*
X006349Y005863D02*
X007172Y005863D01*
X007102Y005765D02*
X006355Y005765D01*
X006326Y005666D02*
X007079Y005666D01*
X007058Y005568D02*
X006249Y005568D01*
X006067Y005793D02*
X005967Y005693D01*
X005277Y005693D01*
X005277Y006007D02*
X003709Y006007D01*
X003567Y006150D01*
X003834Y006257D02*
X003852Y006257D01*
X003794Y006356D02*
X003769Y006356D01*
X003779Y006454D02*
X002827Y006454D01*
X002827Y006356D02*
X003365Y006356D01*
X003299Y006257D02*
X002827Y006257D01*
X002827Y006159D02*
X003279Y006159D01*
X003292Y006060D02*
X002827Y006060D01*
X002827Y005962D02*
X003348Y005962D01*
X003507Y005863D02*
X002827Y005863D01*
X002827Y005765D02*
X004917Y005765D01*
X004917Y005666D02*
X002827Y005666D01*
X002827Y005568D02*
X004917Y005568D01*
X004917Y005469D02*
X002827Y005469D01*
X002827Y005371D02*
X004917Y005371D01*
X004917Y005272D02*
X002827Y005272D01*
X002827Y005174D02*
X004917Y005174D01*
X004917Y005075D02*
X002827Y005075D01*
X002827Y004977D02*
X004917Y004977D01*
X004917Y004878D02*
X002827Y004878D01*
X002827Y004780D02*
X004917Y004780D01*
X004917Y004681D02*
X002827Y004681D01*
X002827Y004583D02*
X003344Y004583D01*
X003350Y004593D02*
X003330Y004559D01*
X003320Y004521D01*
X003320Y004333D01*
X003618Y004333D01*
X003618Y004651D01*
X003450Y004651D01*
X003412Y004641D01*
X003378Y004621D01*
X003350Y004593D01*
X003320Y004484D02*
X002827Y004484D01*
X002827Y004386D02*
X003320Y004386D01*
X003320Y004189D02*
X002954Y004189D01*
X002856Y004287D02*
X003618Y004287D01*
X003715Y004287D02*
X005644Y004287D01*
X005644Y004189D02*
X004014Y004189D01*
X004014Y004090D02*
X005644Y004090D01*
X005644Y003992D02*
X003992Y003992D01*
X003958Y003893D02*
X005644Y003893D01*
X005644Y004386D02*
X004014Y004386D01*
X004014Y004333D02*
X004014Y004521D01*
X004003Y004559D01*
X003984Y004593D01*
X003956Y004621D01*
X003921Y004641D01*
X003883Y004651D01*
X003715Y004651D01*
X003715Y004333D01*
X004014Y004333D01*
X004014Y004484D02*
X005673Y004484D01*
X004926Y004583D02*
X003990Y004583D01*
X003715Y004583D02*
X003618Y004583D01*
X003618Y004484D02*
X003715Y004484D01*
X003715Y004386D02*
X003618Y004386D01*
X003320Y004090D02*
X003053Y004090D01*
X003151Y003992D02*
X003341Y003992D01*
X003375Y003893D02*
X003250Y003893D01*
X003348Y003795D02*
X003360Y003795D01*
X003367Y003550D02*
X003632Y003550D01*
X003667Y003615D01*
X003632Y003550D02*
X007467Y003550D01*
X007754Y003837D01*
X007754Y004160D01*
X007467Y004188D02*
X007439Y004160D01*
X007467Y004188D02*
X007467Y004650D01*
X007463Y004878D02*
X007468Y004878D01*
X007129Y004090D02*
X007119Y004090D01*
X007119Y003992D02*
X007129Y003992D01*
X007119Y003893D02*
X007129Y003893D01*
X007119Y003795D02*
X007129Y003795D01*
X007331Y003795D02*
X007485Y003795D01*
X007740Y003598D02*
X007888Y003598D01*
X007909Y003696D02*
X007839Y003696D01*
X007789Y003499D02*
X007642Y003499D01*
X007691Y003401D02*
X007543Y003401D01*
X007592Y003302D02*
X003922Y003302D01*
X003917Y003204D02*
X007494Y003204D01*
X007395Y003105D02*
X003974Y003105D01*
X003367Y003550D02*
X002667Y004250D01*
X002667Y006950D01*
X002367Y007250D01*
X001867Y007250D01*
X002357Y007439D02*
X004792Y007439D01*
X004779Y007341D02*
X002502Y007341D01*
X002601Y007242D02*
X004800Y007242D01*
X004866Y007144D02*
X002699Y007144D01*
X002798Y007045D02*
X004917Y007045D01*
X004917Y006947D02*
X004778Y006947D01*
X004838Y006848D02*
X004917Y006848D01*
X004679Y006637D02*
X004567Y006750D01*
X004679Y006637D02*
X005277Y006637D01*
X005277Y006322D02*
X004194Y006322D01*
X004067Y006450D01*
X003860Y006651D02*
X002827Y006651D01*
X002827Y006553D02*
X003797Y006553D01*
X004273Y006651D02*
X004296Y006651D01*
X004279Y006750D02*
X002827Y006750D01*
X002827Y006848D02*
X004295Y006848D01*
X004356Y006947D02*
X002827Y006947D01*
X002507Y006848D02*
X002357Y006848D01*
X002357Y006750D02*
X002507Y006750D01*
X002507Y006651D02*
X002357Y006651D01*
X002357Y006553D02*
X002507Y006553D01*
X002507Y006454D02*
X002357Y006454D01*
X002357Y006356D02*
X002507Y006356D01*
X002507Y006257D02*
X002357Y006257D01*
X002357Y006159D02*
X002507Y006159D01*
X002507Y006060D02*
X000717Y006060D01*
X000717Y005962D02*
X002507Y005962D01*
X002507Y005863D02*
X000717Y005863D01*
X000717Y005765D02*
X002507Y005765D01*
X002507Y005666D02*
X000717Y005666D01*
X000717Y005568D02*
X002507Y005568D01*
X002507Y005469D02*
X000717Y005469D01*
X000717Y005371D02*
X002507Y005371D01*
X002507Y005272D02*
X000717Y005272D01*
X000717Y005174D02*
X002507Y005174D01*
X002507Y005075D02*
X000717Y005075D01*
X000717Y004977D02*
X002507Y004977D01*
X002507Y004878D02*
X000717Y004878D01*
X000717Y004780D02*
X002507Y004780D01*
X003627Y005863D02*
X003627Y005863D01*
X004336Y006553D02*
X004357Y006553D01*
X005077Y007140D02*
X005067Y007350D01*
X004847Y007538D02*
X002357Y007538D01*
X002357Y007636D02*
X005004Y007636D01*
X005129Y007636D02*
X005644Y007636D01*
X005644Y007538D02*
X005287Y007538D01*
X005342Y007439D02*
X005644Y007439D01*
X005644Y007341D02*
X005355Y007341D01*
X005334Y007242D02*
X005647Y007242D01*
X005601Y007144D02*
X006666Y007144D01*
X006804Y007144D02*
X006814Y007144D01*
X006804Y007242D02*
X006814Y007242D01*
X006804Y007341D02*
X006814Y007341D01*
X006804Y007439D02*
X006814Y007439D01*
X006804Y007636D02*
X006814Y007636D01*
X006804Y007735D02*
X006814Y007735D01*
X006804Y007833D02*
X006814Y007833D01*
X006804Y007932D02*
X006814Y007932D01*
X006648Y007932D02*
X006374Y007932D01*
X006527Y008523D02*
X006665Y008523D01*
X006665Y008621D02*
X006527Y008621D01*
X006527Y008720D02*
X006684Y008720D01*
X006527Y008818D02*
X008708Y008818D01*
X008610Y008720D02*
X008001Y008720D01*
X008028Y008326D02*
X008279Y008326D01*
X008136Y008227D02*
X008028Y008227D01*
X008087Y008129D02*
X007914Y008129D01*
X007914Y008030D02*
X008079Y008030D01*
X008022Y007932D02*
X007914Y007932D01*
X008067Y007750D02*
X008069Y007540D01*
X008067Y007750D02*
X008367Y008050D01*
X008629Y007932D02*
X009859Y007932D01*
X009760Y008030D02*
X008655Y008030D01*
X008646Y008129D02*
X009662Y008129D01*
X009563Y008227D02*
X008597Y008227D01*
X008454Y008326D02*
X009465Y008326D01*
X009366Y008424D02*
X008767Y008424D01*
X008865Y008523D02*
X009268Y008523D01*
X009169Y008621D02*
X008964Y008621D01*
X009062Y008720D02*
X009071Y008720D01*
X009067Y008950D02*
X011667Y006350D01*
X011667Y005150D01*
X012667Y006350D02*
X012667Y007850D01*
X012741Y007924D01*
X013079Y007924D01*
X013360Y008142D02*
X012797Y008142D01*
X012738Y008084D01*
X012674Y008084D01*
X012627Y008036D01*
X012627Y008216D01*
X012533Y008310D01*
X012433Y008410D01*
X011333Y008410D01*
X011292Y008451D01*
X011292Y008543D01*
X011394Y008543D01*
X011445Y008594D01*
X011465Y008561D01*
X011493Y008533D01*
X011527Y008513D01*
X011565Y008503D01*
X011753Y008503D01*
X011753Y008802D01*
X011850Y008802D01*
X011850Y008503D01*
X012038Y008503D01*
X012076Y008513D01*
X012110Y008533D01*
X012117Y008540D01*
X012123Y008533D01*
X012158Y008513D01*
X012196Y008503D01*
X012384Y008503D01*
X012384Y008802D01*
X012480Y008802D01*
X012480Y008503D01*
X012668Y008503D01*
X012706Y008513D01*
X012741Y008533D01*
X012769Y008561D01*
X012788Y008594D01*
X012839Y008543D01*
X013363Y008543D01*
X013377Y008556D01*
X013377Y008126D01*
X013360Y008142D01*
X013374Y008129D02*
X013377Y008129D01*
X013377Y008227D02*
X012616Y008227D01*
X012627Y008129D02*
X012783Y008129D01*
X012517Y008326D02*
X013377Y008326D01*
X013377Y008424D02*
X011319Y008424D01*
X011292Y008523D02*
X011511Y008523D01*
X011753Y008523D02*
X011850Y008523D01*
X011850Y008621D02*
X011753Y008621D01*
X011753Y008720D02*
X011850Y008720D01*
X011850Y008818D02*
X012384Y008818D01*
X012384Y008720D02*
X012480Y008720D01*
X012480Y008621D02*
X012384Y008621D01*
X012384Y008523D02*
X012480Y008523D01*
X012722Y008523D02*
X013377Y008523D01*
X013377Y009212D02*
X011201Y009212D01*
X011201Y009311D02*
X013377Y009311D01*
X013377Y009409D02*
X011201Y009409D01*
X011201Y009508D02*
X013340Y009508D01*
X013242Y009606D02*
X011201Y009606D01*
X011201Y009705D02*
X013143Y009705D01*
X013045Y009803D02*
X011201Y009803D01*
X011201Y009902D02*
X012946Y009902D01*
X012848Y010000D02*
X011201Y010000D01*
X011318Y010099D02*
X012749Y010099D01*
X012651Y010197D02*
X011318Y010197D01*
X011318Y010296D02*
X012552Y010296D01*
X012454Y010394D02*
X011318Y010394D01*
X010881Y010000D02*
X009716Y010000D01*
X009743Y010099D02*
X010763Y010099D01*
X010763Y010197D02*
X009743Y010197D01*
X009743Y010296D02*
X010763Y010296D01*
X010763Y010394D02*
X009743Y010394D01*
X009743Y010493D02*
X010763Y010493D01*
X010763Y010591D02*
X009743Y010591D01*
X009743Y010690D02*
X010763Y010690D01*
X010763Y010788D02*
X009743Y010788D01*
X009708Y010887D02*
X010798Y010887D01*
X010881Y009902D02*
X009755Y009902D01*
X009755Y009803D02*
X010881Y009803D01*
X010881Y009705D02*
X010496Y009705D01*
X010531Y009606D02*
X010881Y009606D01*
X010881Y009508D02*
X010531Y009508D01*
X010531Y009409D02*
X010881Y009409D01*
X010881Y009311D02*
X010531Y009311D01*
X010531Y009212D02*
X010881Y009212D01*
X010827Y009114D02*
X010531Y009114D01*
X010531Y009015D02*
X010805Y009015D01*
X010805Y008917D02*
X010531Y008917D01*
X010413Y008818D02*
X010805Y008818D01*
X010805Y008720D02*
X010413Y008720D01*
X010446Y008621D02*
X010805Y008621D01*
X010972Y008523D02*
X010455Y008523D01*
X010430Y008424D02*
X010972Y008424D01*
X010972Y008326D02*
X010358Y008326D01*
X010114Y008129D02*
X011162Y008129D01*
X011063Y008227D02*
X010016Y008227D01*
X009975Y008326D02*
X009917Y008326D01*
X009904Y008424D02*
X009819Y008424D01*
X009879Y008523D02*
X009720Y008523D01*
X009622Y008621D02*
X009888Y008621D01*
X009937Y008720D02*
X009523Y008720D01*
X009425Y008818D02*
X010081Y008818D01*
X009976Y008917D02*
X009326Y008917D01*
X009228Y009015D02*
X009976Y009015D01*
X009976Y009114D02*
X009227Y009114D01*
X009227Y009212D02*
X009976Y009212D01*
X009976Y009311D02*
X009227Y009311D01*
X009227Y009409D02*
X009976Y009409D01*
X009976Y009508D02*
X009227Y009508D01*
X008907Y009719D02*
X008891Y009735D01*
X008907Y009719D02*
X008907Y011474D01*
X008220Y012036D01*
X008062Y011970D01*
X007871Y011970D01*
X007062Y011970D01*
X007239Y012043D01*
X007374Y012178D01*
X007420Y012290D01*
X007513Y012290D01*
X007560Y012178D01*
X007695Y012043D01*
X007871Y011970D01*
X007730Y011872D02*
X007203Y011872D01*
X007322Y011773D02*
X007611Y011773D01*
X007540Y011675D02*
X007393Y011675D01*
X007434Y011576D02*
X007499Y011576D01*
X007487Y011478D02*
X007447Y011478D01*
X007447Y011379D02*
X007487Y011379D01*
X007517Y011281D02*
X007416Y011281D01*
X007375Y011182D02*
X007558Y011182D01*
X007654Y011084D02*
X007279Y011084D01*
X006654Y011084D02*
X006279Y011084D01*
X006375Y011182D02*
X006558Y011182D01*
X006517Y011281D02*
X006416Y011281D01*
X006447Y011379D02*
X006487Y011379D01*
X006487Y011478D02*
X006447Y011478D01*
X006434Y011576D02*
X006499Y011576D01*
X006540Y011675D02*
X006393Y011675D01*
X006322Y011773D02*
X006611Y011773D01*
X006730Y011872D02*
X006203Y011872D01*
X006062Y011970D02*
X006871Y011970D01*
X007062Y011970D01*
X006871Y011970D02*
X006695Y012043D01*
X006560Y012178D01*
X006513Y012290D01*
X006420Y012290D01*
X006374Y012178D01*
X006239Y012043D01*
X006062Y011970D01*
X005871Y011970D01*
X005062Y011970D01*
X005239Y012043D01*
X005374Y012178D01*
X005420Y012290D01*
X005513Y012290D01*
X005560Y012178D01*
X005695Y012043D01*
X005871Y011970D01*
X005730Y011872D02*
X005203Y011872D01*
X005322Y011773D02*
X005611Y011773D01*
X005540Y011675D02*
X005393Y011675D01*
X005434Y011576D02*
X005499Y011576D01*
X005487Y011478D02*
X005447Y011478D01*
X005447Y011379D02*
X005487Y011379D01*
X005517Y011281D02*
X005416Y011281D01*
X005375Y011182D02*
X005558Y011182D01*
X005654Y011084D02*
X005279Y011084D01*
X005098Y010985D02*
X005835Y010985D01*
X006039Y010788D02*
X005019Y010788D01*
X005019Y010690D02*
X006039Y010690D01*
X006039Y010591D02*
X005019Y010591D01*
X005019Y010493D02*
X006039Y010493D01*
X006039Y010394D02*
X005019Y010394D01*
X005019Y010296D02*
X006039Y010296D01*
X006039Y010197D02*
X005019Y010197D01*
X005019Y010099D02*
X006039Y010099D01*
X006267Y009850D02*
X004467Y009850D01*
X003988Y009705D02*
X003920Y009705D01*
X003920Y009606D02*
X003988Y009606D01*
X003988Y009508D02*
X003920Y009508D01*
X003920Y009409D02*
X003988Y009409D01*
X002743Y008523D02*
X005632Y008523D01*
X005585Y008424D02*
X000717Y008424D01*
X000717Y008326D02*
X001377Y008326D01*
X001377Y008227D02*
X000717Y008227D01*
X000717Y008129D02*
X001377Y008129D01*
X001377Y008030D02*
X000717Y008030D01*
X000717Y007932D02*
X001377Y007932D01*
X001377Y007833D02*
X000717Y007833D01*
X000717Y007735D02*
X001377Y007735D01*
X001377Y007636D02*
X000717Y007636D01*
X000717Y007538D02*
X001377Y007538D01*
X001377Y007439D02*
X000717Y007439D01*
X000717Y007341D02*
X001377Y007341D01*
X001377Y007242D02*
X000717Y007242D01*
X000717Y007144D02*
X001377Y007144D01*
X001377Y007045D02*
X000717Y007045D01*
X000717Y006947D02*
X001377Y006947D01*
X001377Y006848D02*
X000717Y006848D01*
X000717Y006750D02*
X001377Y006750D01*
X001377Y006651D02*
X000717Y006651D01*
X000717Y006553D02*
X001377Y006553D01*
X001377Y006454D02*
X000717Y006454D01*
X000717Y006356D02*
X001377Y006356D01*
X001377Y006257D02*
X000717Y006257D01*
X000717Y006159D02*
X001377Y006159D01*
X002357Y006947D02*
X002444Y006947D01*
X002357Y007735D02*
X005644Y007735D01*
X005644Y007833D02*
X002357Y007833D01*
X002357Y007932D02*
X005707Y007932D01*
X005707Y008030D02*
X002357Y008030D01*
X002357Y008129D02*
X005681Y008129D01*
X005606Y008227D02*
X002357Y008227D01*
X002357Y008326D02*
X005579Y008326D01*
X005806Y008917D02*
X006207Y008917D01*
X006207Y009015D02*
X005806Y009015D01*
X005806Y009114D02*
X006207Y009114D01*
X006207Y009212D02*
X005806Y009212D01*
X005806Y009311D02*
X006207Y009311D01*
X006207Y009409D02*
X005806Y009409D01*
X005806Y009508D02*
X006202Y009508D01*
X006114Y009606D02*
X005806Y009606D01*
X006267Y009850D02*
X006367Y009750D01*
X007347Y009705D02*
X008435Y009705D01*
X008401Y009606D02*
X007381Y009606D01*
X007381Y009508D02*
X008401Y009508D01*
X008401Y009409D02*
X007381Y009409D01*
X007381Y009311D02*
X008401Y009311D01*
X008401Y009212D02*
X007381Y009212D01*
X007381Y009114D02*
X008401Y009114D01*
X008401Y009015D02*
X007381Y009015D01*
X007381Y008917D02*
X008401Y008917D01*
X007594Y008129D02*
X007333Y008129D01*
X007080Y008129D02*
X006984Y008129D01*
X006984Y008227D02*
X007080Y008227D01*
X007080Y008326D02*
X006984Y008326D01*
X007380Y008720D02*
X007402Y008720D01*
X008289Y007735D02*
X010056Y007735D01*
X009957Y007833D02*
X008557Y007833D01*
X008289Y007636D02*
X010154Y007636D01*
X010253Y007538D02*
X008289Y007538D01*
X008289Y007439D02*
X010351Y007439D01*
X010450Y007341D02*
X008289Y007341D01*
X008287Y007242D02*
X010548Y007242D01*
X010647Y007144D02*
X010281Y007144D01*
X010339Y007045D02*
X010745Y007045D01*
X010844Y006947D02*
X010355Y006947D01*
X010336Y006848D02*
X010942Y006848D01*
X011041Y006750D02*
X010274Y006750D01*
X009853Y007144D02*
X008981Y007144D01*
X009017Y006257D02*
X009033Y006257D01*
X009017Y006159D02*
X009132Y006159D01*
X009230Y006060D02*
X009017Y006060D01*
X009017Y005962D02*
X009329Y005962D01*
X009427Y005863D02*
X009017Y005863D01*
X009017Y005765D02*
X009526Y005765D01*
X009624Y005666D02*
X009017Y005666D01*
X009017Y005568D02*
X009723Y005568D01*
X009821Y005469D02*
X009017Y005469D01*
X009017Y005371D02*
X009920Y005371D01*
X010018Y005272D02*
X009017Y005272D01*
X009017Y005174D02*
X010117Y005174D01*
X010215Y005075D02*
X009017Y005075D01*
X009017Y004977D02*
X010314Y004977D01*
X010412Y004878D02*
X009017Y004878D01*
X009017Y004780D02*
X010507Y004780D01*
X010507Y004681D02*
X009017Y004681D01*
X009007Y004583D02*
X010507Y004583D01*
X011690Y006553D02*
X012307Y006553D01*
X012307Y006651D02*
X011592Y006651D01*
X011493Y006750D02*
X012307Y006750D01*
X012307Y006848D02*
X011395Y006848D01*
X011296Y006947D02*
X012307Y006947D01*
X012307Y007439D02*
X010804Y007439D01*
X010902Y007341D02*
X011719Y007341D01*
X011709Y007242D02*
X011001Y007242D01*
X011099Y007144D02*
X011709Y007144D01*
X011709Y007045D02*
X011198Y007045D01*
X010705Y007538D02*
X012307Y007538D01*
X012307Y007636D02*
X010607Y007636D01*
X010508Y007735D02*
X011744Y007735D01*
X011709Y007833D02*
X010410Y007833D01*
X010311Y007932D02*
X011709Y007932D01*
X011709Y008030D02*
X010213Y008030D01*
X010167Y008550D02*
X010224Y008607D01*
X010253Y008678D02*
X010253Y009290D01*
X010253Y008678D02*
X010251Y008658D01*
X010245Y008640D01*
X010236Y008622D01*
X010224Y008607D01*
X011093Y008911D02*
X011132Y008850D01*
X011437Y009114D02*
X011450Y009114D01*
X011753Y009114D02*
X011850Y009114D01*
X011850Y009015D02*
X011753Y009015D01*
X011753Y008917D02*
X011850Y008917D01*
X012092Y008523D02*
X012142Y008523D01*
X012384Y008917D02*
X012480Y008917D01*
X012480Y009015D02*
X012384Y009015D01*
X012384Y009114D02*
X012480Y009114D01*
X012783Y009114D02*
X012796Y009114D01*
X009711Y009687D02*
X009630Y009606D01*
X009467Y009850D02*
X009467Y010250D01*
X009466Y010251D01*
X009466Y010471D01*
X009467Y010450D02*
X009567Y010450D01*
X009467Y010350D01*
X009467Y010250D01*
X008907Y010296D02*
X008168Y010296D01*
X008168Y010394D02*
X008907Y010394D01*
X008907Y010493D02*
X008168Y010493D01*
X008168Y010591D02*
X008907Y010591D01*
X008907Y010690D02*
X008168Y010690D01*
X008168Y010788D02*
X008907Y010788D01*
X008907Y010887D02*
X008133Y010887D01*
X008098Y010985D02*
X008907Y010985D01*
X008907Y011084D02*
X008279Y011084D01*
X008375Y011182D02*
X008907Y011182D01*
X008907Y011281D02*
X008416Y011281D01*
X008447Y011379D02*
X008907Y011379D01*
X008903Y011478D02*
X008447Y011478D01*
X008434Y011576D02*
X008782Y011576D01*
X008662Y011675D02*
X008393Y011675D01*
X008322Y011773D02*
X008541Y011773D01*
X008421Y011872D02*
X008203Y011872D01*
X008301Y011970D02*
X008062Y011970D01*
X007669Y012069D02*
X007264Y012069D01*
X007363Y012167D02*
X007571Y012167D01*
X007524Y012266D02*
X007410Y012266D01*
X007399Y012660D02*
X007534Y012660D01*
X007596Y012758D02*
X007337Y012758D01*
X007239Y012857D02*
X007694Y012857D01*
X007807Y012955D02*
X007126Y012955D01*
X007017Y012955D02*
X006917Y012955D01*
X006917Y013054D02*
X007017Y013054D01*
X007017Y013152D02*
X006917Y013152D01*
X006917Y013251D02*
X007017Y013251D01*
X007017Y013349D02*
X006917Y013349D01*
X006628Y013054D02*
X006306Y013054D01*
X006393Y013152D02*
X006540Y013152D01*
X006485Y013251D02*
X006449Y013251D01*
X006126Y012955D02*
X006807Y012955D01*
X006694Y012857D02*
X006239Y012857D01*
X006337Y012758D02*
X006596Y012758D01*
X006534Y012660D02*
X006399Y012660D01*
X006410Y012266D02*
X006524Y012266D01*
X006571Y012167D02*
X006363Y012167D01*
X006264Y012069D02*
X006669Y012069D01*
X006017Y012955D02*
X005917Y012955D01*
X005917Y013054D02*
X006017Y013054D01*
X006017Y013152D02*
X005917Y013152D01*
X005917Y013251D02*
X006017Y013251D01*
X006017Y013349D02*
X005917Y013349D01*
X005628Y013054D02*
X005306Y013054D01*
X005393Y013152D02*
X005540Y013152D01*
X005485Y013251D02*
X005449Y013251D01*
X005126Y012955D02*
X005807Y012955D01*
X005694Y012857D02*
X005239Y012857D01*
X005337Y012758D02*
X005596Y012758D01*
X005534Y012660D02*
X005399Y012660D01*
X005410Y012266D02*
X005524Y012266D01*
X005571Y012167D02*
X005363Y012167D01*
X005264Y012069D02*
X005669Y012069D01*
X005062Y011970D02*
X004871Y011970D01*
X004062Y011970D01*
X004239Y012043D01*
X004374Y012178D01*
X004420Y012290D01*
X004513Y012290D01*
X004560Y012178D01*
X004695Y012043D01*
X004871Y011970D01*
X004730Y011872D02*
X004203Y011872D01*
X004322Y011773D02*
X004611Y011773D01*
X004540Y011675D02*
X004393Y011675D01*
X004434Y011576D02*
X004499Y011576D01*
X004487Y011478D02*
X004447Y011478D01*
X004447Y011379D02*
X004487Y011379D01*
X004517Y011281D02*
X004416Y011281D01*
X004375Y011182D02*
X004558Y011182D01*
X004654Y011084D02*
X004279Y011084D01*
X003654Y011084D02*
X003279Y011084D01*
X003375Y011182D02*
X003558Y011182D01*
X003517Y011281D02*
X003416Y011281D01*
X003447Y011379D02*
X003487Y011379D01*
X003487Y011478D02*
X003447Y011478D01*
X003434Y011576D02*
X003499Y011576D01*
X003540Y011675D02*
X003393Y011675D01*
X003322Y011773D02*
X003611Y011773D01*
X003730Y011872D02*
X003203Y011872D01*
X003062Y011970D02*
X003871Y011970D01*
X004062Y011970D01*
X003871Y011970D02*
X003695Y012043D01*
X003560Y012178D01*
X003513Y012290D01*
X003420Y012290D01*
X003374Y012178D01*
X003239Y012043D01*
X003062Y011970D01*
X002871Y011970D01*
X003264Y012069D02*
X003669Y012069D01*
X003571Y012167D02*
X003363Y012167D01*
X003410Y012266D02*
X003524Y012266D01*
X003534Y012660D02*
X003399Y012660D01*
X003337Y012758D02*
X003596Y012758D01*
X003694Y012857D02*
X003239Y012857D01*
X003126Y012955D02*
X003807Y012955D01*
X003917Y012955D02*
X004017Y012955D01*
X004017Y013054D02*
X003917Y013054D01*
X003917Y013152D02*
X004017Y013152D01*
X004017Y013251D02*
X003917Y013251D01*
X003917Y013349D02*
X004017Y013349D01*
X004306Y013054D02*
X004628Y013054D01*
X004540Y013152D02*
X004393Y013152D01*
X004449Y013251D02*
X004485Y013251D01*
X004807Y012955D02*
X004126Y012955D01*
X004239Y012857D02*
X004694Y012857D01*
X004596Y012758D02*
X004337Y012758D01*
X004399Y012660D02*
X004534Y012660D01*
X004524Y012266D02*
X004410Y012266D01*
X004363Y012167D02*
X004571Y012167D01*
X004669Y012069D02*
X004264Y012069D01*
X004917Y012955D02*
X005017Y012955D01*
X005017Y013054D02*
X004917Y013054D01*
X004917Y013152D02*
X005017Y013152D01*
X005017Y013251D02*
X004917Y013251D01*
X004917Y013349D02*
X005017Y013349D01*
X003628Y013054D02*
X003306Y013054D01*
X003393Y013152D02*
X003540Y013152D01*
X003485Y013251D02*
X003449Y013251D01*
X003017Y013251D02*
X002917Y013251D01*
X002917Y013349D02*
X003017Y013349D01*
X002917Y013400D02*
X002917Y012931D01*
X002845Y012943D01*
X002767Y012968D01*
X002694Y013005D01*
X002628Y013053D01*
X002570Y013111D01*
X002522Y013177D01*
X002485Y013250D01*
X002459Y013328D01*
X002448Y013400D01*
X002917Y013400D01*
X002917Y013448D02*
X002188Y013448D01*
X002147Y013546D02*
X002455Y013546D01*
X002483Y013645D02*
X002075Y013645D01*
X001977Y013743D02*
X002537Y013743D01*
X002623Y013842D02*
X001835Y013842D01*
X002228Y013349D02*
X002456Y013349D01*
X002485Y013251D02*
X002247Y013251D01*
X002247Y013152D02*
X002540Y013152D01*
X002628Y013054D02*
X002247Y013054D01*
X002230Y012955D02*
X002807Y012955D01*
X002917Y012955D02*
X003017Y012955D01*
X003017Y013054D02*
X002917Y013054D01*
X002917Y013152D02*
X003017Y013152D01*
X002694Y012857D02*
X002189Y012857D01*
X002148Y012758D02*
X002596Y012758D01*
X002534Y012660D02*
X002079Y012660D01*
X001981Y012561D02*
X002493Y012561D01*
X002487Y012463D02*
X001845Y012463D01*
X002260Y011970D02*
X000717Y011970D01*
X000717Y011872D02*
X002162Y011872D01*
X002063Y011773D02*
X000717Y011773D01*
X000717Y011675D02*
X001965Y011675D01*
X001866Y011576D02*
X000717Y011576D01*
X000717Y011478D02*
X001768Y011478D01*
X001669Y011379D02*
X000717Y011379D01*
X000717Y011281D02*
X001571Y011281D01*
X001472Y011182D02*
X000717Y011182D01*
X000717Y011084D02*
X001374Y011084D01*
X001275Y010985D02*
X000717Y010985D01*
X000717Y010887D02*
X001037Y010887D01*
X000999Y010788D02*
X000717Y010788D01*
X000717Y010690D02*
X000999Y010690D01*
X000999Y010591D02*
X000717Y010591D01*
X000717Y010493D02*
X000999Y010493D01*
X001047Y010394D02*
X000717Y010394D01*
X000717Y010296D02*
X001037Y010296D01*
X001064Y010322D02*
X000999Y010258D01*
X000999Y009852D01*
X001040Y009811D01*
X001024Y009811D01*
X000960Y009747D01*
X000960Y009223D01*
X001011Y009171D01*
X000978Y009152D01*
X000950Y009124D01*
X000930Y009090D01*
X000920Y009052D01*
X000920Y008864D01*
X001218Y008864D01*
X001218Y008767D01*
X000920Y008767D01*
X000920Y008579D01*
X000930Y008541D01*
X000950Y008507D01*
X000978Y008479D01*
X001012Y008459D01*
X001050Y008449D01*
X001218Y008449D01*
X001218Y008767D01*
X001315Y008767D01*
X001315Y008449D01*
X001483Y008449D01*
X001521Y008459D01*
X001556Y008479D01*
X001584Y008507D01*
X001603Y008541D01*
X001614Y008579D01*
X001614Y008767D01*
X001315Y008767D01*
X001315Y008864D01*
X001614Y008864D01*
X001614Y009052D01*
X001603Y009090D01*
X001584Y009124D01*
X001556Y009152D01*
X001522Y009171D01*
X001574Y009223D01*
X001574Y009747D01*
X001509Y009811D01*
X001494Y009811D01*
X001534Y009852D01*
X001534Y010258D01*
X001470Y010322D01*
X001064Y010322D01*
X000999Y010197D02*
X000717Y010197D01*
X000717Y010099D02*
X000999Y010099D01*
X000999Y010000D02*
X000717Y010000D01*
X000717Y009902D02*
X000999Y009902D01*
X001016Y009803D02*
X000717Y009803D01*
X000717Y009705D02*
X000960Y009705D01*
X000960Y009606D02*
X000717Y009606D01*
X000717Y009508D02*
X000960Y009508D01*
X000960Y009409D02*
X000717Y009409D01*
X000717Y009311D02*
X000960Y009311D01*
X000970Y009212D02*
X000717Y009212D01*
X000717Y009114D02*
X000944Y009114D01*
X000920Y009015D02*
X000717Y009015D01*
X000717Y008917D02*
X000920Y008917D01*
X000920Y008720D02*
X000717Y008720D01*
X000717Y008818D02*
X001218Y008818D01*
X001315Y008818D02*
X001772Y008818D01*
X001707Y008917D02*
X001614Y008917D01*
X001614Y009015D02*
X001707Y009015D01*
X001707Y009114D02*
X001590Y009114D01*
X001563Y009212D02*
X001707Y009212D01*
X001707Y009311D02*
X001574Y009311D01*
X001574Y009409D02*
X001707Y009409D01*
X001707Y009508D02*
X001574Y009508D01*
X001574Y009606D02*
X001707Y009606D01*
X001707Y009705D02*
X001574Y009705D01*
X001517Y009803D02*
X001707Y009803D01*
X001707Y009902D02*
X001534Y009902D01*
X001534Y010000D02*
X001707Y010000D01*
X001707Y010099D02*
X001534Y010099D01*
X001534Y010197D02*
X001707Y010197D01*
X001707Y010296D02*
X001496Y010296D01*
X001486Y010394D02*
X001707Y010394D01*
X002027Y010000D02*
X002199Y010000D01*
X002199Y009902D02*
X002027Y009902D01*
X002027Y009803D02*
X002216Y009803D01*
X002160Y009705D02*
X002027Y009705D01*
X002027Y009606D02*
X002160Y009606D01*
X002160Y009508D02*
X002027Y009508D01*
X002027Y009409D02*
X002160Y009409D01*
X002160Y009311D02*
X002027Y009311D01*
X002027Y009212D02*
X002170Y009212D01*
X002196Y009114D02*
X002027Y009114D01*
X002028Y009015D02*
X002160Y009015D01*
X001871Y008720D02*
X001614Y008720D01*
X001614Y008621D02*
X002160Y008621D01*
X002191Y008523D02*
X001593Y008523D01*
X001315Y008523D02*
X001218Y008523D01*
X001218Y008621D02*
X001315Y008621D01*
X001315Y008720D02*
X001218Y008720D01*
X000920Y008621D02*
X000717Y008621D01*
X000717Y008523D02*
X000941Y008523D01*
X001267Y009485D02*
X001267Y010055D01*
X000717Y012069D02*
X002359Y012069D01*
X002457Y012167D02*
X000717Y012167D01*
X000717Y012266D02*
X002524Y012266D01*
X002487Y012364D02*
X000717Y012364D01*
X000717Y012463D02*
X001088Y012463D01*
X000953Y012561D02*
X000717Y012561D01*
X000717Y012660D02*
X000854Y012660D01*
X000785Y012758D02*
X000717Y012758D01*
X000717Y012857D02*
X000744Y012857D01*
X005077Y007140D02*
X005277Y006952D01*
X005637Y006947D02*
X007144Y006947D01*
X007045Y007045D02*
X005637Y007045D01*
X005637Y006848D02*
X007594Y006848D01*
X007594Y006750D02*
X005637Y006750D01*
X005637Y006651D02*
X007594Y006651D01*
X007594Y006553D02*
X005637Y006553D01*
X005637Y006454D02*
X007594Y006454D01*
X007594Y006356D02*
X005637Y006356D01*
X005637Y006257D02*
X007594Y006257D01*
X007594Y006159D02*
X005637Y006159D01*
X005637Y006060D02*
X005960Y006060D01*
X005828Y005962D02*
X005637Y005962D01*
X005637Y005863D02*
X005784Y005863D01*
X006174Y006060D02*
X007594Y006060D01*
X006964Y007144D02*
X006952Y007144D01*
X006499Y004090D02*
X006489Y004090D01*
X006489Y003992D02*
X006499Y003992D01*
X006489Y003893D02*
X006499Y003893D01*
X006489Y003795D02*
X006499Y003795D01*
X006288Y003795D02*
X003974Y003795D01*
X004204Y001037D02*
X005279Y001037D01*
X005252Y000938D02*
X004231Y000938D01*
X004231Y000840D02*
X005252Y000840D01*
X005252Y000741D02*
X004231Y000741D01*
X004231Y000643D02*
X005252Y000643D01*
X005252Y000544D02*
X004231Y000544D01*
X004231Y000446D02*
X005252Y000446D01*
X005252Y000347D02*
X004231Y000347D01*
X006701Y003795D02*
X006918Y003795D01*
X008168Y010099D02*
X008907Y010099D01*
X008907Y010197D02*
X008168Y010197D01*
X007628Y013054D02*
X007306Y013054D01*
X007393Y013152D02*
X007540Y013152D01*
X007485Y013251D02*
X007449Y013251D01*
X010021Y013349D02*
X010710Y013349D01*
X010657Y013251D02*
X010166Y013251D01*
X010249Y013152D02*
X010657Y013152D01*
X010657Y013054D02*
X010301Y013054D01*
X013335Y001825D02*
X013887Y001825D01*
X013887Y001726D02*
X013573Y001726D01*
X013692Y001628D02*
X013887Y001628D01*
X013887Y001529D02*
X013791Y001529D01*
X013853Y001431D02*
X013887Y001431D01*
D25*
X010067Y006950D03*
X010167Y008542D03*
X009467Y009850D03*
X008367Y008050D03*
X006367Y009750D03*
X005867Y008350D03*
X005067Y007350D03*
X004567Y006750D03*
X004067Y006450D03*
X003567Y006150D03*
X006067Y005793D03*
X007367Y005650D03*
X007367Y005150D03*
M02*
