G75*
G70*
%OFA0B0*%
%FSLAX24Y24*%
%IPPOS*%
%LPD*%
%AMOC8*
5,1,8,0,0,1.08239X$1,22.5*
%
%ADD10C,0.0000*%
D10*
X000567Y000150D02*
X000567Y014046D01*
X014037Y014046D01*
X014037Y000150D01*
X000567Y000150D01*
X000837Y001050D02*
X000839Y001100D01*
X000845Y001150D01*
X000855Y001199D01*
X000869Y001247D01*
X000886Y001294D01*
X000907Y001339D01*
X000932Y001383D01*
X000960Y001424D01*
X000992Y001463D01*
X001026Y001500D01*
X001063Y001534D01*
X001103Y001564D01*
X001145Y001591D01*
X001189Y001615D01*
X001235Y001636D01*
X001282Y001652D01*
X001330Y001665D01*
X001380Y001674D01*
X001429Y001679D01*
X001480Y001680D01*
X001530Y001677D01*
X001579Y001670D01*
X001628Y001659D01*
X001676Y001644D01*
X001722Y001626D01*
X001767Y001604D01*
X001810Y001578D01*
X001851Y001549D01*
X001890Y001517D01*
X001926Y001482D01*
X001958Y001444D01*
X001988Y001404D01*
X002015Y001361D01*
X002038Y001317D01*
X002057Y001271D01*
X002073Y001223D01*
X002085Y001174D01*
X002093Y001125D01*
X002097Y001075D01*
X002097Y001025D01*
X002093Y000975D01*
X002085Y000926D01*
X002073Y000877D01*
X002057Y000829D01*
X002038Y000783D01*
X002015Y000739D01*
X001988Y000696D01*
X001958Y000656D01*
X001926Y000618D01*
X001890Y000583D01*
X001851Y000551D01*
X001810Y000522D01*
X001767Y000496D01*
X001722Y000474D01*
X001676Y000456D01*
X001628Y000441D01*
X001579Y000430D01*
X001530Y000423D01*
X001480Y000420D01*
X001429Y000421D01*
X001380Y000426D01*
X001330Y000435D01*
X001282Y000448D01*
X001235Y000464D01*
X001189Y000485D01*
X001145Y000509D01*
X001103Y000536D01*
X001063Y000566D01*
X001026Y000600D01*
X000992Y000637D01*
X000960Y000676D01*
X000932Y000717D01*
X000907Y000761D01*
X000886Y000806D01*
X000869Y000853D01*
X000855Y000901D01*
X000845Y000950D01*
X000839Y001000D01*
X000837Y001050D01*
X000837Y013150D02*
X000839Y013200D01*
X000845Y013250D01*
X000855Y013299D01*
X000869Y013347D01*
X000886Y013394D01*
X000907Y013439D01*
X000932Y013483D01*
X000960Y013524D01*
X000992Y013563D01*
X001026Y013600D01*
X001063Y013634D01*
X001103Y013664D01*
X001145Y013691D01*
X001189Y013715D01*
X001235Y013736D01*
X001282Y013752D01*
X001330Y013765D01*
X001380Y013774D01*
X001429Y013779D01*
X001480Y013780D01*
X001530Y013777D01*
X001579Y013770D01*
X001628Y013759D01*
X001676Y013744D01*
X001722Y013726D01*
X001767Y013704D01*
X001810Y013678D01*
X001851Y013649D01*
X001890Y013617D01*
X001926Y013582D01*
X001958Y013544D01*
X001988Y013504D01*
X002015Y013461D01*
X002038Y013417D01*
X002057Y013371D01*
X002073Y013323D01*
X002085Y013274D01*
X002093Y013225D01*
X002097Y013175D01*
X002097Y013125D01*
X002093Y013075D01*
X002085Y013026D01*
X002073Y012977D01*
X002057Y012929D01*
X002038Y012883D01*
X002015Y012839D01*
X001988Y012796D01*
X001958Y012756D01*
X001926Y012718D01*
X001890Y012683D01*
X001851Y012651D01*
X001810Y012622D01*
X001767Y012596D01*
X001722Y012574D01*
X001676Y012556D01*
X001628Y012541D01*
X001579Y012530D01*
X001530Y012523D01*
X001480Y012520D01*
X001429Y012521D01*
X001380Y012526D01*
X001330Y012535D01*
X001282Y012548D01*
X001235Y012564D01*
X001189Y012585D01*
X001145Y012609D01*
X001103Y012636D01*
X001063Y012666D01*
X001026Y012700D01*
X000992Y012737D01*
X000960Y012776D01*
X000932Y012817D01*
X000907Y012861D01*
X000886Y012906D01*
X000869Y012953D01*
X000855Y013001D01*
X000845Y013050D01*
X000839Y013100D01*
X000837Y013150D01*
X012537Y013150D02*
X012539Y013200D01*
X012545Y013250D01*
X012555Y013299D01*
X012569Y013347D01*
X012586Y013394D01*
X012607Y013439D01*
X012632Y013483D01*
X012660Y013524D01*
X012692Y013563D01*
X012726Y013600D01*
X012763Y013634D01*
X012803Y013664D01*
X012845Y013691D01*
X012889Y013715D01*
X012935Y013736D01*
X012982Y013752D01*
X013030Y013765D01*
X013080Y013774D01*
X013129Y013779D01*
X013180Y013780D01*
X013230Y013777D01*
X013279Y013770D01*
X013328Y013759D01*
X013376Y013744D01*
X013422Y013726D01*
X013467Y013704D01*
X013510Y013678D01*
X013551Y013649D01*
X013590Y013617D01*
X013626Y013582D01*
X013658Y013544D01*
X013688Y013504D01*
X013715Y013461D01*
X013738Y013417D01*
X013757Y013371D01*
X013773Y013323D01*
X013785Y013274D01*
X013793Y013225D01*
X013797Y013175D01*
X013797Y013125D01*
X013793Y013075D01*
X013785Y013026D01*
X013773Y012977D01*
X013757Y012929D01*
X013738Y012883D01*
X013715Y012839D01*
X013688Y012796D01*
X013658Y012756D01*
X013626Y012718D01*
X013590Y012683D01*
X013551Y012651D01*
X013510Y012622D01*
X013467Y012596D01*
X013422Y012574D01*
X013376Y012556D01*
X013328Y012541D01*
X013279Y012530D01*
X013230Y012523D01*
X013180Y012520D01*
X013129Y012521D01*
X013080Y012526D01*
X013030Y012535D01*
X012982Y012548D01*
X012935Y012564D01*
X012889Y012585D01*
X012845Y012609D01*
X012803Y012636D01*
X012763Y012666D01*
X012726Y012700D01*
X012692Y012737D01*
X012660Y012776D01*
X012632Y012817D01*
X012607Y012861D01*
X012586Y012906D01*
X012569Y012953D01*
X012555Y013001D01*
X012545Y013050D01*
X012539Y013100D01*
X012537Y013150D01*
X012537Y001050D02*
X012539Y001100D01*
X012545Y001150D01*
X012555Y001199D01*
X012569Y001247D01*
X012586Y001294D01*
X012607Y001339D01*
X012632Y001383D01*
X012660Y001424D01*
X012692Y001463D01*
X012726Y001500D01*
X012763Y001534D01*
X012803Y001564D01*
X012845Y001591D01*
X012889Y001615D01*
X012935Y001636D01*
X012982Y001652D01*
X013030Y001665D01*
X013080Y001674D01*
X013129Y001679D01*
X013180Y001680D01*
X013230Y001677D01*
X013279Y001670D01*
X013328Y001659D01*
X013376Y001644D01*
X013422Y001626D01*
X013467Y001604D01*
X013510Y001578D01*
X013551Y001549D01*
X013590Y001517D01*
X013626Y001482D01*
X013658Y001444D01*
X013688Y001404D01*
X013715Y001361D01*
X013738Y001317D01*
X013757Y001271D01*
X013773Y001223D01*
X013785Y001174D01*
X013793Y001125D01*
X013797Y001075D01*
X013797Y001025D01*
X013793Y000975D01*
X013785Y000926D01*
X013773Y000877D01*
X013757Y000829D01*
X013738Y000783D01*
X013715Y000739D01*
X013688Y000696D01*
X013658Y000656D01*
X013626Y000618D01*
X013590Y000583D01*
X013551Y000551D01*
X013510Y000522D01*
X013467Y000496D01*
X013422Y000474D01*
X013376Y000456D01*
X013328Y000441D01*
X013279Y000430D01*
X013230Y000423D01*
X013180Y000420D01*
X013129Y000421D01*
X013080Y000426D01*
X013030Y000435D01*
X012982Y000448D01*
X012935Y000464D01*
X012889Y000485D01*
X012845Y000509D01*
X012803Y000536D01*
X012763Y000566D01*
X012726Y000600D01*
X012692Y000637D01*
X012660Y000676D01*
X012632Y000717D01*
X012607Y000761D01*
X012586Y000806D01*
X012569Y000853D01*
X012555Y000901D01*
X012545Y000950D01*
X012539Y001000D01*
X012537Y001050D01*
M02*
